<svg width="40" height="40" viewBox="0 0 40 40" fill="none" xmlns="http://www.w3.org/2000/svg">
<path fill-rule="evenodd" clip-rule="evenodd" d="M31.281 22.2666C30.691 21.56 29.641 21.4633 28.9344 22.0533L21.6677 28.1083V8.33329C21.6677 7.41329 20.921 6.66663 20.001 6.66663C19.081 6.66663 18.3344 7.41329 18.3344 8.33329V28.1083L11.0677 22.0533C10.3594 21.4633 9.30938 21.56 8.72104 22.2666C8.13104 22.9733 8.22604 24.025 8.93438 24.6133L18.9344 32.9466C19.0127 33.0133 19.106 33.045 19.1927 33.095C19.261 33.135 19.321 33.1816 19.396 33.2116C19.591 33.2883 19.7944 33.3333 20.001 33.3333C20.2077 33.3333 20.411 33.2883 20.606 33.2116C20.681 33.1816 20.741 33.135 20.8094 33.095C20.896 33.045 20.9894 33.0133 21.0677 32.9466L31.0677 24.6133C31.7744 24.025 31.871 22.9733 31.281 22.2666Z" fill="white"/>
</svg>
