<svg width="1760" height="750" viewBox="0 0 1760 750" fill="none" xmlns="http://www.w3.org/2000/svg">
<g opacity="0.25" clip-path="url(#clip0_58_25295)">
<path d="M682.168 15C808.733 15 911.334 117.601 911.334 244.167C911.334 337.65 862.67 428.101 790.037 445.554C762.02 452.287 739.708 488.24 744.502 529.285C750.919 584.222 800.599 639.725 898.965 683.464C920.867 693.203 911.697 726.15 887.913 723.172C631.556 691.077 453.856 523.949 453.004 287.493C453.001 124.877 549.076 15 682.168 15Z" fill="white"/>
<path d="M182.164 15C308.729 15 411.33 117.601 411.33 244.167C411.33 337.65 362.666 428.101 290.033 445.554C262.016 452.287 239.704 488.24 244.498 529.285C250.915 584.222 300.595 639.725 398.962 683.464C420.863 693.203 411.693 726.15 387.909 723.172C131.552 691.077 -46.1475 523.949 -47 287.493C-47.0031 124.877 49.0716 15 182.164 15Z" fill="white"/>
</g>
<defs>
<clipPath id="clip0_58_25295">
<rect width="1760" height="750" fill="white"/>
</clipPath>
</defs>
</svg>
