<svg width="80" height="80" viewBox="0 0 80 80" fill="none" xmlns="http://www.w3.org/2000/svg">
<path d="M58.3331 10C68.4583 10 76.6664 18.2081 76.6664 28.3333C76.6664 35.812 72.7733 43.0481 66.9627 44.4443C64.7213 44.9829 62.9363 47.8592 63.3199 51.1428C63.8332 55.5377 67.8076 59.978 75.6769 63.4771C77.4291 64.2562 76.6954 66.892 74.7927 66.6538C54.2842 64.0861 40.0682 50.7159 40 31.7995C39.9998 18.7902 47.6857 10 58.3331 10Z" fill="#D3D3D3"/>
<path d="M18.3331 10C28.4583 10 36.6664 18.2081 36.6664 28.3333C36.6664 35.812 32.7733 43.0481 26.9627 44.4443C24.7213 44.9829 22.9363 47.8592 23.3199 51.1428C23.8332 55.5377 27.8076 59.978 35.6769 63.4771C37.4291 64.2562 36.6954 66.892 34.7927 66.6538C14.2842 64.0861 0.0682 50.7159 5.88741e-09 31.7995C-0.000245627 18.7902 7.68573 10 18.3331 10Z" fill="#D3D3D3"/>
</svg>
