<svg width="40" height="40" viewBox="0 0 40 40" fill="none" xmlns="http://www.w3.org/2000/svg">
<path d="M29.1464 33.3287H10.8494C6.70564 33.3287 3.33398 29.9626 3.33398 25.8189V14.1764C3.33398 10.0326 6.70564 6.6665 10.8494 6.6665H29.1519C33.2957 6.6665 36.6673 10.0326 36.6673 14.1764V25.8189C36.6673 29.9571 33.2957 33.3287 29.1519 33.3287H29.1464ZM10.8494 8.33289C7.62216 8.33289 5.00593 10.9547 5.00593 14.1764V25.8189C5.00593 29.0406 7.62771 31.6568 10.8494 31.6568H29.1519C32.3736 31.6568 34.9954 29.035 34.9954 25.8189V14.1764C34.9954 10.9547 32.3736 8.33845 29.1519 8.33845H10.8494V8.33289Z" fill="#231F20"/>
<path d="M20.153 22.1415C18.1422 22.1415 16.2537 21.3639 14.8428 19.9474L9.27704 14.3872C8.94932 14.0595 8.94932 13.5318 9.27704 13.2097C9.60477 12.8819 10.1325 12.8819 10.4602 13.2097L16.0259 18.7698C17.1257 19.8697 18.5922 20.4751 20.1586 20.4751C21.725 20.4751 23.1914 19.8697 24.2912 18.7698L29.8569 13.2097C30.1847 12.8819 30.7124 12.8819 31.0401 13.2097C31.3678 13.5374 31.3678 14.0651 31.0401 14.3872L25.4743 19.9474C24.0579 21.3639 22.1749 22.1415 20.1641 22.1415H20.153Z" fill="#7F5D46"/>
</svg>
