<svg width="40" height="40" viewBox="0 0 40 40" fill="none" xmlns="http://www.w3.org/2000/svg">
<path d="M27.2679 3.3335H12.7393C10.312 3.3335 8.33398 5.23873 8.33398 7.58279V32.4175C8.33398 34.7616 10.312 36.6668 12.7393 36.6668H27.262C29.6893 36.6668 31.6673 34.7616 31.6673 32.4175V7.58279C31.6673 5.23873 29.6893 3.3335 27.262 3.3335H27.2679ZM29.911 32.412C29.911 33.8173 28.7266 34.9616 27.2679 34.9616H12.7393C11.2806 34.9616 10.0961 33.8173 10.0961 32.412V7.58279C10.0961 6.17747 11.2806 5.03321 12.7393 5.03321H14.4197C14.548 6.01083 15.4058 6.77181 16.4502 6.77181H23.5511C24.6014 6.77181 25.4533 6.01083 25.5816 5.03321H27.262C28.7207 5.03321 29.9052 6.17747 29.9052 7.58279V32.4175L29.911 32.412Z" fill="#231F20"/>
<path d="M25.278 29.6235H14.7287C14.2444 29.6235 13.8477 30.0012 13.8477 30.4734C13.8477 30.9455 14.2444 31.3232 14.7287 31.3232H25.278C25.7623 31.3232 26.1591 30.9455 26.1591 30.4734C26.1591 30.0012 25.7623 29.6235 25.278 29.6235Z" fill="#7F5D46"/>
</svg>
