<svg width="80" height="80" viewBox="0 0 80 80" fill="none" xmlns="http://www.w3.org/2000/svg">
<path d="M45.3995 16.6665H34.6106C33.6995 16.6665 32.9551 17.3877 32.9551 18.268C32.9551 19.1483 33.6995 19.8695 34.6106 19.8695H38.3551V24.6529C38.3551 25.5332 39.0995 26.2544 40.0106 26.2544C40.9217 26.2544 41.6662 25.5332 41.6662 24.6529V19.8695H45.4106C46.3217 19.8695 47.0662 19.1483 47.0662 18.268C47.0662 17.3877 46.3217 16.6665 45.4106 16.6665H45.3995Z" fill="#231F20"/>
<path d="M64.6325 51.0727C64.6325 37.9318 53.5769 27.2515 39.9991 27.2515C26.4214 27.2515 15.3658 37.9318 15.3658 51.0621H12.0547C12.0547 36.1712 24.588 24.0591 39.9991 24.0591C55.4102 24.0591 67.9436 36.1712 67.9436 51.0621H64.6325V51.0727Z" fill="#7F5D46"/>
<path d="M66.1549 63.3332H13.8438C9.88824 63.3332 6.66602 60.2256 6.66602 56.3968C6.66602 52.568 9.88824 49.4604 13.8438 49.4604H66.1549C70.1105 49.4604 73.3327 52.568 73.3327 56.3968C73.3327 60.2256 70.1105 63.3332 66.1549 63.3332ZM13.8438 52.6635C11.7105 52.6635 9.97713 54.3392 9.97713 56.3968C9.97713 58.4544 11.7105 60.1301 13.8438 60.1301H66.1549C68.2882 60.1301 70.0216 58.4544 70.0216 56.3968C70.0216 54.3392 68.2882 52.6635 66.1549 52.6635H13.8438Z" fill="#231F20"/>
</svg>
