<svg width="40" height="40" viewBox="0 0 40 40" fill="none" xmlns="http://www.w3.org/2000/svg">
<path d="M20.0007 36.6668C10.8118 36.6668 3.33398 29.1891 3.33398 20.0002C3.33398 10.8113 10.8118 3.3335 20.0007 3.3335C29.1895 3.3335 36.6673 10.8113 36.6673 20.0002C36.6673 29.1891 29.1895 36.6668 20.0007 36.6668ZM20.0007 4.92238C11.7007 4.92238 4.95065 11.6835 4.95065 20.0002C4.95065 28.3168 11.7007 35.0779 20.0007 35.0779C28.3007 35.0779 35.0507 28.3113 35.0507 20.0002C35.0507 11.6891 28.3007 4.92238 20.0007 4.92238Z" fill="#1B1A1A"/>
<path d="M20.2168 31.4112C19.7556 31.4112 19.3834 31.039 19.3834 30.5779V20.5168H16.9779C16.5168 20.5168 16.1445 20.1445 16.1445 19.6834C16.1445 19.2223 16.5168 18.8501 16.9779 18.8501H20.2168C20.6779 18.8501 21.0501 19.2223 21.0501 19.6834V30.5779C21.0501 31.039 20.6779 31.4112 20.2168 31.4112Z" fill="#1B1A1A"/>
<path d="M19.4445 16.3056C17.6223 16.3056 16.1445 14.8222 16.1445 13.0056C16.1445 11.1889 17.6279 9.70557 19.4445 9.70557C21.2612 9.70557 22.7445 11.1889 22.7445 13.0056C22.7445 14.8222 21.2612 16.3056 19.4445 16.3056ZM19.4445 11.3722C18.5445 11.3722 17.8112 12.1056 17.8112 13.0056C17.8112 13.9056 18.5445 14.6389 19.4445 14.6389C20.3445 14.6389 21.0779 13.9056 21.0779 13.0056C21.0779 12.1056 20.3445 11.3722 19.4445 11.3722Z" fill="#00943E"/>
</svg>
