<svg width="80" height="80" viewBox="0 0 80 80" fill="none" xmlns="http://www.w3.org/2000/svg">
<path d="M39.9994 73.3332C21.6204 73.3332 6.66602 58.3788 6.66602 39.9998C6.66602 21.6209 21.6204 6.6665 39.9994 6.6665C58.3783 6.6665 73.3327 21.6209 73.3327 39.9998C73.3327 58.3788 58.3783 73.3332 39.9994 73.3332ZM39.9994 10.0021C23.455 10.0021 10.0016 23.4555 10.0016 39.9998C10.0016 56.5442 23.455 69.9976 39.9994 69.9976C56.5437 69.9976 69.9971 56.5442 69.9971 39.9998C69.9971 23.4555 56.5437 10.0021 39.9994 10.0021Z" fill="#231F20"/>
<path d="M48.182 46.493C48.182 41.5897 41.3997 38.7545 40.6214 38.4432C40.5991 38.4432 40.5769 38.4432 40.5546 38.4209C38.7646 37.6871 35.1399 35.5635 35.1399 33.4954C35.1399 30.271 37.8084 28.8034 40.2878 28.8034C43.3899 28.8034 45.5913 30.0931 45.6358 30.1265C46.4141 30.6046 47.437 30.36 47.9262 29.5817C48.4154 28.8034 48.1708 27.7694 47.3814 27.2913C47.2702 27.2246 45.0243 25.857 41.6554 25.5457V22.7772C41.6554 21.8543 40.9104 21.1094 39.9876 21.1094C39.0648 21.1094 38.3198 21.8543 38.3198 22.7772V25.6902C34.4951 26.4907 31.8044 29.5817 31.8044 33.5065C31.8044 38.4098 38.5867 41.245 39.365 41.5563C39.3761 41.5563 39.3872 41.5563 39.3983 41.5563C41.1884 42.279 44.8353 44.4138 44.8353 46.493C44.8353 49.7173 42.1668 51.185 39.6874 51.185C36.5853 51.185 34.395 49.8952 34.3394 49.8619C33.5611 49.3838 32.5382 49.6284 32.049 50.4067C31.5598 51.185 31.8044 52.219 32.5938 52.6971C32.705 52.7638 34.9509 54.1314 38.3198 54.4427V57.2112C38.3198 58.1341 39.0648 58.879 39.9876 58.879C40.9104 58.879 41.6554 58.1341 41.6554 57.2112V54.2982C45.4802 53.4976 48.1708 50.4067 48.1708 46.4818L48.182 46.493Z" fill="#7F5D46"/>
</svg>
