<svg width="80" height="80" viewBox="0 0 80 80" fill="none" xmlns="http://www.w3.org/2000/svg">
<path d="M19.5843 44.3971C19.4954 44.3971 19.3954 44.3971 19.2953 44.3751C16.3395 43.8707 10.75 41.0199 10.75 33.794C10.75 24.2216 16.9284 23.1909 19.5843 23.1909C21.0066 23.1909 24.5403 23.4979 26.685 26.3488C28.5519 28.8378 28.7741 32.4782 27.3406 37.1821C27.0739 38.0484 26.1405 38.5418 25.2626 38.2786C24.3848 38.0155 23.8847 37.0944 24.1514 36.2282C25.2515 32.6317 25.2071 29.8905 24.0181 28.3115C22.7401 26.612 20.3066 26.4804 19.5954 26.4804C15.895 26.4804 14.0948 28.8707 14.0948 33.794C14.0948 40.0878 19.6398 41.0966 19.8732 41.1405C20.7844 41.294 21.3844 42.1493 21.2289 43.0374C21.0955 43.8378 20.3843 44.408 19.5843 44.408V44.3971Z" fill="white"/>
<path d="M17.0508 62.5657H8.33876C7.43866 62.5657 6.70525 61.864 6.67191 60.9758C6.6608 60.5372 6.37188 50.1973 11.7058 44.2872C12.317 43.6074 13.3726 43.5526 14.0616 44.1556C14.7505 44.7587 14.8061 45.8004 14.1949 46.4802C10.8612 50.1644 10.1723 56.3705 10.0278 59.2762H17.0508C17.9731 59.2762 18.7176 60.0109 18.7176 60.921C18.7176 61.8311 17.9731 62.5657 17.0508 62.5657Z" fill="white"/>
<path d="M60.411 44.3968C59.6109 44.3968 58.9108 43.8266 58.7664 43.0262C58.6108 42.138 59.222 41.2828 60.1221 41.1292C60.7221 41.0196 65.9116 39.9012 65.9116 33.7828C65.9116 28.8595 64.1114 26.4692 60.411 26.4692C59.6998 26.4692 57.2662 26.6007 55.9883 28.3003C54.7993 29.8792 54.7548 32.6205 55.855 36.217C56.1216 37.0832 55.6216 38.0042 54.7437 38.2674C53.8659 38.5306 52.9324 38.0371 52.6657 37.1709C51.2322 32.467 51.4434 28.8266 53.3214 26.3376C55.466 23.4867 58.9997 23.1797 60.4221 23.1797C63.0779 23.1797 69.2564 24.2104 69.2564 33.7828C69.2564 41.0086 63.6669 43.8705 60.711 44.3639C60.611 44.3749 60.5221 44.3858 60.4221 44.3858L60.411 44.3968Z" fill="white"/>
<path d="M71.6562 62.5657H62.9442C62.0219 62.5657 61.2773 61.8311 61.2773 60.921C61.2773 60.0109 62.0219 59.2762 62.9442 59.2762H69.9671C69.8338 56.3705 69.1337 50.1754 65.8 46.4802C65.1889 45.8004 65.2444 44.7587 65.9334 44.1556C66.6223 43.5526 67.678 43.6074 68.2892 44.2872C73.6342 50.1863 73.3453 60.5372 73.3231 60.9758C73.2897 61.864 72.5563 62.5657 71.6562 62.5657Z" fill="white"/>
<path d="M39.9541 41.5241C39.6207 41.5241 39.2874 41.4254 38.9873 41.2171C38.6206 40.9649 30.1309 34.8904 30.1309 26.0417C30.142 17.8947 35.4314 15 39.9541 15C43.7101 15 49.6662 17.8509 49.6662 25.4934C49.6662 33.136 45.2547 36.5461 45.0769 36.6776C44.3435 37.2259 43.2989 37.0724 42.7433 36.3487C42.1877 35.625 42.3433 34.5943 43.0767 34.0461C43.1989 33.9583 46.3437 31.4583 46.3437 25.4934C46.3437 19.5285 41.7321 18.2895 39.9652 18.2895C38.4428 18.2895 33.4757 18.8487 33.4757 26.0417C33.4757 33.2346 40.8542 38.4868 40.932 38.5417C41.6765 39.068 41.8543 40.0987 41.3209 40.8333C40.9987 41.2829 40.4875 41.5241 39.9652 41.5241H39.9541Z" fill="white"/>
<path d="M48.2542 39.1229C48.2542 39.1229 48.2209 39.1229 48.2097 39.1119C48.1542 39.09 48.0986 39.079 48.0431 39.0681C47.9875 39.0571 47.9319 39.0461 47.8875 39.0352C47.8319 39.0352 47.7764 39.0352 47.7208 39.0352C47.6652 39.0352 47.6097 39.0352 47.5541 39.0352C47.4986 39.0352 47.4541 39.0461 47.3986 39.0571C47.343 39.0571 47.2874 39.079 47.243 39.09C47.1874 39.1009 47.143 39.1229 47.0874 39.1448C47.043 39.1667 46.9874 39.1777 46.943 39.1996C46.8874 39.2216 46.8429 39.2545 46.7985 39.2873C46.754 39.3093 46.7096 39.3422 46.6763 39.3641C46.6318 39.397 46.5985 39.4299 46.554 39.4738C46.5096 39.5066 46.4762 39.5505 46.4318 39.5834C46.3985 39.6163 46.3651 39.6602 46.3429 39.704C46.3095 39.7479 46.2762 39.8027 46.2429 39.8575C46.2429 39.8685 46.2207 39.8795 46.2207 39.8904C44.9761 42.1492 42.5981 43.5527 40.0089 43.5527C37.4197 43.5527 35.0195 42.1492 33.786 39.8904C33.786 39.8795 33.7638 39.8685 33.7638 39.8575C33.7305 39.8027 33.6971 39.7588 33.6638 39.704C33.6304 39.6602 33.6082 39.6273 33.5749 39.5834C33.5415 39.5395 33.4971 39.5066 33.4638 39.4738C33.4193 39.4409 33.386 39.397 33.3415 39.3641C33.2971 39.3312 33.2637 39.3093 33.2193 39.2873C33.1748 39.2545 33.1193 39.2216 33.0637 39.1996C33.0193 39.1777 32.9748 39.1667 32.9304 39.1448C32.8748 39.1229 32.8304 39.1009 32.7748 39.09C32.7192 39.079 32.6748 39.0681 32.6192 39.0571C32.5637 39.0571 32.5192 39.0352 32.4637 39.0352C32.4081 39.0352 32.3525 39.0352 32.297 39.0352C32.2414 39.0352 32.1858 39.0352 32.1414 39.0352C32.0858 39.0352 32.0303 39.0571 31.9747 39.0681C31.9192 39.079 31.8636 39.09 31.8191 39.1119C31.808 39.1119 31.7858 39.1119 31.7747 39.1229C25.863 41.2501 21.8848 46.8422 21.8848 53.0373V58.2676C21.8848 61.9847 24.9406 65.0001 28.7077 65.0001H51.3434C55.1105 65.0001 58.1663 61.9847 58.1663 58.2676V53.0373C58.1663 46.8641 54.1993 41.272 48.2875 39.1229H48.2542ZM54.7993 58.2676C54.7993 60.1645 53.2325 61.7106 51.3101 61.7106H28.6744C26.7519 61.7106 25.1851 60.1645 25.1851 58.2676V53.0373C25.1851 48.6514 27.752 44.6602 31.6858 42.7303C33.6304 45.2961 36.6974 46.8422 39.9978 46.8422C43.2981 46.8422 46.354 45.2961 48.2986 42.7303C52.2324 44.6711 54.7993 48.6623 54.7993 53.0373V58.2676Z" fill="white"/>
</svg>
