<svg width="80" height="80" viewBox="0 0 80 80" fill="none" xmlns="http://www.w3.org/2000/svg">
<path d="M21.9162 66.2958C21.6317 66.2958 21.3471 66.229 21.0854 66.0842C20.5504 65.7836 20.209 65.2268 20.209 64.6255V49.5707C20.209 48.6465 20.9715 47.9004 21.9162 47.9004C22.8609 47.9004 23.6234 48.6465 23.6234 49.5707V61.6413L28.9727 58.4455C29.7808 57.9666 30.8278 58.2116 31.3172 59.0022C31.8066 59.7928 31.5563 60.8173 30.7482 61.2961L22.8039 66.0508C22.5308 66.2179 22.2235 66.2958 21.9162 66.2958Z" fill="#231F20"/>
<path d="M58.1095 66.2957C57.8022 66.2957 57.495 66.2178 57.2218 66.0507L49.2662 61.296C48.4581 60.8172 48.2077 59.7816 48.6971 59.0021C49.1865 58.2115 50.245 57.9665 51.0417 58.4454L56.4023 61.6523V49.5594C56.4023 48.6352 57.1649 47.8892 58.1095 47.8892C59.0542 47.8892 59.8168 48.6352 59.8168 49.5594V64.6254C59.8168 65.2267 59.4867 65.7835 58.9404 66.0841C58.6786 66.2289 58.3941 66.2957 58.1095 66.2957Z" fill="#231F20"/>
<path d="M50.153 53.4121C49.2083 53.4121 48.4458 54.1582 48.4458 55.0824V68.6785L40.8999 64.1687C40.8999 64.1687 40.8202 64.1353 40.7747 64.1131C40.7405 64.0908 40.7064 64.0797 40.6722 64.0685C40.604 64.0463 40.547 64.024 40.4788 64.0017C40.4332 63.9906 40.3991 63.9795 40.3536 63.9683C40.2967 63.9572 40.2284 63.946 40.1715 63.946C40.1146 63.946 40.069 63.946 40.0121 63.946C39.9552 63.946 39.9097 63.946 39.8528 63.946C39.7959 63.946 39.7276 63.9572 39.6707 63.9683C39.6252 63.9683 39.591 63.9906 39.5455 64.0017C39.4772 64.024 39.4203 64.0463 39.352 64.0685C39.3179 64.0797 39.2837 64.1019 39.2496 64.1242C39.204 64.1465 39.1699 64.1576 39.1244 64.1799L31.5785 68.6897V55.0935C31.5785 54.1693 30.8159 53.4232 29.8713 53.4232C28.9266 53.4232 28.1641 54.1693 28.1641 55.0935V71.6628C28.1641 72.2641 28.4941 72.8208 29.0404 73.1215C29.3022 73.2662 29.5867 73.333 29.8713 73.333C30.1786 73.333 30.4859 73.2551 30.759 73.0881L40.0235 67.5539L49.288 73.0881C49.5611 73.2551 49.8684 73.333 50.1757 73.333C50.4603 73.333 50.7562 73.2662 51.0066 73.1215C51.5415 72.8208 51.8829 72.2641 51.8829 71.6628V55.0935C51.8829 54.1693 51.1204 53.4232 50.1757 53.4232L50.153 53.4121Z" fill="#A8845D"/>
<path d="M49.8451 47.6775C49.4923 47.6775 49.1395 47.5661 48.8435 47.3546L40.0116 41.0743L31.1796 47.3546C30.5764 47.7777 29.7683 47.7777 29.1764 47.3546C28.5846 46.9314 28.3228 46.1742 28.5619 45.4839L31.9308 35.3285L23.0988 29.0482C22.4956 28.6251 22.2452 27.8679 22.4842 27.1775C22.7118 26.4871 23.3719 26.0195 24.1117 26.0195H35.0265L38.3954 15.8641C38.623 15.1737 39.2831 14.7061 40.0229 14.7061C40.7627 14.7061 41.4228 15.1737 41.6505 15.8641L45.0194 26.0195H55.9342C56.674 26.0195 57.3341 26.4871 57.5617 27.1775C57.7893 27.8679 57.5389 28.614 56.9471 29.0482L48.1151 35.3285L51.484 45.4839C51.7117 46.1742 51.4613 46.9203 50.8694 47.3546C50.5735 47.5661 50.2207 47.6775 49.8679 47.6775H49.8451ZM40.0116 37.344C40.3644 37.344 40.7172 37.4553 41.0131 37.6669L46.6014 41.6311L44.4731 35.206C44.2454 34.5156 44.4958 33.7696 45.0877 33.3353L50.6759 29.3712H43.7788C43.039 29.3712 42.3789 28.9035 42.1513 28.2131L40.0229 21.7881L37.8946 28.2131C37.667 28.9035 37.0069 29.3712 36.2671 29.3712H29.3699L34.9582 33.3353C35.5614 33.7584 35.8118 34.5156 35.5728 35.206L33.4445 41.6311L39.0328 37.6669C39.3287 37.4553 39.6815 37.344 40.0343 37.344H40.0116Z" fill="#A8845D"/>
<path d="M40.0007 58.8574C25.2959 58.8574 13.334 47.1542 13.334 32.7564C13.334 18.3585 25.2959 6.6665 40.0007 6.6665C54.7054 6.6665 66.6673 18.3696 66.6673 32.7564C66.6673 47.1431 54.7054 58.8462 40.0007 58.8462V58.8574ZM40.0007 10.0071C27.1852 10.0071 16.7484 20.2181 16.7484 32.7564C16.7484 45.2946 27.1852 55.5057 40.0007 55.5057C52.8161 55.5057 63.2529 45.2946 63.2529 32.7564C63.2529 20.2181 52.8275 10.0071 40.0007 10.0071Z" fill="#231F20"/>
</svg>
