<svg width="80" height="80" viewBox="0 0 80 80" fill="none" xmlns="http://www.w3.org/2000/svg">
<path d="M59.1749 47.2L41.9179 38.8667V19.5334C41.9179 18.6111 41.1681 17.8667 40.2392 17.8667C39.3104 17.8667 38.5605 18.6111 38.5605 19.5334V39.9111C38.5605 39.9111 38.5605 39.9778 38.5605 40.0223C38.5605 40.0778 38.5605 40.1445 38.5829 40.2C38.5829 40.2556 38.6053 40.3 38.6165 40.3556C38.6277 40.4111 38.6501 40.4556 38.6613 40.5111C38.6837 40.5667 38.706 40.6111 38.7284 40.6556C38.7508 40.7 38.7732 40.7556 38.8068 40.8C38.8291 40.8445 38.8627 40.8889 38.8963 40.9223C38.9299 40.9667 38.9634 41.0111 39.0082 41.0556C39.0418 41.0889 39.0865 41.1223 39.1201 41.1556C39.1649 41.1889 39.1985 41.2334 39.2544 41.2667C39.2992 41.3 39.3551 41.3334 39.3999 41.3556C39.4335 41.3778 39.4559 41.4 39.4894 41.4111L57.6865 50.2C57.9215 50.3111 58.1677 50.3667 58.4251 50.3667C59.0518 50.3667 59.645 50.0223 59.936 49.4334C60.3388 48.6 59.9919 47.6111 59.1638 47.2H59.1749Z" fill="#A8845D"/>
<path d="M52.1474 71.0442C51.2186 71.0442 50.4688 70.2997 50.4688 69.3775C50.4688 68.4441 51.2186 67.6997 52.1474 67.6997C53.0763 67.6997 53.8261 68.4442 53.8261 69.3664C53.8261 70.2886 53.0763 71.033 52.1474 71.033V71.0442Z" fill="#231F20"/>
<path d="M62.8576 63.8109C62.8576 63.6332 62.8128 63.4443 62.7457 63.2665C62.7457 63.2443 62.7233 63.222 62.7121 63.1998C62.6449 63.0443 62.5554 62.8998 62.4435 62.7665C62.4211 62.7443 62.4099 62.7332 62.3875 62.7109C62.3875 62.7109 62.3875 62.6887 62.3652 62.6887C62.3652 62.6887 62.3428 62.6776 62.3316 62.6665C62.1861 62.522 62.0182 62.4109 61.8392 62.3443C61.8168 62.3443 61.7944 62.3332 61.7832 62.322C61.6042 62.2554 61.4139 62.2109 61.2125 62.2109C61.1901 62.2109 61.1677 62.2109 61.1453 62.2109C60.9551 62.2109 60.7648 62.2554 60.5857 62.322C60.5634 62.322 60.541 62.3443 60.5186 62.3443C60.3619 62.4109 60.2052 62.4998 60.0709 62.6109C57.5305 64.8332 54.6432 66.5887 51.5096 67.822C50.6479 68.1665 50.2338 69.1332 50.5695 69.9887C50.8269 70.6443 51.4648 71.0332 52.1251 71.0332C52.3377 71.0332 52.5392 70.9998 52.7518 70.9109C56.2435 69.522 59.4442 67.5776 62.2756 65.0998C62.2868 65.0998 62.298 65.0776 62.3092 65.0665C62.3204 65.0554 62.3428 65.0443 62.3652 65.0332C62.3875 65.0109 62.3987 64.9776 62.4099 64.9554C62.533 64.822 62.6226 64.6776 62.7009 64.522C62.7233 64.4776 62.7345 64.4443 62.7457 64.3998C62.8016 64.2332 62.8352 64.0665 62.8464 63.8887C62.8464 63.8554 62.8464 63.822 62.8464 63.7887L62.8576 63.8109Z" fill="#A8845D"/>
<path d="M73.02 44.5999C73.02 44.5999 73.02 44.5999 73.0088 44.5888C72.9528 44.511 72.8857 44.4332 72.8185 44.3666C72.7962 44.3443 72.7626 44.3221 72.7402 44.2999C72.6842 44.2555 72.6283 44.211 72.5723 44.1666C72.5388 44.1443 72.494 44.1221 72.4492 44.0999C72.3933 44.0666 72.3373 44.0443 72.2814 44.011C72.2366 43.9888 72.1918 43.9777 72.1471 43.9666C72.0911 43.9443 72.024 43.9332 71.968 43.911H71.9456C71.9009 43.911 71.8561 43.911 71.8113 43.911C71.7554 43.911 71.7106 43.8999 71.6546 43.8999C71.6546 43.8999 71.6323 43.8999 71.6211 43.8999C71.5763 43.8999 71.5203 43.8999 71.4756 43.911C71.4084 43.911 71.3413 43.9221 71.2853 43.9332C71.2518 43.9332 71.2182 43.9555 71.1846 43.9666C71.1175 43.9888 71.0391 44.011 70.972 44.0332C70.9496 44.0443 70.9272 44.0555 70.8936 44.0777C70.8265 44.111 70.7481 44.1443 70.6922 44.1888C70.6586 44.211 70.6362 44.2332 70.6139 44.2555C70.5579 44.2999 70.5019 44.3443 70.4572 44.3888C70.4236 44.4221 70.4012 44.4666 70.3676 44.4999C70.3341 44.5443 70.2893 44.5888 70.2557 44.6332C70.2222 44.6777 70.211 44.7221 70.1774 44.7666C70.155 44.8221 70.1214 44.8666 70.0991 44.9221C70.0767 44.9666 70.0655 45.011 70.0543 45.0666C70.0319 45.1221 70.0207 45.1888 70.0095 45.2443V45.2666C69.45 48.5221 68.3308 51.6332 66.6969 54.5443C66.2492 55.3443 66.529 56.3666 67.346 56.811C67.6034 56.9555 67.8832 57.0221 68.163 57.0221C68.7561 57.0221 69.3268 56.711 69.629 56.1666C71.4308 52.9666 72.6619 49.5332 73.2886 45.9555C73.3221 45.8221 73.3445 45.6888 73.3445 45.5444C73.3445 45.1888 73.2326 44.8555 73.0312 44.5888L73.02 44.5999Z" fill="#A8845D"/>
<path d="M69.9861 34.7331C69.9861 34.7331 69.9861 34.7442 69.9861 34.7553C70.0196 34.9331 70.0868 35.0998 70.1651 35.2553C70.1763 35.2775 70.1875 35.3109 70.2099 35.3331C70.2994 35.4775 70.4113 35.5998 70.5344 35.7109C70.5568 35.7331 70.5792 35.7442 70.6016 35.7664C70.7359 35.8664 70.8814 35.9553 71.0381 36.0109C71.0604 36.0109 71.0828 36.022 71.1052 36.0331C71.2731 36.0887 71.4409 36.122 71.62 36.122C71.62 36.122 71.6424 36.122 71.6536 36.122C71.7319 36.122 71.8103 36.122 71.8886 36.0998C71.8886 36.0998 71.8998 36.0998 71.911 36.0998C72.0117 36.0775 72.1012 36.0553 72.1908 36.022C72.1908 36.022 72.2131 36.022 72.2243 36.022C72.851 35.7775 73.2875 35.1775 73.2875 34.4664C73.2875 34.322 73.2651 34.1887 73.2316 34.0553C72.5936 30.4775 71.3738 27.0442 69.572 23.8331C69.1131 23.0331 68.0947 22.7442 67.289 23.1887C66.4832 23.6331 66.1922 24.6553 66.6399 25.4553C68.2738 28.3664 69.3929 31.4887 69.9525 34.7331H69.9861Z" fill="#A8845D"/>
<path d="M62.4995 8.41095C61.5706 8.41095 60.8208 9.15539 60.8208 10.0776V13.6665C54.9565 9.14428 47.7158 6.6665 40.24 6.6665C21.7295 6.6665 6.66602 21.6221 6.66602 39.9998C6.66602 58.3776 21.7295 73.3332 40.24 73.3332C41.1688 73.3332 41.9187 72.5887 41.9187 71.6665C41.9187 70.7443 41.1688 69.9998 40.24 69.9998C23.5761 69.9998 10.0234 56.5443 10.0234 39.9998C10.0234 23.4554 23.5761 9.99984 40.24 9.99984C46.8205 9.99984 53.1883 12.1554 58.4035 16.0554H54.8111C53.8822 16.0554 53.1324 16.7998 53.1324 17.7221C53.1324 18.6443 53.8822 19.3887 54.8111 19.3887H62.5107C63.4396 19.3887 64.1894 18.6443 64.1894 17.7221V10.0776C64.1894 9.15539 63.4396 8.41095 62.5107 8.41095H62.4995Z" fill="#231F20"/>
</svg>
