<svg width="80" height="80" viewBox="0 0 80 80" fill="none" xmlns="http://www.w3.org/2000/svg">
<path d="M30.1969 37.5135C26.7357 37.5135 23.9297 34.6923 23.9297 31.227C23.9297 27.7616 26.7357 24.9404 30.1969 24.9404C33.6581 24.9404 36.4641 27.7616 36.4641 31.227C36.4641 34.6923 33.6471 37.5135 30.1969 37.5135ZM30.1969 28.117C28.4827 28.117 27.096 29.5165 27.096 31.227C27.096 32.9374 28.4827 34.3369 30.1969 34.3369C31.9111 34.3369 33.2977 32.9374 33.2977 31.227C33.2977 29.5165 31.9002 28.117 30.1969 28.117Z" fill="white"/>
<path d="M49.9684 54.3626C46.5181 54.3626 43.7012 51.5414 43.7012 48.0761C43.7012 44.6107 46.5181 41.7896 49.9684 41.7896C53.4186 41.7896 56.2356 44.6107 56.2356 48.0761C56.2356 51.5414 53.4186 54.3626 49.9684 54.3626ZM49.9684 44.9661C48.2542 44.9661 46.8675 46.3656 46.8675 48.0761C46.8675 49.7866 48.2651 51.186 49.9684 51.186C51.6717 51.186 53.0692 49.7866 53.0692 48.0761C53.0692 46.3656 51.6717 44.9661 49.9684 44.9661Z" fill="white"/>
<path d="M28.2738 53.3743C27.8698 53.3743 27.4658 53.2188 27.1601 52.9078C26.5378 52.2858 26.5378 51.2862 27.1601 50.6642L50.6239 27.1286C51.2463 26.5066 52.2399 26.5066 52.8622 27.1286C53.4846 27.7506 53.4846 28.7502 52.8622 29.3722L29.3984 52.9078C29.0927 53.2188 28.6887 53.3743 28.2847 53.3743H28.2738Z" fill="white"/>
<path d="M39.9461 73.311C39.6622 73.311 39.3892 73.2332 39.1381 73.0888L30.8619 68.1684L21.2099 67.2355C20.6313 67.1799 20.1399 66.8134 19.9106 66.2803L16.1219 57.4058L8.87205 50.986C8.44623 50.6084 8.24969 50.0197 8.3698 49.4532L10.4443 39.979L8.3698 30.5159C8.24969 29.9494 8.43531 29.3719 8.87205 28.9831L16.111 22.5633L19.8997 13.6778C20.129 13.1446 20.6313 12.7781 21.199 12.7226L30.851 11.8007L39.1381 6.89142C39.6294 6.59153 40.2518 6.59153 40.7431 6.89142L49.1394 11.8118L58.8023 12.7337C59.381 12.7892 59.8832 13.1557 60.1016 13.6889L63.8903 22.5744L71.1293 28.9942C71.5551 29.3719 71.7516 29.9605 71.6315 30.527L69.557 40.0012L71.6315 49.4754C71.7516 50.0419 71.566 50.6195 71.1293 51.0082L63.8903 57.428L60.1016 66.3025C59.8723 66.8356 59.37 67.2021 58.8023 67.2577L49.1394 68.1906L40.7431 73.111C40.492 73.2554 40.219 73.3332 39.9461 73.3332V73.311ZM22.4437 64.1699L31.517 65.0474C31.7463 65.0696 31.9756 65.1473 32.1721 65.2584L39.9461 69.8789L47.8401 65.2473C48.0367 65.1362 48.255 65.0585 48.4843 65.0363L57.5576 64.1588L61.117 55.8175C61.2044 55.6065 61.3463 55.4066 61.521 55.2511L68.3232 49.2089L66.3797 40.3122C66.3251 40.0901 66.3251 39.8568 66.3797 39.6347L68.3232 30.738L61.521 24.6959C61.3463 24.5404 61.2044 24.3515 61.117 24.1294L57.5576 15.7881L48.4843 14.9217C48.255 14.8995 48.0367 14.8329 47.8401 14.7107L39.9461 10.0791L32.1721 14.6996C31.9756 14.8218 31.7463 14.8884 31.517 14.9106L22.4437 15.777L18.8843 24.1183C18.797 24.3293 18.655 24.5292 18.4803 24.6847L11.6672 30.7269L13.6107 39.6236C13.6543 39.8457 13.6543 40.079 13.6107 40.3011L11.6672 49.1978L18.4803 55.24C18.655 55.3954 18.797 55.5843 18.8843 55.8064L22.4437 64.1477V64.1699Z" fill="white"/>
</svg>
