<svg width="437" height="519" viewBox="0 0 437 519" fill="none" xmlns="http://www.w3.org/2000/svg">
<g clip-path="url(#clip0_99_11732)">
<path d="M195.377 317.935C232.256 312.283 244.614 282.132 244.614 282.132C224.026 309.677 197.503 310.179 197.503 310.179C197.503 310.179 196.745 305.971 196.88 300.086C197.151 288.235 201.043 269.556 222.043 264.613C248.651 258.34 265.116 239.204 265.116 239.204C279.627 335.197 195.368 317.938 195.368 317.938L195.377 317.935Z" fill="#00943E"/>
<path d="M245.416 358.012C245.416 358.012 281.103 353.567 318.386 386.488C318.386 386.488 291.197 348.497 239.821 348.037C239.821 348.037 346.556 308.688 360.979 440.02C360.979 440.02 332.193 417.579 294.338 414.297C264.468 411.711 252.67 387.459 248.135 371.636C245.884 363.777 245.412 358.002 245.412 358.002L245.416 358.012Z" fill="#00943E"/>
<path d="M310.497 300.761C297.061 315.354 280.502 327.029 261.236 334.578C229.544 346.997 195.55 346.214 164.372 334.836C141.906 326.626 121.726 311.573 106.301 291.488C95.9626 278.021 87.2427 262.747 80.6504 245.924C55.0145 180.502 68.9199 110.392 110.694 67.0951C110.812 66.9669 111.008 66.9603 111.164 67.0636C111.358 67.2105 111.402 67.5101 111.251 67.6865C75.8865 107.287 64.6204 168.971 87.1091 226.708C117.719 305.305 199.97 347.146 270.158 319.83C279.204 316.309 287.608 311.819 295.333 306.504C335.236 277.069 334.733 232.117 334.721 231.418C324.433 279.073 293.162 295.856 293.162 295.856C293.162 295.856 290.09 290.958 287.207 283.359C281.417 268.075 276.419 241.897 298.839 222.798C327.254 198.593 336.966 164.176 336.966 164.176C387.118 249.511 338.026 287.263 310.488 300.764L310.497 300.761Z" fill="#00943E"/>
<path d="M175.608 12.1256C161.062 12.9212 146.531 15.9753 132.415 21.5066C53.3622 52.484 17.2816 149.165 51.5788 237.733C66.2442 275.586 91.5066 305.908 121.796 325.847C98.8862 306.29 79.9532 280.328 67.8328 249.397C42.7111 185.288 53.574 116.933 90.5655 70.9225C90.6325 70.8259 90.6943 70.743 90.7612 70.6464C115.681 36.5589 175.608 12.1256 175.608 12.1256Z" fill="#00943E"/>
</g>
<defs>
<clipPath id="clip0_99_11732">
<rect width="295.107" height="440.888" fill="white" transform="translate(0.628906 107.709) rotate(-21.398)"/>
</clipPath>
</defs>
</svg>
