<svg width="359" height="320" viewBox="0 0 359 320" fill="none" xmlns="http://www.w3.org/2000/svg">
<g clip-path="url(#clip0_58_25331)">
<path d="M207.375 347.935C244.254 342.283 256.612 312.132 256.612 312.132C236.024 339.677 209.501 340.179 209.501 340.179C209.501 340.179 208.743 335.971 208.878 330.086C209.149 318.235 213.041 299.556 234.041 294.613C260.649 288.34 277.114 269.204 277.114 269.204C291.625 365.197 207.366 347.938 207.366 347.938L207.375 347.935Z" fill="#00943E"/>
<path d="M322.495 330.761C309.059 345.353 292.5 357.028 273.234 364.578C241.542 376.996 207.548 376.214 176.37 364.836C153.905 356.626 133.724 341.572 118.299 321.487C107.961 308.021 99.2407 292.747 92.6484 275.924C67.0126 210.502 80.9179 140.392 122.692 97.0948C122.81 96.9667 123.006 96.9601 123.162 97.0633C123.356 97.2103 123.4 97.5098 123.249 97.6863C87.8845 137.286 76.6185 198.97 99.1072 256.708C129.717 335.305 211.968 377.145 282.156 349.83C291.202 346.308 299.606 341.818 307.331 336.503C347.234 307.069 346.731 262.117 346.719 261.418C336.431 309.073 305.16 325.856 305.16 325.856C305.16 325.856 302.088 320.958 299.205 313.359C293.415 298.075 288.417 271.897 310.838 252.798C339.252 228.593 348.964 194.176 348.964 194.176C399.116 279.511 350.024 317.263 322.486 330.764L322.495 330.761Z" fill="#00943E"/>
<path d="M187.608 42.1253C173.062 42.9209 158.531 45.9751 144.415 51.5063C65.3622 82.4837 29.2816 179.164 63.5788 267.732C78.2442 305.586 103.507 335.908 133.796 355.847C110.886 336.29 91.9532 310.328 79.8328 279.397C54.7111 215.287 65.574 146.933 102.566 100.922C102.632 100.826 102.694 100.743 102.761 100.646C127.681 66.5586 187.608 42.1253 187.608 42.1253Z" fill="#00943E"/>
</g>
<defs>
<clipPath id="clip0_58_25331">
<rect width="295.107" height="226.957" fill="white" transform="translate(0.888672 107.748) rotate(-21.398)"/>
</clipPath>
</defs>
</svg>
