<svg width="437" height="519" viewBox="0 0 437 519" fill="none" xmlns="http://www.w3.org/2000/svg">
<g clip-path="url(#clip0_58_25342)">
<path d="M195.375 317.935C232.254 312.283 244.612 282.132 244.612 282.132C224.024 309.677 197.501 310.179 197.501 310.179C197.501 310.179 196.743 305.971 196.878 300.086C197.149 288.235 201.041 269.556 222.041 264.613C248.649 258.34 265.114 239.204 265.114 239.204C279.625 335.197 195.366 317.938 195.366 317.938L195.375 317.935Z" fill="#00943E"/>
<path d="M245.416 358.012C245.416 358.012 281.103 353.567 318.386 386.488C318.386 386.488 291.197 348.497 239.821 348.038C239.821 348.038 346.556 308.688 360.979 440.021C360.979 440.021 332.193 417.58 294.338 414.297C264.468 411.711 252.67 387.459 248.135 371.636C245.884 363.778 245.412 358.002 245.412 358.002L245.416 358.012Z" fill="#00943E"/>
<path d="M310.495 300.761C297.059 315.353 280.5 327.028 261.234 334.578C229.542 346.996 195.548 346.214 164.37 334.836C141.905 326.626 121.724 311.572 106.299 291.487C95.9607 278.021 87.2407 262.747 80.6484 245.924C55.0126 180.502 68.9179 110.392 110.692 67.0948C110.81 66.9667 111.006 66.9601 111.162 67.0633C111.356 67.2103 111.4 67.5098 111.249 67.6863C75.8845 107.286 64.6185 168.97 87.1072 226.708C117.717 305.305 199.968 347.145 270.156 319.83C279.202 316.308 287.606 311.818 295.331 306.503C335.234 277.069 334.731 232.117 334.719 231.418C324.431 279.073 293.16 295.856 293.16 295.856C293.16 295.856 290.088 290.958 287.205 283.359C281.415 268.075 276.417 241.897 298.838 222.798C327.252 198.593 336.964 164.176 336.964 164.176C387.116 249.511 338.024 287.263 310.486 300.764L310.495 300.761Z" fill="#00943E"/>
<path d="M175.608 12.1253C161.062 12.9209 146.531 15.9751 132.415 21.5063C53.3622 52.4837 17.2816 149.164 51.5788 237.732C66.2442 275.586 91.5066 305.908 121.796 325.847C98.8862 306.29 79.9532 280.328 67.8328 249.397C42.7111 185.287 53.574 116.933 90.5655 70.9223C90.6325 70.8257 90.6943 70.7428 90.7612 70.6462C115.681 36.5586 175.608 12.1253 175.608 12.1253Z" fill="#00943E"/>
</g>
<defs>
<clipPath id="clip0_58_25342">
<rect width="295.107" height="440.888" fill="white" transform="translate(0.628906 107.709) rotate(-21.398)"/>
</clipPath>
</defs>
</svg>
