<svg width="359" height="320" viewBox="0 0 359 320" fill="none" xmlns="http://www.w3.org/2000/svg">
<g clip-path="url(#clip0_99_11721)">
<path d="M207.377 347.935C244.256 342.283 256.614 312.132 256.614 312.132C236.026 339.677 209.503 340.179 209.503 340.179C209.503 340.179 208.745 335.971 208.88 330.086C209.151 318.235 213.043 299.556 234.043 294.613C260.651 288.34 277.116 269.204 277.116 269.204C291.627 365.197 207.368 347.938 207.368 347.938L207.377 347.935Z" fill="#00943E"/>
<path d="M322.497 330.761C309.061 345.354 292.502 357.029 273.236 364.578C241.544 376.997 207.55 376.214 176.372 364.836C153.906 356.626 133.726 341.573 118.301 321.488C107.963 308.021 99.2427 292.747 92.6504 275.924C67.0145 210.502 80.9199 140.392 122.694 97.0951C122.812 96.9669 123.008 96.9603 123.164 97.0636C123.358 97.2105 123.402 97.5101 123.251 97.6865C87.8865 137.287 76.6204 198.971 99.1091 256.708C129.719 335.305 211.97 377.146 282.158 349.83C291.204 346.309 299.608 341.819 307.333 336.504C347.236 307.069 346.733 262.117 346.721 261.418C336.433 309.073 305.162 325.856 305.162 325.856C305.162 325.856 302.09 320.958 299.207 313.359C293.417 298.075 288.419 271.897 310.839 252.798C339.254 228.593 348.966 194.176 348.966 194.176C399.118 279.511 350.026 317.263 322.488 330.764L322.497 330.761Z" fill="#00943E"/>
<path d="M187.608 42.1256C173.062 42.9212 158.531 45.9753 144.415 51.5066C65.3622 82.484 29.2816 179.165 63.5788 267.733C78.2442 305.586 103.507 335.908 133.796 355.847C110.886 336.29 91.9532 310.328 79.8328 279.397C54.7111 215.288 65.574 146.933 102.566 100.923C102.632 100.826 102.694 100.743 102.761 100.646C127.681 66.5589 187.608 42.1256 187.608 42.1256Z" fill="#00943E"/>
</g>
<defs>
<clipPath id="clip0_99_11721">
<rect width="295.107" height="226.957" fill="white" transform="translate(0.890625 107.748) rotate(-21.398)"/>
</clipPath>
</defs>
</svg>
