<svg width="226" height="84" viewBox="0 0 226 84" fill="none" xmlns="http://www.w3.org/2000/svg">
<g clip-path="url(#clip0_99_12210)">
<path d="M51.5071 75.9857C51.0919 75.9857 50.7598 75.8617 50.5314 75.6139C50.303 75.366 50.1992 75.0149 50.1992 74.5812V45.4177C50.1992 44.9633 50.3238 44.6122 50.5314 44.3643C50.7598 44.1371 51.0919 44.0132 51.5071 44.0132C51.9223 44.0132 52.2545 44.1371 52.5036 44.3643C52.732 44.5915 52.8566 44.9426 52.8566 45.4177V59.1526H52.3168C52.9189 57.3557 53.9154 55.9925 55.3271 55.0838C56.7388 54.175 58.3581 53.7206 60.1851 53.7206C61.8667 53.7206 63.2784 54.0304 64.3995 54.65C65.5205 55.2696 66.351 56.1991 66.9115 57.4383C67.4513 58.6776 67.7419 60.2266 67.7419 62.0855V74.5812C67.7419 75.0149 67.6174 75.366 67.389 75.6139C67.1606 75.8617 66.8285 75.9857 66.4133 75.9857C65.998 75.9857 65.6659 75.8617 65.4375 75.6139C65.1884 75.366 65.0846 75.0149 65.0846 74.5812V62.292C65.0846 60.144 64.6694 58.5743 63.8182 57.5622C62.9878 56.5708 61.6383 56.0545 59.7906 56.0545C57.6938 56.0545 56.0329 56.7154 54.7666 58.0373C53.5002 59.3591 52.8773 61.1354 52.8773 63.3454V74.5812C52.8773 75.5106 52.4206 75.9857 51.5279 75.9857H51.5071Z" fill="#1B1B1B"/>
<path d="M82.7106 76.0689C80.7176 76.0689 78.9945 75.6145 77.5412 74.6851C76.088 73.7556 74.9669 72.4751 74.1572 70.8021C73.3476 69.1291 72.9531 67.167 72.9531 64.895C72.9531 63.2014 73.1815 61.6523 73.6382 60.2892C74.095 58.926 74.7385 57.7487 75.6105 56.7573C76.4824 55.7659 77.4997 55.0224 78.7038 54.506C79.9079 53.9897 81.2574 53.7212 82.7314 53.7212C84.7036 53.7212 86.4268 54.1756 87.9008 55.105C89.354 56.0344 90.4751 57.315 91.2847 58.988C92.0944 60.661 92.4889 62.6231 92.4889 64.895C92.4889 66.6093 92.2605 68.1377 91.8038 69.5215C91.347 70.8847 90.7035 72.062 89.8315 73.0534C88.9803 74.0448 87.9423 74.7883 86.7589 75.3047C85.5756 75.821 84.2261 76.0895 82.7314 76.0895L82.7106 76.0689ZM82.7106 73.7556C84.1431 73.7556 85.3887 73.4045 86.4475 72.7229C87.5063 72.0207 88.316 71.0086 88.8973 69.6868C89.4578 68.3649 89.7485 66.7539 89.7485 64.895C89.7485 62.0654 89.1256 59.8761 87.8592 58.3477C86.5928 56.7986 84.8697 56.0344 82.7106 56.0344C81.2781 56.0344 80.0325 56.3856 78.9737 57.0671C77.9149 57.7694 77.1052 58.7608 76.524 60.0826C75.9634 61.4045 75.6728 63.0155 75.6728 64.895C75.6728 67.7246 76.3163 69.914 77.5827 71.463C78.8699 73.0121 80.5723 73.7763 82.7106 73.7763V73.7556Z" fill="#1B1B1B"/>
<path d="M105.464 76.069C103.907 76.069 102.599 75.7798 101.561 75.1809C100.502 74.5819 99.7336 73.7144 99.1938 72.5991C98.6748 71.4838 98.4049 70.1 98.4049 68.489V56.3031H95.1663C94.7926 56.3031 94.4812 56.1998 94.2736 56.0139C94.0452 55.8074 93.9414 55.5389 93.9414 55.2084C93.9414 54.8779 94.0452 54.6094 94.2736 54.4029C94.4812 54.1964 94.7926 54.1137 95.1663 54.1137H98.4049V48.5578C98.4049 48.1034 98.5295 47.7523 98.7579 47.5044C98.9862 47.2772 99.3184 47.1533 99.7544 47.1533C100.19 47.1533 100.502 47.2772 100.73 47.5044C100.958 47.7316 101.083 48.0828 101.083 48.5578V54.1137H106.958C107.353 54.1137 107.664 54.217 107.872 54.4029C108.079 54.5888 108.183 54.8573 108.183 55.2084C108.183 55.5595 108.079 55.8074 107.872 56.0139C107.664 56.2204 107.353 56.3031 106.958 56.3031H101.083V68.1172C101.083 69.9347 101.436 71.3186 102.163 72.2686C102.889 73.2187 104.093 73.6938 105.775 73.6938C106.356 73.6938 106.834 73.6318 107.228 73.5079C107.623 73.384 107.955 73.322 108.225 73.3013C108.432 73.3013 108.619 73.384 108.764 73.5492C108.91 73.7144 109.014 74.0036 109.014 74.3754C109.014 74.6232 108.951 74.8711 108.868 75.0982C108.764 75.3254 108.578 75.4907 108.308 75.5733C107.996 75.6972 107.56 75.8005 107.021 75.9038C106.46 76.007 105.962 76.069 105.484 76.069H105.464Z" fill="#1B1B1B"/>
<path d="M120.412 76.0689C118.253 76.0689 116.385 75.6145 114.807 74.7264C113.25 73.8382 112.025 72.5577 111.174 70.9054C110.323 69.253 109.887 67.2702 109.887 64.9776C109.887 62.685 110.302 60.7436 111.153 59.0706C112.004 57.3976 113.188 56.0758 114.682 55.1257C116.177 54.1756 117.921 53.7212 119.873 53.7212C121.284 53.7212 122.509 53.969 123.609 54.4441C124.71 54.9191 125.644 55.6214 126.391 56.5301C127.16 57.4389 127.741 58.5336 128.156 59.8348C128.551 61.136 128.758 62.5818 128.758 64.2134C128.758 64.6265 128.654 64.957 128.447 65.1635C128.239 65.3701 127.928 65.4733 127.554 65.4733H111.817V63.4699H127.16L126.433 64.0276C126.433 62.3133 126.184 60.8675 125.686 59.6489C125.187 58.451 124.461 57.5215 123.506 56.8606C122.551 56.2203 121.347 55.8899 119.893 55.8899C118.316 55.8899 116.966 56.2616 115.866 57.0258C114.765 57.79 113.935 58.8227 113.375 60.1446C112.814 61.4665 112.544 62.9742 112.544 64.6885V64.9363C112.544 67.7866 113.229 69.9759 114.579 71.4837C115.949 73.0121 117.88 73.7763 120.371 73.7763C121.45 73.7763 122.468 73.6317 123.485 73.3425C124.481 73.0534 125.457 72.5577 126.412 71.8348C126.703 71.6076 126.993 71.5043 127.263 71.5043C127.533 71.5043 127.782 71.5663 127.948 71.7315C128.135 71.8761 128.26 72.062 128.343 72.2892C128.405 72.5164 128.405 72.7642 128.301 73.0121C128.198 73.2806 128.011 73.5078 127.699 73.7143C126.765 74.4579 125.665 75.0362 124.336 75.4492C123.028 75.8623 121.7 76.0689 120.392 76.0689H120.412Z" fill="#1B1B1B"/>
<path d="M140.154 76.0689C138.182 76.0689 136.687 75.4493 135.629 74.1894C134.57 72.9501 134.051 71.1739 134.051 68.8606V45.3976C134.051 44.9433 134.175 44.5921 134.404 44.3443C134.632 44.1171 134.964 43.9932 135.379 43.9932C135.795 43.9932 136.127 44.1171 136.376 44.3443C136.604 44.5715 136.729 44.9226 136.729 45.3976V68.5715C136.729 70.2858 137.061 71.5663 137.725 72.4131C138.39 73.26 139.365 73.6937 140.632 73.6937C140.902 73.6937 141.151 73.6937 141.359 73.6524C141.566 73.6317 141.774 73.6111 141.981 73.6111C142.251 73.6111 142.459 73.6524 142.583 73.797C142.708 73.9209 142.791 74.1894 142.791 74.6025C142.791 75.0155 142.687 75.346 142.5 75.5526C142.293 75.7591 141.961 75.9037 141.504 76.0069C141.275 76.0276 141.047 76.0689 140.839 76.0689C140.611 76.0689 140.404 76.0896 140.196 76.0896L140.154 76.0689Z" fill="#1B1B1B"/>
<path d="M152.673 76.069C151.366 76.069 150.058 75.8831 148.77 75.532C147.483 75.1809 146.258 74.5613 145.096 73.6938C144.867 73.5286 144.722 73.3427 144.639 73.1155C144.556 72.8883 144.556 72.6611 144.598 72.4339C144.639 72.2067 144.743 72.0002 144.888 71.8349C145.034 71.6697 145.241 71.5664 145.47 71.5458C145.719 71.5251 145.947 71.6077 146.217 71.773C147.338 72.5372 148.438 73.0742 149.518 73.384C150.597 73.6938 151.677 73.8384 152.757 73.8384C154.542 73.8384 155.891 73.4873 156.826 72.8057C157.76 72.1241 158.217 71.1947 158.217 70.0174C158.217 69.088 157.905 68.3444 157.303 67.8281C156.701 67.291 155.725 66.878 154.397 66.5682L150.618 65.68C148.791 65.2463 147.442 64.5647 146.57 63.6353C145.698 62.7058 145.262 61.4873 145.262 60.0002C145.262 58.7403 145.594 57.625 146.258 56.6749C146.923 55.7248 147.836 55.0019 149.04 54.4855C150.244 53.9692 151.615 53.7007 153.192 53.7007C154.48 53.7007 155.705 53.8866 156.867 54.279C158.03 54.6714 159.047 55.2497 159.919 56.0139C160.147 56.1998 160.313 56.427 160.376 56.6542C160.438 56.8814 160.438 57.1293 160.376 57.3565C160.313 57.5836 160.189 57.7695 160.023 57.9141C159.857 58.0587 159.649 58.1206 159.421 58.1413C159.172 58.1413 158.922 58.0587 158.653 57.8521C157.822 57.1912 156.95 56.7162 156.016 56.4064C155.082 56.0966 154.147 55.9313 153.192 55.9313C151.511 55.9313 150.203 56.3031 149.269 57.026C148.355 57.7489 147.899 58.699 147.899 59.8969C147.899 60.8263 148.189 61.5699 148.75 62.1482C149.31 62.7265 150.203 63.1602 151.428 63.4494L155.206 64.3375C157.095 64.7919 158.507 65.4528 159.462 66.341C160.396 67.2291 160.874 68.4064 160.874 69.8935C160.874 71.7936 160.127 73.3014 158.653 74.4167C157.179 75.532 155.186 76.0897 152.694 76.0897L152.673 76.069Z" fill="#1B1B1B"/>
<path d="M167.85 84.0002C167.435 84.0002 167.103 83.8762 166.874 83.6284C166.646 83.3805 166.521 83.0501 166.521 82.5957V55.1878C166.521 54.7334 166.646 54.3823 166.874 54.1344C167.103 53.9072 167.414 53.7833 167.829 53.7833C168.245 53.7833 168.577 53.9072 168.826 54.1344C169.054 54.3616 169.158 54.7127 169.158 55.1878V59.7523L168.681 59.4425C169.158 57.6869 170.092 56.2824 171.504 55.2497C172.895 54.217 174.597 53.7007 176.57 53.7007C178.542 53.7007 180.14 54.1551 181.531 55.0639C182.922 55.9726 184.023 57.2532 184.791 58.9262C185.559 60.5991 185.953 62.5819 185.953 64.8745C185.953 67.1671 185.58 69.1293 184.812 70.8022C184.043 72.4959 182.964 73.7764 181.552 74.6852C180.14 75.594 178.48 76.0484 176.57 76.0484C174.66 76.0484 172.916 75.532 171.525 74.4787C170.134 73.446 169.2 72.0621 168.701 70.3272H169.2V82.575C169.2 83.0088 169.075 83.3599 168.847 83.6077C168.618 83.8556 168.286 83.9795 167.871 83.9795L167.85 84.0002ZM176.175 73.7764C177.608 73.7764 178.853 73.4253 179.912 72.7437C180.971 72.0415 181.781 71.0294 182.362 69.7076C182.922 68.3857 183.234 66.7747 183.234 64.9158C183.234 62.0862 182.59 59.8969 181.324 58.3685C180.057 56.8194 178.334 56.0552 176.175 56.0552C174.743 56.0552 173.497 56.4064 172.438 57.0879C171.379 57.7902 170.57 58.7816 169.989 60.1034C169.428 61.4253 169.137 63.0363 169.137 64.9158C169.137 67.7454 169.781 69.9348 171.047 71.4838C172.334 73.0329 174.037 73.7971 176.175 73.7971V73.7764Z" fill="#1B1B1B"/>
<path d="M199.697 76.0689C197.704 76.0689 195.981 75.6145 194.528 74.6851C193.074 73.7556 191.953 72.4751 191.144 70.8021C190.334 69.1291 189.939 67.167 189.939 64.895C189.939 63.2014 190.168 61.6523 190.625 60.2892C191.081 58.926 191.725 57.7487 192.597 56.7573C193.469 55.7659 194.486 55.0224 195.69 54.506C196.894 53.9897 198.244 53.7212 199.718 53.7212C201.69 53.7212 203.413 54.1756 204.887 55.105C206.34 56.0344 207.461 57.315 208.271 58.988C209.081 60.661 209.475 62.6231 209.475 64.895C209.475 66.6093 209.247 68.1377 208.79 69.5215C208.333 70.8847 207.69 72.062 206.818 73.0534C205.967 74.0448 204.929 74.7883 203.745 75.3047C202.562 75.821 201.212 76.0895 199.718 76.0895L199.697 76.0689ZM199.697 73.7556C201.129 73.7556 202.375 73.4045 203.434 72.7229C204.493 72.0207 205.302 71.0086 205.884 69.6868C206.444 68.3649 206.735 66.7539 206.735 64.895C206.735 62.0654 206.112 59.8761 204.846 58.3477C203.579 56.7986 201.856 56.0344 199.697 56.0344C198.264 56.0344 197.019 56.3856 195.96 57.0671C194.901 57.7694 194.092 58.7608 193.51 60.0826C192.95 61.4045 192.659 63.0155 192.659 64.895C192.659 67.7246 193.303 69.914 194.569 71.463C195.856 73.0121 197.559 73.7763 199.697 73.7763V73.7556Z" fill="#1B1B1B"/>
<path d="M222.471 76.069C220.914 76.069 219.606 75.7798 218.568 75.1809C217.51 74.5819 216.741 73.7144 216.202 72.5991C215.683 71.4838 215.413 70.1 215.413 68.489V56.3031H212.174C211.8 56.3031 211.489 56.1998 211.281 56.0139C211.053 55.8074 210.949 55.5389 210.949 55.2084C210.949 54.8779 211.053 54.6094 211.281 54.4029C211.489 54.1964 211.8 54.1137 212.174 54.1137H215.413V48.5578C215.413 48.1034 215.537 47.7523 215.766 47.5044C215.994 47.2772 216.326 47.1533 216.741 47.1533C217.157 47.1533 217.489 47.2772 217.717 47.5044C217.946 47.7316 218.07 48.0828 218.07 48.5578V54.1137H223.945C224.34 54.1137 224.651 54.217 224.859 54.4029C225.066 54.5888 225.17 54.8573 225.17 55.2084C225.17 55.5595 225.066 55.8074 224.859 56.0139C224.651 56.2204 224.34 56.3031 223.945 56.3031H218.07V68.1172C218.07 69.9347 218.423 71.3186 219.15 72.2686C219.876 73.2187 221.08 73.6938 222.762 73.6938C223.343 73.6938 223.821 73.6318 224.215 73.5079C224.61 73.384 224.942 73.322 225.191 73.3013C225.399 73.3013 225.585 73.384 225.731 73.5492C225.876 73.7144 225.98 74.0036 225.98 74.3754C225.98 74.6232 225.918 74.8711 225.835 75.0982C225.731 75.3254 225.544 75.4907 225.274 75.5733C224.963 75.6972 224.527 75.8005 223.987 75.9038C223.426 76.007 222.928 76.069 222.451 76.069H222.471Z" fill="#1B1B1B"/>
<path fill-rule="evenodd" clip-rule="evenodd" d="M52.8773 27.0155C52.8773 12.1033 41.023 0 26.449 0C11.8751 0 0 12.1033 0 27.0155C0 34.2857 4.04832 43.6213 8.98934 52.1928C16.2556 64.7917 25.3487 75.7384 25.3487 75.7384C25.6186 76.0688 26.013 76.2547 26.449 76.2547C26.885 76.2547 27.2587 76.0688 27.5286 75.7384C27.5286 75.7384 32.1167 69.7694 33.217 68.3236C33.6114 67.8279 33.6529 67.3322 33.5076 66.9398C33.1547 66.0103 31.7222 65.5353 30.9125 66.6506C29.7915 68.1583 27.5078 71.1532 26.449 72.5163C23.8539 69.253 17.086 60.4957 11.4806 50.7263C6.83024 42.6506 2.86496 33.8726 2.86496 27.0361C2.8442 13.7143 13.4321 2.91222 26.449 2.91222C39.4659 2.91222 50.0331 13.7143 50.0331 27.0155C50.0331 29.2255 49.6179 31.642 48.8912 34.1618C48.8912 34.1618 48.8912 34.1824 48.8912 34.2031C48.8912 34.2444 48.8912 34.2857 48.8912 34.327C44.9675 47.5869 31.9713 48.3305 27.9023 48.1446V36.3098V36.2685C27.9023 35.463 27.2587 34.8021 26.4905 34.8021H23.0858C22.2969 34.8021 21.6533 35.463 21.6533 36.2685C21.6533 37.074 22.2969 37.7349 23.0858 37.7349H25.0581V49.5077C25.0581 50.2306 25.5771 50.8503 26.3037 50.9535C26.3037 50.9535 45.3412 53.4733 51.1749 36.6403C52.296 33.2324 52.9396 29.969 52.9396 27.0361L52.8773 27.0155Z" fill="#1B1B1B"/>
<path fill-rule="evenodd" clip-rule="evenodd" d="M26.4497 21.6865C29.3354 21.6865 31.7021 24.0824 31.7021 27.0359C31.7021 29.9894 29.3562 32.3853 26.4497 32.3853C23.5432 32.3853 21.1973 29.9894 21.1973 27.0359C21.1973 24.0824 23.5432 21.6865 26.4497 21.6865ZM26.4497 24.5368C25.1003 24.5368 23.9999 25.6521 23.9999 27.0359C23.9999 28.4197 25.1003 29.5351 26.4497 29.5351C27.7991 29.5351 28.8995 28.4197 28.8995 27.0359C28.8995 25.6521 27.7991 24.5368 26.4497 24.5368Z" fill="#A8845D"/>
<path fill-rule="evenodd" clip-rule="evenodd" d="M34.4829 58.6367C37.3894 58.6367 39.7353 61.0326 39.7353 63.9861C39.7353 66.9396 37.3894 69.3355 34.4829 69.3355C31.5764 69.3355 29.2305 66.9396 29.2305 63.9861C29.2305 61.0326 31.5764 58.6367 34.4829 58.6367ZM34.4829 61.487C33.1335 61.487 32.0332 62.6023 32.0332 63.9861C32.0332 65.3699 33.1335 66.4853 34.4829 66.4853C35.8323 66.4853 36.9327 65.3699 36.9327 63.9861C36.9327 62.6023 35.8323 61.487 34.4829 61.487Z" fill="#A8845D"/>
</g>
<defs>
<clipPath id="clip0_99_12210">
<rect width="226" height="84" fill="white"/>
</clipPath>
</defs>
</svg>
