<svg width="90" height="90" viewBox="0 0 90 90" fill="none" xmlns="http://www.w3.org/2000/svg">
<g clip-path="url(#clip0_58_25341)">
<path d="M86.3951 23.9394C74.6349 23.9394 80.547 20.6172 66.4177 20.6172C55.1271 20.6172 47.9984 29.2718 45.5866 32.7209H34.488C30.3688 32.7209 27.0605 36.0643 27.0605 40.1482V42.4971C27.0605 42.4971 27.1886 42.4547 27.2526 42.4336L27.5514 42.3489C28.0423 42.2008 28.5332 42.0738 29.0028 41.968C29.2376 41.9046 29.4937 41.8411 29.7071 41.7776V40.1694C29.7071 37.5455 31.8415 35.4083 34.4667 35.4083H55.7674C56.2156 35.4083 56.6211 35.4718 57.0266 35.5776C57.7523 35.768 58.4139 36.1489 58.9689 36.6356C59.1823 36.551 59.3744 36.4452 59.5665 36.3605L60.1641 36.0854C60.6336 35.8738 61.0819 35.6622 61.4874 35.4083C60.9324 34.7523 60.2708 34.181 59.5451 33.779C58.478 33.123 57.24 32.7633 55.8954 32.7421C56.9412 31.8322 58.7981 30.7953 61.9783 30.7953C63.0881 30.7953 64.4968 30.9011 65.3078 31.7899C66.1402 32.6998 65.8201 34.0329 65.3932 35.0486C64.9663 36.0431 64.3687 36.7626 63.4723 37.3339C62.6186 37.9052 61.6581 38.3073 60.7404 38.7517C58.7554 39.7039 56.7278 40.5291 54.7642 41.4814C53.8891 41.8622 53.0354 42.3912 52.4378 43.1319C51.9042 43.7667 51.6267 44.5708 51.6694 45.4172C51.7121 46.3271 51.9896 47.5544 52.886 48.0199C53.2275 48.1892 53.6117 48.2738 53.9959 48.295C54.9136 48.3796 55.8527 48.2315 56.7492 48.0199C57.7096 47.7872 58.6274 47.4486 59.5878 47.2158C60.1427 47.0889 60.6763 46.9407 61.2099 46.7715C63.0028 46.2636 64.7956 45.6923 66.5457 45.0998C68.488 44.4438 70.4302 43.7667 72.3511 43.0684C72.5005 43.0049 72.6713 42.9626 72.842 42.8991C75.6807 41.8622 78.498 40.8254 81.3367 39.725C82.6386 39.2172 84.026 38.5612 85.4346 38.3919C86.7793 38.2226 88.1879 38.4343 89.5539 38.5612V23.9182H86.4164L86.3951 23.9394Z" fill="#00943E"/>
<path d="M62.0007 49.3319C61.5311 49.4801 61.0829 49.607 60.5707 49.7128V51.6807C60.5707 54.3046 58.4363 56.463 55.8111 56.463H34.5104C34.0195 56.463 33.55 56.3995 33.1018 56.2514C32.8243 56.1668 32.5255 56.061 32.2694 55.9128C31.8852 55.7012 31.5437 55.4473 31.2449 55.1299C31.0101 55.2145 30.7967 55.3203 30.5833 55.4261L30.007 55.7012C29.5588 55.8917 29.1319 56.1033 28.7264 56.336C29.1746 56.9074 29.7082 57.3941 30.2844 57.7961C30.3912 57.8596 30.4979 57.9442 30.6046 58.0077C31.6504 58.6425 32.8883 59.0446 34.2116 59.0869C33.1445 59.9968 31.3089 60.9702 28.1928 60.9702C27.0829 60.9702 25.6743 60.8644 24.8632 59.9756C24.0308 59.0657 24.351 57.7326 24.7779 56.7169C25.2047 55.7224 25.8023 55.0029 26.6988 54.4316C27.5525 53.8603 28.5129 53.4582 29.4307 53.0139C31.4156 52.0616 33.4433 51.2364 35.4069 50.2842C36.2819 49.9033 37.1357 49.3743 37.7333 48.6336C38.2669 47.9988 38.5443 47.1947 38.5016 46.3483C38.4589 45.4384 38.1815 44.2111 37.2851 43.7456C36.9436 43.5763 36.5594 43.4917 36.1752 43.4705C35.2574 43.3859 34.3183 43.534 33.4219 43.7456C32.4615 43.9784 31.5437 44.3169 30.5833 44.5497C30.0283 44.6767 29.4947 44.8248 28.9612 44.9941C27.1683 45.5019 25.3755 46.0732 23.6253 46.6657C21.6831 47.3217 19.7408 47.9988 17.8199 48.6971C17.6705 48.7606 17.4998 48.8029 17.329 48.8664C14.4904 49.9033 11.673 50.9401 8.83438 52.0405C7.53243 52.5483 6.14512 53.2043 4.73645 53.3736C3.39182 53.5429 1.98316 53.3313 0.617188 53.2043V67.8473H3.75466C15.5148 67.8473 9.60274 71.1695 23.732 71.1695C34.9586 71.1695 42.066 62.6207 44.5205 59.1292H55.7684C59.8877 59.1292 63.1959 55.7859 63.1959 51.6807V48.9511C62.769 49.078 62.3635 49.205 61.958 49.3319H62.0007Z" fill="#00943E"/>
<path d="M58.1594 51.3632C58.1594 51.3632 58.1594 53.0138 57.1776 54.0295C56.644 54.5585 55.9397 54.8547 55.086 54.8547H36.3465C35.4928 54.8547 34.7885 54.5796 34.2549 54.0295C34.2122 53.966 34.1482 53.9237 34.1055 53.8602C34.5537 53.6697 35.0019 53.4793 35.4288 53.2465C35.6635 53.4158 35.9837 53.5216 36.3679 53.5216H55.1073C55.5982 53.5216 55.9611 53.3735 56.2385 53.0984C56.8361 52.4848 56.8361 51.4056 56.8361 51.3844C56.8361 51.0247 57.1349 50.7284 57.4978 50.7073C57.9033 50.7073 58.1808 51.0035 58.1808 51.3632H58.1594Z" fill="#00943E"/>
<path d="M55.8097 11.2008L45.2021 0.662964V8.64044C41.7871 8.72508 38.5003 9.23293 35.3628 10.1428C20.3798 14.523 9.34524 27.8118 8.72628 43.6609C8.68359 44.1053 8.68359 44.5708 8.68359 45.0363C8.68359 45.65 8.68359 46.2213 8.74762 46.8138H14.0835C14.0408 46.2213 14.0194 45.65 14.0194 45.0363C14.0194 41.4179 14.6597 37.9264 15.855 34.6889C18.16 28.4043 22.4501 23.0718 28.042 19.3688C32.951 16.0889 38.8418 14.1633 45.1807 13.9729V21.8022L55.7884 11.2008H55.8097Z" fill="#00943E"/>
<path d="M34.6172 78.9988L45.2248 89.5367V81.5592C48.6398 81.4746 51.9266 80.9667 55.0641 80.0569C70.0472 75.6766 81.0817 62.3879 81.7006 46.5388C81.7433 46.0944 81.7433 45.6289 81.7433 45.1633C81.7433 44.5497 81.7433 43.9784 81.6793 43.3859H76.3434C76.3861 43.9784 76.4075 44.5497 76.4075 45.1633C76.4075 48.7818 75.7672 52.2732 74.5719 55.5108C72.2669 61.7954 67.9768 67.1278 62.3849 70.8309C57.4759 74.1108 51.5852 76.0364 45.2462 76.2268V68.3975L34.6385 78.9988H34.6172Z" fill="#00943E"/>
</g>
<defs>
<clipPath id="clip0_58_25341">
<rect width="88.8737" height="88.8737" fill="white" transform="translate(0.662109 0.662964)"/>
</clipPath>
</defs>
</svg>
