<svg width="576" height="673" viewBox="0 0 576 673" fill="none" xmlns="http://www.w3.org/2000/svg">
<g clip-path="url(#clip0_58_25410)">
<path d="M649.241 176.262C560.186 176.262 604.956 151.104 497.961 151.104C412.463 151.104 358.48 216.642 340.217 242.761H256.173C224.979 242.761 199.928 268.078 199.928 299.004V316.791C199.928 316.791 200.897 316.47 201.382 316.31L203.645 315.669C207.362 314.547 211.08 313.586 214.635 312.785C216.413 312.304 218.353 311.823 219.969 311.343V299.165C219.969 279.295 236.131 263.111 256.011 263.111H417.311C420.705 263.111 423.776 263.592 426.847 264.393C432.342 265.835 437.353 268.719 441.555 272.405C443.171 271.764 444.626 270.963 446.08 270.322L450.606 268.239C454.161 266.636 457.556 265.034 460.626 263.111C456.424 258.144 451.414 253.817 445.919 250.773C437.837 245.805 428.463 243.081 418.281 242.921C426.201 236.031 440.262 228.179 464.344 228.179C472.748 228.179 483.415 228.98 489.557 235.71C495.86 242.6 493.436 252.695 490.203 260.387C486.971 267.918 482.446 273.366 475.657 277.693C469.192 282.019 461.919 285.064 454.97 288.429C439.939 295.639 424.584 301.889 409.715 309.099C403.088 311.984 396.623 315.99 392.098 321.598C388.057 326.405 385.956 332.494 386.28 338.904C386.603 345.794 388.704 355.088 395.492 358.613C398.078 359.895 400.987 360.536 403.897 360.696C410.846 361.337 417.958 360.215 424.746 358.613C432.019 356.85 438.969 354.286 446.242 352.524C450.444 351.562 454.485 350.441 458.525 349.159C472.102 345.313 485.678 340.987 498.931 336.5C513.639 331.533 528.347 326.405 542.893 321.117C544.024 320.636 545.317 320.316 546.61 319.835C568.106 311.984 589.44 304.132 610.936 295.799C620.795 291.954 631.301 286.986 641.968 285.704C652.15 284.423 662.817 286.025 673.161 286.986V176.102H649.403L649.241 176.262Z" fill="#EBEBEB"/>
<path d="M464.509 368.548C460.953 369.669 457.559 370.631 453.68 371.432V386.334C453.68 406.204 437.518 422.548 417.638 422.548H256.338C252.62 422.548 249.065 422.067 245.671 420.945C243.569 420.305 241.307 419.503 239.367 418.382C236.458 416.779 233.872 414.856 231.609 412.453C229.831 413.094 228.215 413.895 226.599 414.696L222.235 416.779C218.841 418.221 215.609 419.824 212.538 421.586C215.932 425.913 219.972 429.598 224.336 432.643C225.144 433.124 225.952 433.765 226.761 434.245C234.68 439.052 244.054 442.097 254.075 442.417C245.994 449.308 232.094 456.679 208.497 456.679C200.093 456.679 189.426 455.877 183.284 449.147C176.981 442.257 179.405 432.162 182.637 424.471C185.87 416.94 190.395 411.491 197.184 407.165C203.648 402.839 210.922 399.794 217.871 396.429C232.902 389.218 248.257 382.969 263.126 375.758C269.752 372.874 276.217 368.868 280.743 363.26C284.783 358.453 286.885 352.364 286.561 345.954C286.238 339.064 284.137 329.77 277.349 326.245C274.763 324.963 271.854 324.322 268.944 324.162C261.995 323.521 254.883 324.642 248.095 326.245C240.822 328.007 233.872 330.571 226.599 332.334C222.397 333.295 218.356 334.417 214.316 335.699C200.739 339.545 187.163 343.871 173.91 348.358C159.202 353.325 144.494 358.453 129.948 363.74C128.817 364.221 127.524 364.542 126.231 365.022C104.735 372.874 83.4006 380.726 61.9047 389.058C52.0457 392.904 41.5402 397.871 30.873 399.153C20.6907 400.435 10.0236 398.833 -0.320312 397.871V508.756H23.4383C112.493 508.756 67.7232 533.913 174.718 533.913C259.732 533.913 313.552 469.177 332.139 442.738H417.315C448.508 442.738 473.56 417.42 473.56 386.334V365.663C470.327 366.625 467.256 367.586 464.185 368.548H464.509Z" fill="#EBEBEB"/>
<path d="M435.413 383.931C435.413 383.931 435.413 396.429 427.979 404.121C423.938 408.126 418.604 410.37 412.14 410.37H270.234C263.769 410.37 258.436 408.287 254.395 404.121C254.072 403.64 253.587 403.319 253.264 402.839C256.658 401.396 260.052 399.954 263.284 398.192C265.062 399.474 267.487 400.275 270.396 400.275H412.301C416.018 400.275 418.766 399.153 420.867 397.07C425.393 392.423 425.393 384.251 425.393 384.091C425.393 381.367 427.655 379.123 430.403 378.963C433.474 378.963 435.575 381.206 435.575 383.931H435.413Z" fill="#EBEBEB"/>
<path d="M417.636 79.7986L337.309 0V60.4098C311.449 61.0507 286.559 64.8964 262.801 71.7867C149.341 104.956 65.7818 205.585 61.0947 325.604C60.7715 328.969 60.7715 332.494 60.7715 336.019C60.7715 340.666 60.7715 344.993 61.2564 349.479H101.662C101.339 344.993 101.177 340.666 101.177 336.019C101.177 308.619 106.026 282.179 115.077 257.663C132.532 210.072 165.019 169.692 207.364 141.65C244.537 116.814 289.145 102.232 337.148 100.79V160.078L417.474 79.7986H417.636Z" fill="#EBEBEB"/>
<path d="M257.143 593.201L337.469 673V612.59C363.329 611.949 388.219 608.104 411.978 601.213C525.437 568.044 608.997 467.415 613.684 347.396C614.007 344.031 614.007 340.506 614.007 336.981C614.007 332.334 614.007 328.007 613.522 323.521H573.116C573.44 328.007 573.601 332.334 573.601 336.981C573.601 364.381 568.753 390.821 559.702 415.337C542.246 462.928 509.76 503.308 467.415 531.35C430.241 556.186 385.633 570.768 337.631 572.21V512.922L257.304 593.201H257.143Z" fill="#EBEBEB"/>
</g>
<defs>
<clipPath id="clip0_58_25410">
<rect width="673" height="673" fill="white"/>
</clipPath>
</defs>
</svg>
