<svg width="403" height="84" viewBox="0 0 403 84" fill="none" xmlns="http://www.w3.org/2000/svg">
<g clip-path="url(#clip0_99_11827)">
<path d="M111.73 58.2002H115.458C116.869 58.2002 117.554 59.1802 117.554 60.5202C117.554 61.6802 117.05 62.5202 116.284 62.8402L117.796 66.3602H116.889L115.478 63.0002H112.557V66.3602H111.73V58.2002ZM115.378 62.2002C116.224 62.2002 116.728 61.5602 116.728 60.5202C116.728 59.5802 116.264 59.0002 115.378 59.0002H112.557V62.1802H115.378V62.2002Z" fill="#1B1B1B"/>
<path d="M124.003 58.2002H129.645V59.0002H124.849V61.7602H129.181V62.5802H124.849V65.5402H129.705V66.3402H123.982V58.1802L124.003 58.2002Z" fill="#1B1B1B"/>
<path d="M293.946 58.2002H299.588V59.0002H294.792V61.7602H299.124V62.5802H294.792V65.5402H299.648V66.3402H293.926V58.1802L293.946 58.2002Z" fill="#1B1B1B"/>
<path d="M135.205 62.2801C135.205 59.4801 136.414 58.0601 138.449 58.0601C140.222 58.0601 141.431 59.0601 141.431 61.1201H140.646C140.646 59.5801 139.799 58.8801 138.449 58.8801C136.978 58.8801 136.031 59.8601 136.031 62.2201V62.4801C136.031 64.7801 136.958 65.7201 138.469 65.7201C139.819 65.7201 140.686 65.0201 140.686 63.4801H141.452C141.452 65.5801 140.182 66.5401 138.449 66.5401C136.374 66.5401 135.225 65.1401 135.225 62.3201L135.205 62.2801Z" fill="#1B1B1B"/>
<path d="M158.076 62.2801C158.076 59.4801 159.285 58.0601 161.32 58.0601C163.094 58.0601 164.303 59.0601 164.303 61.1201H163.517C163.517 59.5801 162.67 58.8801 161.32 58.8801C159.849 58.8801 158.902 59.8601 158.902 62.2201V62.4801C158.902 64.7801 159.829 65.7201 161.34 65.7201C162.691 65.7201 163.557 65.0201 163.557 63.4801H164.323C164.323 65.5801 163.053 66.5401 161.32 66.5401C159.245 66.5401 158.096 65.1401 158.096 62.3201L158.076 62.2801Z" fill="#1B1B1B"/>
<path d="M149.371 62.9602L146.127 58.2202H147.195L149.835 62.1402H149.875L152.515 58.2202H153.542L150.298 62.9602V66.3802H149.351V62.9602H149.371Z" fill="#1B1B1B"/>
<path d="M170.508 58.0601H171.455V65.4001H175.485V66.2201H170.508V58.0601Z" fill="#1B1B1B"/>
<path d="M181.912 58.2002H182.859V66.3602H181.912V58.2002Z" fill="#1B1B1B"/>
<path d="M189.73 58.2002H190.516L194.103 63.8402C194.224 64.0002 194.446 64.4002 194.566 64.6202H194.627V58.2002H195.413V66.3602H194.708L191.04 60.6002C190.939 60.4402 190.698 60.0202 190.557 59.8002H190.516V66.3602H189.73V58.2002Z" fill="#1B1B1B"/>
<path d="M201.82 62.2801C201.82 59.5001 202.828 58.0601 204.742 58.0601C206.334 58.0601 207.341 59.0201 207.341 60.9801H206.676C206.676 59.4001 205.85 58.8601 204.762 58.8601C203.372 58.8601 202.526 59.8201 202.526 62.1601V62.4001C202.526 64.7601 203.332 65.6801 204.682 65.6801C206.112 65.6801 206.676 64.8601 206.676 63.0801V62.9001H204.541V62.1001H207.341V66.3401H206.838L206.757 65.2401C206.334 66.1401 205.528 66.4801 204.702 66.4801C202.808 66.4801 201.84 65.1201 201.84 62.2601L201.82 62.2801Z" fill="#1B1B1B"/>
<path d="M220.822 58.2002H226.565V59.0002H221.769V61.8202H226.142V62.6202H221.769V66.3402H220.822V58.1802V58.2002Z" fill="#1B1B1B"/>
<path d="M231.461 62.2801C231.461 59.4601 232.71 58.0601 234.806 58.0601C236.901 58.0601 238.151 59.4601 238.151 62.2801C238.151 65.1001 236.901 66.5001 234.806 66.5001C232.71 66.5001 231.461 65.1001 231.461 62.2801ZM237.345 62.4201V62.1801C237.345 59.8401 236.337 58.8801 234.786 58.8801C233.234 58.8801 232.247 59.8401 232.247 62.1801V62.4201C232.247 64.7401 233.254 65.7001 234.786 65.7001C236.317 65.7001 237.345 64.7401 237.345 62.4201Z" fill="#1B1B1B"/>
<path d="M243.875 58.2002H247.643C249.074 58.2002 249.759 59.1802 249.759 60.5202C249.759 61.6802 249.255 62.5202 248.489 62.8402L250.021 66.3602H249.114L247.683 63.0002H244.721V66.3602H243.895V58.2002H243.875ZM247.562 62.2002C248.409 62.2002 248.933 61.5602 248.933 60.5202C248.933 59.5802 248.469 59.0002 247.562 59.0002H244.701V62.1802H247.562V62.2002Z" fill="#1B1B1B"/>
<path d="M263.018 58.2002H263.965V65.5402H267.995V66.3602H263.038V58.2002H263.018Z" fill="#1B1B1B"/>
<path d="M274.725 58.2002H275.672V66.3602H274.725V58.2002Z" fill="#1B1B1B"/>
<path d="M282.4 58.2002H288.143V59.0002H283.347V61.8202H287.72V62.6202H283.347V66.3402H282.4V58.1802V58.2002Z" fill="#1B1B1B"/>
<path d="M110.34 21.3599H122.269C127.105 21.3599 129.482 24.1199 129.482 28.1599C129.482 30.9799 128.152 33.2799 125.775 34.4199L130.228 43.1599H124.989L121.14 35.2199H115.075V43.1599H110.34V21.3599ZM121.644 31.4599C123.518 31.4599 124.666 30.2199 124.666 28.2199C124.666 26.2199 123.599 25.1999 121.644 25.1999H115.075V31.4599H121.644Z" fill="#1B1B1B"/>
<path d="M133.512 21.3599H150.902V25.2399H138.268V30.0999H149.451V33.9399H138.268V39.2399H151.083V43.1599H133.492V21.3599H133.512Z" fill="#1B1B1B"/>
<path d="M154.227 36.68C154.227 36.48 154.227 36.2 154.267 36.08H158.962C158.922 36.2 158.922 36.46 158.922 36.62C158.922 38.66 160.695 39.74 163.616 39.74C166.538 39.74 168.15 38.84 168.15 37.3C168.15 32.78 154.69 35.36 154.69 27.22C154.69 22.9 158.619 21 163.677 21C168.735 21 172.402 22.94 172.402 27.38V27.76H167.808V27.5C167.808 25.82 166.216 24.74 163.717 24.74C161.057 24.74 159.526 25.54 159.526 26.9C159.526 30.96 172.986 28.68 172.986 36.6C172.986 41.62 169.057 43.56 163.677 43.56C158.297 43.56 154.227 41.56 154.227 36.7V36.68Z" fill="#1B1B1B"/>
<path d="M175.807 32.26C175.807 24.64 179.998 20.98 186.95 20.98C193.901 20.98 198.133 24.64 198.133 32.26C198.133 39.88 193.942 43.54 186.95 43.54C179.958 43.54 175.807 39.86 175.807 32.26ZM193.257 32.76V31.78C193.257 27.26 191.06 24.86 186.929 24.86C182.799 24.86 180.683 27.28 180.683 31.78V32.76C180.683 37.2 182.839 39.66 186.929 39.66C191.02 39.66 193.257 37.22 193.257 32.76Z" fill="#1B1B1B"/>
<path d="M207.625 21.3599H213.468L221.85 43.1599H216.732L215.181 38.8599H205.69L204.139 43.1599H199.242L207.625 21.3599ZM213.811 35.0599L211.876 29.6999C211.554 28.7999 210.889 26.7799 210.506 25.4999H210.325C209.942 26.7799 209.317 28.7399 208.995 29.6999L207.06 35.0599H213.831H213.811Z" fill="#1B1B1B"/>
<path d="M224.469 21.3599H235.813C240.448 21.3599 242.926 24.1199 242.926 28.4199C242.926 32.7199 240.327 35.5799 235.652 35.5799H229.204V43.1799H224.469V21.3799V21.3599ZM235.007 31.6799C236.982 31.6799 238.11 30.4799 238.11 28.4399C238.11 26.3999 237.062 25.2199 235.007 25.2199H229.204V31.6799H235.007Z" fill="#1B1B1B"/>
<path d="M253.908 21.3599H265.253C269.887 21.3599 272.366 24.1199 272.366 28.4199C272.366 32.7199 269.766 35.5799 265.091 35.5799H258.643V43.1799H253.908V21.3799V21.3599ZM264.447 31.6799C266.421 31.6799 267.55 30.4799 267.55 28.4399C267.55 26.3999 266.502 25.2199 264.447 25.2199H258.643V31.6799H264.447Z" fill="#1B1B1B"/>
<path d="M275.73 21.3599H287.659C292.495 21.3599 294.873 24.1199 294.873 28.1599C294.873 30.9799 293.543 33.2799 291.165 34.4199L295.619 43.1599H290.38L286.531 35.2199H280.466V43.1599H275.73V21.3599ZM287.035 31.4599C288.909 31.4599 290.057 30.2199 290.057 28.2199C290.057 26.2199 288.989 25.1999 287.035 25.1999H280.466V31.4599H287.035Z" fill="#1B1B1B"/>
<path d="M297.635 32.26C297.635 24.64 301.826 20.98 308.778 20.98C315.729 20.98 319.961 24.64 319.961 32.26C319.961 39.88 315.77 43.54 308.778 43.54C301.786 43.54 297.635 39.86 297.635 32.26ZM315.085 32.76V31.78C315.085 27.26 312.888 24.86 308.758 24.86C304.627 24.86 302.511 27.28 302.511 31.78V32.76C302.511 37.2 304.667 39.66 308.758 39.66C312.848 39.66 315.085 37.22 315.085 32.76Z" fill="#1B1B1B"/>
<path d="M321.432 36.7599V35.7799H326.066V36.7599C326.066 38.6999 327.154 39.6599 329.31 39.6599C331.466 39.6599 332.454 38.2599 332.454 35.6599V21.3599H337.209V35.6599C337.209 40.9999 334.348 43.5399 329.33 43.5399C324.313 43.5399 321.432 41.3199 321.432 36.7799V36.7599Z" fill="#1B1B1B"/>
<path d="M341.258 21.3599H358.648V25.2399H346.014V30.0999H357.197V33.9399H346.014V39.2399H358.829V43.1599H341.238V21.3599H341.258Z" fill="#1B1B1B"/>
<path d="M361.953 32.26C361.953 24.64 365.862 20.98 372.693 20.98C378.315 20.98 382.506 23.8 382.506 29.6H377.751C377.751 26.58 375.716 24.86 372.774 24.86C368.703 24.86 366.87 27.28 366.87 31.76V32.74C366.87 37.32 368.703 39.66 372.733 39.66C375.917 39.66 377.932 38 377.932 34.96H382.506C382.506 40.74 378.416 43.54 372.693 43.54C365.862 43.54 361.953 40.04 361.953 32.26Z" fill="#1B1B1B"/>
<path d="M391.23 25.3198H384.238V21.3398H402.998V25.3198H395.986V43.1598H391.23V25.3198Z" fill="#1B1B1B"/>
<path d="M80.9428 21.9999C69.8401 21.9999 75.4217 18.8599 62.0824 18.8599C51.423 18.8599 44.6929 27.0399 42.416 30.2999H31.938C28.049 30.2999 24.9258 33.4599 24.9258 37.3199V39.5399C24.9258 39.5399 25.0467 39.4999 25.1071 39.4799L25.3892 39.3999C25.8527 39.2599 26.3161 39.1399 26.7594 39.0399C26.9811 38.9799 27.2229 38.9199 27.4244 38.8599V37.3399C27.4244 34.8599 29.4394 32.8399 31.9178 32.8399H52.0275C52.4507 32.8399 52.8335 32.8999 53.2164 32.9999C53.9015 33.1799 54.5261 33.5399 55.05 33.9999C55.2515 33.9199 55.4329 33.8199 55.6142 33.7399L56.1784 33.4799C56.6217 33.2799 57.0449 33.0799 57.4277 32.8399C56.9038 32.2199 56.2792 31.6799 55.5941 31.2999C54.5866 30.6799 53.4179 30.3399 52.1484 30.3199C53.1358 29.4599 54.8888 28.4799 57.8912 28.4799C58.939 28.4799 60.2689 28.5799 61.0346 29.4199C61.8204 30.2799 61.5182 31.5399 61.1152 32.4999C60.7122 33.4399 60.148 34.1199 59.3017 34.6599C58.4957 35.1999 57.5889 35.5799 56.7225 35.9999C54.8485 36.8999 52.9343 37.6799 51.0805 38.5799C50.2543 38.9399 49.4483 39.4399 48.8841 40.1399C48.3804 40.7399 48.1184 41.4999 48.1587 42.2999C48.199 43.1599 48.461 44.3199 49.3073 44.7599C49.6297 44.9199 49.9924 44.9999 50.3551 45.0199C51.2215 45.0999 52.1081 44.9599 52.9544 44.7599C53.8612 44.5399 54.7276 44.2199 55.6344 43.9999C56.1583 43.8799 56.662 43.7399 57.1658 43.5799C58.8584 43.0999 60.551 42.5599 62.2033 41.9999C64.0369 41.3799 65.8706 40.7399 67.6841 40.0799C67.8251 40.0199 67.9863 39.9799 68.1475 39.9199C70.8275 38.9399 73.4873 37.9599 76.1672 36.9199C77.3964 36.4399 78.7061 35.8199 80.036 35.6599C81.3055 35.4999 82.6354 35.6999 83.925 35.8199V21.9799H80.9629L80.9428 21.9999Z" fill="#00943E"/>
<path d="M57.9104 45.9999C57.4671 46.1399 57.0439 46.2599 56.5603 46.3599V48.2199C56.5603 50.6999 54.5453 52.7399 52.0669 52.7399H31.9572C31.4937 52.7399 31.0504 52.6799 30.6273 52.5399C30.3653 52.4599 30.0832 52.3599 29.8414 52.2199C29.4787 52.0199 29.1563 51.7799 28.8742 51.4799C28.6526 51.5599 28.4511 51.6599 28.2496 51.7599L27.7055 52.0199C27.2824 52.1999 26.8794 52.3999 26.4965 52.6199C26.9197 53.1599 27.4234 53.6199 27.9675 53.9999C28.0682 54.0599 28.169 54.1399 28.2697 54.1999C29.2571 54.7999 30.4258 55.1799 31.6751 55.2199C30.6676 56.0799 28.9347 56.9999 25.9928 56.9999C24.945 56.9999 23.6151 56.8999 22.8494 56.0599C22.0635 55.1999 22.3658 53.9399 22.7688 52.9799C23.1718 52.0399 23.736 51.3599 24.5823 50.8199C25.3883 50.2799 26.295 49.8999 27.1615 49.4799C29.0354 48.5799 30.9497 47.7999 32.8035 46.8999C33.6296 46.5399 34.4356 46.0399 34.9998 45.3399C35.5036 44.7399 35.7655 43.9799 35.7252 43.1799C35.6849 42.3199 35.423 41.1599 34.5767 40.7199C34.2543 40.5599 33.8916 40.4799 33.5289 40.4599C32.6624 40.3799 31.7758 40.5199 30.9295 40.7199C30.0228 40.9399 29.1563 41.2599 28.2496 41.4799C27.7257 41.5999 27.2219 41.7399 26.7182 41.8999C25.0256 42.3799 23.333 42.9199 21.6807 43.4799C19.847 44.0999 18.0134 44.7399 16.1999 45.3999C16.0588 45.4599 15.8976 45.4999 15.7364 45.5599C13.0565 46.5399 10.3967 47.5199 7.71673 48.5599C6.48758 49.0399 5.17783 49.6599 3.84793 49.8199C2.57848 49.9799 1.24858 49.7799 -0.0410156 49.6599V63.4999H2.92103C14.0237 63.4999 8.44214 66.6399 21.7814 66.6399C32.3803 66.6399 39.0903 58.5599 41.4075 55.2599H52.0266C55.9155 55.2599 59.0388 52.0999 59.0388 48.2199V45.6399C58.6358 45.7599 58.2529 45.8799 57.8701 45.9999H57.9104Z" fill="#00943E"/>
<path d="M54.2833 47.9198C54.2833 47.9198 54.2833 49.4798 53.3564 50.4398C52.8526 50.9398 52.1877 51.2198 51.3817 51.2198H33.69C32.884 51.2198 32.219 50.9598 31.7153 50.4398C31.675 50.3798 31.6145 50.3398 31.5742 50.2798C31.9974 50.0998 32.4205 49.9198 32.8235 49.6998C33.0452 49.8598 33.3474 49.9598 33.7101 49.9598H51.4018C51.8653 49.9598 52.2078 49.8198 52.4698 49.5598C53.034 48.9798 53.034 47.9598 53.034 47.9398C53.034 47.5998 53.3161 47.3198 53.6586 47.2998C54.0415 47.2998 54.3034 47.5798 54.3034 47.9198H54.2833Z" fill="#00943E"/>
<path d="M52.0674 9.96L42.0528 0V7.54C38.8288 7.62 35.7257 8.1 32.7637 8.96C18.6184 13.1 8.20082 25.66 7.61647 40.64C7.57617 41.06 7.57617 41.5 7.57617 41.94C7.57617 42.52 7.57617 43.06 7.63662 43.62H12.6741C12.6338 43.06 12.6137 42.52 12.6137 41.94C12.6137 38.52 13.2182 35.22 14.3466 32.16C16.5228 26.22 20.5729 21.18 25.8522 17.68C30.4867 14.58 36.0481 12.76 42.0327 12.58V19.98L52.0472 9.96H52.0674Z" fill="#00943E"/>
<path d="M32.0586 74.0399L42.0731 83.9999V76.4599C45.2971 76.3799 48.4002 75.8999 51.3623 75.0399C65.5076 70.8999 75.9251 58.3399 76.5095 43.3599C76.5498 42.9399 76.5498 42.4999 76.5498 42.0599C76.5498 41.4799 76.5498 40.9399 76.4893 40.3799H71.4518C71.4921 40.9399 71.5123 41.4799 71.5123 42.0599C71.5123 45.4799 70.9078 48.7799 69.7794 51.8399C67.6032 57.7799 63.553 62.8199 58.2737 66.3199C53.6392 69.4199 48.0778 71.2399 42.0933 71.4199V64.0199L32.0787 74.0399H32.0586Z" fill="#00943E"/>
</g>
<defs>
<clipPath id="clip0_99_11827">
<rect width="403" height="84" fill="white"/>
</clipPath>
</defs>
</svg>
