<svg width="90" height="90" viewBox="0 0 90 90" fill="none" xmlns="http://www.w3.org/2000/svg">
<g clip-path="url(#clip0_99_11731)">
<path d="M86.397 23.9394C74.6368 23.9394 80.5489 20.6172 66.4196 20.6172C55.129 20.6172 48.0003 29.2718 45.5885 32.7209H34.49C30.3707 32.7209 27.0625 36.0643 27.0625 40.1482V42.4971C27.0625 42.4971 27.1906 42.4547 27.2546 42.4336L27.5534 42.3489C28.0443 42.2008 28.5352 42.0738 29.0047 41.968C29.2395 41.9046 29.4956 41.8411 29.7091 41.7776V40.1694C29.7091 37.5455 31.8434 35.4083 34.4686 35.4083H55.7693C56.2175 35.4083 56.623 35.4718 57.0286 35.5776C57.7542 35.768 58.4159 36.1489 58.9708 36.6356C59.1842 36.551 59.3763 36.4452 59.5684 36.3605L60.166 36.0854C60.6356 35.8738 61.0838 35.6622 61.4893 35.4083C60.9344 34.7523 60.2728 34.181 59.5471 33.779C58.4799 33.123 57.242 32.7633 55.8974 32.7421C56.9432 31.8322 58.8001 30.7953 61.9802 30.7953C63.0901 30.7953 64.4987 30.9011 65.3098 31.7899C66.1422 32.6998 65.822 34.0329 65.3952 35.0486C64.9683 36.0431 64.3707 36.7626 63.4743 37.3339C62.6205 37.9052 61.6601 38.3073 60.7423 38.7517C58.7574 39.7039 56.7298 40.5291 54.7662 41.4814C53.8911 41.8622 53.0374 42.3912 52.4397 43.1319C51.9062 43.7667 51.6287 44.5708 51.6714 45.4172C51.7141 46.3271 51.9915 47.5544 52.888 48.0199C53.2295 48.1892 53.6136 48.2738 53.9978 48.295C54.9156 48.3796 55.8547 48.2315 56.7511 48.0199C57.7116 47.7872 58.6293 47.4486 59.5898 47.2158C60.1447 47.0889 60.6783 46.9407 61.2119 46.7715C63.0047 46.2636 64.7975 45.6923 66.5477 45.0998C68.4899 44.4438 70.4322 43.7667 72.3531 43.0684C72.5025 43.0049 72.6732 42.9626 72.844 42.8991C75.6827 41.8622 78.5 40.8254 81.3386 39.725C82.6406 39.2172 84.0279 38.5612 85.4366 38.3919C86.7812 38.2226 88.1899 38.4343 89.5558 38.5612V23.9182H86.4184L86.397 23.9394Z" fill="#00943E"/>
<path d="M62.0007 49.3321C61.5311 49.4802 61.0829 49.6071 60.5707 49.713V51.6809C60.5707 54.3048 58.4363 56.4631 55.8111 56.4631H34.5104C34.0195 56.4631 33.55 56.3996 33.1018 56.2515C32.8243 56.1669 32.5255 56.0611 32.2694 55.913C31.8852 55.7013 31.5437 55.4474 31.2449 55.13C31.0101 55.2147 30.7967 55.3205 30.5833 55.4263L30.007 55.7013C29.5588 55.8918 29.1319 56.1034 28.7264 56.3362C29.1746 56.9075 29.7082 57.3942 30.2844 57.7962C30.3912 57.8597 30.4979 57.9443 30.6046 58.0078C31.6504 58.6426 32.8883 59.0447 34.2116 59.087C33.1445 59.9969 31.3089 60.9703 28.1928 60.9703C27.0829 60.9703 25.6743 60.8645 24.8632 59.9757C24.0308 59.0659 24.351 57.7327 24.7779 56.717C25.2047 55.7225 25.8023 55.0031 26.6988 54.4317C27.5525 53.8604 28.5129 53.4583 29.4307 53.014C31.4156 52.0618 33.4433 51.2365 35.4069 50.2843C36.2819 49.9034 37.1357 49.3744 37.7333 48.6338C38.2669 47.999 38.5443 47.1949 38.5016 46.3484C38.4589 45.4385 38.1815 44.2112 37.2851 43.7457C36.9436 43.5764 36.5594 43.4918 36.1752 43.4706C35.2574 43.386 34.3183 43.5341 33.4219 43.7457C32.4615 43.9785 31.5437 44.317 30.5833 44.5498C30.0283 44.6768 29.4947 44.8249 28.9612 44.9942C27.1683 45.502 25.3755 46.0734 23.6253 46.6659C21.6831 47.3218 19.7408 47.999 17.8199 48.6973C17.6705 48.7607 17.4998 48.8031 17.329 48.8665C14.4904 49.9034 11.673 50.9403 8.83438 52.0406C7.53243 52.5484 6.14512 53.2044 4.73645 53.3737C3.39182 53.543 1.98316 53.3314 0.617188 53.2044V67.8474H3.75466C15.5148 67.8474 9.60274 71.1696 23.732 71.1696C34.9586 71.1696 42.066 62.6208 44.5205 59.1293H55.7684C59.8877 59.1293 63.1959 55.786 63.1959 51.6809V48.9512C62.769 49.0781 62.3635 49.2051 61.958 49.3321H62.0007Z" fill="#00943E"/>
<path d="M58.1594 51.3636C58.1594 51.3636 58.1594 53.0141 57.1776 54.0298C56.644 54.5588 55.9397 54.8551 55.086 54.8551H36.3465C35.4928 54.8551 34.7885 54.58 34.2549 54.0298C34.2122 53.9663 34.1482 53.924 34.1055 53.8605C34.5537 53.6701 35.0019 53.4797 35.4288 53.2469C35.6635 53.4162 35.9837 53.522 36.3679 53.522H55.1073C55.5982 53.522 55.9611 53.3739 56.2385 53.0988C56.8361 52.4851 56.8361 51.4059 56.8361 51.3848C56.8361 51.025 57.1349 50.7288 57.4978 50.7076C57.9033 50.7076 58.1808 51.0039 58.1808 51.3636H58.1594Z" fill="#00943E"/>
<path d="M55.8097 11.2008L45.2021 0.662964V8.64044C41.7871 8.72508 38.5003 9.23293 35.3628 10.1428C20.3798 14.523 9.34524 27.8118 8.72628 43.6609C8.68359 44.1053 8.68359 44.5708 8.68359 45.0363C8.68359 45.65 8.68359 46.2213 8.74762 46.8138H14.0835C14.0408 46.2213 14.0194 45.65 14.0194 45.0363C14.0194 41.4179 14.6597 37.9264 15.855 34.6889C18.16 28.4043 22.4501 23.0718 28.042 19.3688C32.951 16.0889 38.8418 14.1633 45.1807 13.9729V21.8022L55.7884 11.2008H55.8097Z" fill="#00943E"/>
<path d="M34.6172 78.9987L45.2248 89.5366V81.5591C48.6398 81.4745 51.9266 80.9666 55.0641 80.0567C70.0472 75.6765 81.0817 62.3878 81.7006 46.5386C81.7433 46.0943 81.7433 45.6287 81.7433 45.1632C81.7433 44.5496 81.7433 43.9782 81.6793 43.3857H76.3434C76.3861 43.9782 76.4075 44.5496 76.4075 45.1632C76.4075 48.7816 75.7672 52.2731 74.5719 55.5107C72.2669 61.7953 67.9768 67.1277 62.3849 70.8308C57.4759 74.1107 51.5852 76.0362 45.2462 76.2267V68.3973L34.6385 78.9987H34.6172Z" fill="#00943E"/>
</g>
<defs>
<clipPath id="clip0_99_11731">
<rect width="88.8737" height="88.8737" fill="white" transform="translate(0.662109 0.662964)"/>
</clipPath>
</defs>
</svg>
