<svg width="228" height="48" viewBox="0 0 228 48" fill="none" xmlns="http://www.w3.org/2000/svg">
<g clip-path="url(#clip0_99_11705)">
<path d="M63.2129 33.2571H65.3219C66.1199 33.2571 66.5075 33.8171 66.5075 34.5828C66.5075 35.2457 66.2225 35.7257 65.7893 35.9085L66.6443 37.9199H66.1313L65.3333 35.9999H63.6803V37.9199H63.2129V33.2571ZM65.2763 35.5428C65.7551 35.5428 66.0401 35.1771 66.0401 34.5828C66.0401 34.0457 65.7779 33.7142 65.2763 33.7142H63.6803V35.5314H65.2763V35.5428Z" fill="#1B1B1B"/>
<path d="M70.1559 33.2572H73.3479V33.7143H70.6347V35.2914H73.0857V35.76H70.6347V37.4514H73.3821V37.9086H70.1445V33.2457L70.1559 33.2572Z" fill="#1B1B1B"/>
<path d="M166.302 33.2572H169.494V33.7143H166.781V35.2914H169.232V35.76H166.781V37.4514H169.529V37.9086H166.291V33.2457L166.302 33.2572Z" fill="#1B1B1B"/>
<path d="M76.4941 35.5886C76.4941 33.9886 77.1781 33.1771 78.3295 33.1771C79.3327 33.1771 80.0168 33.7486 80.0168 34.9257H79.5722C79.5722 34.0457 79.0933 33.6457 78.3295 33.6457C77.4973 33.6457 76.9615 34.2057 76.9615 35.5543V35.7028C76.9615 37.0171 77.4859 37.5543 78.3409 37.5543C79.1047 37.5543 79.5949 37.1543 79.5949 36.2743H80.0281C80.0281 37.4743 79.3099 38.0228 78.3295 38.0228C77.1553 38.0228 76.5055 37.2228 76.5055 35.6114L76.4941 35.5886Z" fill="#1B1B1B"/>
<path d="M89.4336 35.5886C89.4336 33.9886 90.1176 33.1771 91.269 33.1771C92.2722 33.1771 92.9562 33.7486 92.9562 34.9257H92.5116C92.5116 34.0457 92.0328 33.6457 91.269 33.6457C90.4368 33.6457 89.901 34.2057 89.901 35.5543V35.7028C89.901 37.0171 90.4254 37.5543 91.2804 37.5543C92.0442 37.5543 92.5344 37.1543 92.5344 36.2743H92.9676C92.9676 37.4743 92.2494 38.0228 91.269 38.0228C90.0948 38.0228 89.445 37.2228 89.445 35.6114L89.4336 35.5886Z" fill="#1B1B1B"/>
<path d="M84.5073 35.9771L82.6719 33.2686H83.2761L84.7695 35.5086H84.7923L86.2857 33.2686H86.8671L85.0317 35.9771V37.9314H84.4959V35.9771H84.5073Z" fill="#1B1B1B"/>
<path d="M96.4668 33.1771H97.0026V37.3714H99.2826V37.84H96.4668V33.1771Z" fill="#1B1B1B"/>
<path d="M102.92 33.2571H103.456V37.9199H102.92V33.2571Z" fill="#1B1B1B"/>
<path d="M107.342 33.2571H107.786L109.816 36.4799C109.884 36.5714 110.009 36.7999 110.078 36.9257H110.112V33.2571H110.557V37.9199H110.158L108.083 34.6285C108.026 34.5371 107.889 34.2971 107.809 34.1714H107.786V37.9199H107.342V33.2571Z" fill="#1B1B1B"/>
<path d="M114.182 35.5886C114.182 34 114.752 33.1771 115.835 33.1771C116.735 33.1771 117.305 33.7257 117.305 34.8457H116.929C116.929 33.9428 116.462 33.6343 115.846 33.6343C115.059 33.6343 114.581 34.1828 114.581 35.52V35.6571C114.581 37.0057 115.037 37.5314 115.8 37.5314C116.61 37.5314 116.929 37.0628 116.929 36.0457V35.9428H115.721V35.4857H117.305V37.9086H117.02L116.975 37.28C116.735 37.7943 116.279 37.9886 115.812 37.9886C114.74 37.9886 114.193 37.2114 114.193 35.5771L114.182 35.5886Z" fill="#1B1B1B"/>
<path d="M124.932 33.2572H128.181V33.7143H125.467V35.3257H127.941V35.7829H125.467V37.9086H124.932V33.2457V33.2572Z" fill="#1B1B1B"/>
<path d="M130.951 35.5886C130.951 33.9771 131.658 33.1771 132.844 33.1771C134.029 33.1771 134.736 33.9771 134.736 35.5886C134.736 37.2 134.029 38 132.844 38C131.658 38 130.951 37.2 130.951 35.5886ZM134.28 35.6686V35.5314C134.28 34.1943 133.71 33.6457 132.832 33.6457C131.954 33.6457 131.396 34.1943 131.396 35.5314V35.6686C131.396 36.9943 131.966 37.5428 132.832 37.5428C133.699 37.5428 134.28 36.9943 134.28 35.6686Z" fill="#1B1B1B"/>
<path d="M137.975 33.2571H140.106C140.916 33.2571 141.303 33.8171 141.303 34.5828C141.303 35.2457 141.018 35.7257 140.585 35.9085L141.452 37.9199H140.939L140.129 35.9999H138.453V37.9199H137.986V33.2571H137.975ZM140.061 35.5428C140.54 35.5428 140.836 35.1771 140.836 34.5828C140.836 34.0457 140.574 33.7142 140.061 33.7142H138.442V35.5314H140.061V35.5428Z" fill="#1B1B1B"/>
<path d="M148.805 33.2571H149.34V37.4514H151.62V37.9199H148.816V33.2571H148.805Z" fill="#1B1B1B"/>
<path d="M155.428 33.2571H155.964V37.9199H155.428V33.2571Z" fill="#1B1B1B"/>
<path d="M159.771 33.2572H163.02V33.7143H160.307V35.3257H162.781V35.7829H160.307V37.9086H159.771V33.2457V33.2572Z" fill="#1B1B1B"/>
<path d="M62.4258 12.2057H69.1746C71.9106 12.2057 73.2558 13.7828 73.2558 16.0914C73.2558 17.7028 72.5034 19.0171 71.1582 19.6685L73.6776 24.6628H70.7136L68.5362 20.1257H65.1048V24.6628H62.4258V12.2057ZM68.8212 17.9771C69.8814 17.9771 70.5312 17.2685 70.5312 16.1257C70.5312 14.9828 69.927 14.4 68.8212 14.4H65.1048V17.9771H68.8212Z" fill="#1B1B1B"/>
<path d="M75.5348 12.2057H85.373V14.4228H78.2252V17.2H84.5522V19.3943H78.2252V22.4228H85.4756V24.6628H75.5234V12.2057H75.5348Z" fill="#1B1B1B"/>
<path d="M87.2559 20.96C87.2559 20.8457 87.2559 20.6857 87.2787 20.6171H89.9349C89.9121 20.6857 89.9121 20.8343 89.9121 20.9257C89.9121 22.0914 90.9153 22.7086 92.5683 22.7086C94.2213 22.7086 95.1333 22.1943 95.1333 21.3143C95.1333 18.7314 87.5181 20.2057 87.5181 15.5543C87.5181 13.0857 89.7411 12 92.6025 12C95.4639 12 97.5387 13.1086 97.5387 15.6457V15.8629H94.9395V15.7143C94.9395 14.7543 94.0389 14.1371 92.6253 14.1371C91.1205 14.1371 90.2541 14.5943 90.2541 15.3714C90.2541 17.6914 97.8693 16.3886 97.8693 20.9143C97.8693 23.7829 95.6463 24.8914 92.6025 24.8914C89.5587 24.8914 87.2559 23.7486 87.2559 20.9714V20.96Z" fill="#1B1B1B"/>
<path d="M99.4648 18.4342C99.4648 14.08 101.836 11.9885 105.769 11.9885C109.702 11.9885 112.096 14.08 112.096 18.4342C112.096 22.7885 109.725 24.88 105.769 24.88C101.813 24.88 99.4648 22.7771 99.4648 18.4342ZM109.337 18.72V18.16C109.337 15.5771 108.095 14.2057 105.758 14.2057C103.421 14.2057 102.224 15.5885 102.224 18.16V18.72C102.224 21.2571 103.443 22.6628 105.758 22.6628C108.072 22.6628 109.337 21.2685 109.337 18.72Z" fill="#1B1B1B"/>
<path d="M117.465 12.2057H120.771L125.513 24.6628H122.618L121.74 22.2057H116.371L115.493 24.6628H112.723L117.465 12.2057ZM120.965 20.0343L119.87 16.9714C119.688 16.4571 119.312 15.3028 119.095 14.5714H118.993C118.776 15.3028 118.423 16.4228 118.24 16.9714L117.146 20.0343H120.976H120.965Z" fill="#1B1B1B"/>
<path d="M126.996 12.2057H133.414C136.036 12.2057 137.438 13.7828 137.438 16.24C137.438 18.6971 135.968 20.3314 133.323 20.3314H129.675V24.6743H126.996V12.2171V12.2057ZM132.958 18.1028C134.075 18.1028 134.714 17.4171 134.714 16.2514C134.714 15.0857 134.121 14.4114 132.958 14.4114H129.675V18.1028H132.958Z" fill="#1B1B1B"/>
<path d="M143.65 12.2057H150.069C152.691 12.2057 154.093 13.7828 154.093 16.24C154.093 18.6971 152.622 20.3314 149.977 20.3314H146.329V24.6743H143.65V12.2171V12.2057ZM149.613 18.1028C150.73 18.1028 151.368 17.4171 151.368 16.2514C151.368 15.0857 150.775 14.4114 149.613 14.4114H146.329V18.1028H149.613Z" fill="#1B1B1B"/>
<path d="M155.996 12.2057H162.745C165.481 12.2057 166.826 13.7828 166.826 16.0914C166.826 17.7028 166.074 19.0171 164.728 19.6685L167.248 24.6628H164.284L162.106 20.1257H158.675V24.6628H155.996V12.2057ZM162.391 17.9771C163.452 17.9771 164.101 17.2685 164.101 16.1257C164.101 14.9828 163.497 14.4 162.391 14.4H158.675V17.9771H162.391Z" fill="#1B1B1B"/>
<path d="M168.389 18.4342C168.389 14.08 170.76 11.9885 174.693 11.9885C178.626 11.9885 181.02 14.08 181.02 18.4342C181.02 22.7885 178.649 24.88 174.693 24.88C170.737 24.88 168.389 22.7771 168.389 18.4342ZM178.261 18.72V18.16C178.261 15.5771 177.018 14.2057 174.681 14.2057C172.344 14.2057 171.147 15.5885 171.147 18.16V18.72C171.147 21.2571 172.367 22.6628 174.681 22.6628C176.996 22.6628 178.261 21.2685 178.261 18.72Z" fill="#1B1B1B"/>
<path d="M181.852 21.0057V20.4457H184.474V21.0057C184.474 22.1143 185.089 22.6628 186.309 22.6628C187.529 22.6628 188.087 21.8628 188.087 20.3771V12.2057H190.778V20.3771C190.778 23.4285 189.159 24.88 186.32 24.88C183.482 24.88 181.852 23.6114 181.852 21.0171V21.0057Z" fill="#1B1B1B"/>
<path d="M193.07 12.2057H202.908V14.4228H195.76V17.2H202.087V19.3943H195.76V22.4228H203.011V24.6628H193.059V12.2057H193.07Z" fill="#1B1B1B"/>
<path d="M204.777 18.4342C204.777 14.08 206.989 11.9885 210.854 11.9885C214.034 11.9885 216.405 13.6 216.405 16.9142H213.715C213.715 15.1885 212.564 14.2057 210.899 14.2057C208.596 14.2057 207.559 15.5885 207.559 18.1485V18.7085C207.559 21.3257 208.596 22.6628 210.876 22.6628C212.678 22.6628 213.818 21.7142 213.818 19.9771H216.405C216.405 23.28 214.091 24.88 210.854 24.88C206.989 24.88 204.777 22.88 204.777 18.4342Z" fill="#1B1B1B"/>
<path d="M221.343 14.4685H217.387V12.1942H228V14.4685H224.033V24.6628H221.343V14.4685Z" fill="#1B1B1B"/>
<path d="M45.7936 12.5714C39.5122 12.5714 42.67 10.7771 35.1232 10.7771C29.0926 10.7771 25.285 15.4514 23.9968 17.3142H18.0688C15.8686 17.3142 14.1016 19.12 14.1016 21.3257V22.5942C14.1016 22.5942 14.17 22.5714 14.2042 22.56L14.3638 22.5142C14.626 22.4342 14.8882 22.3657 15.139 22.3085C15.2644 22.2742 15.4012 22.24 15.5152 22.2057V21.3371C15.5152 19.92 16.6552 18.7657 18.0574 18.7657H29.4346C29.674 18.7657 29.8906 18.8 30.1072 18.8571C30.4948 18.96 30.8482 19.1657 31.1446 19.4285C31.2586 19.3828 31.3612 19.3257 31.4638 19.28L31.783 19.1314C32.0338 19.0171 32.2732 18.9028 32.4898 18.7657C32.1934 18.4114 31.84 18.1028 31.4524 17.8857C30.8824 17.5314 30.2212 17.3371 29.503 17.3257C30.0616 16.8342 31.0534 16.2742 32.752 16.2742C33.3448 16.2742 34.0972 16.3314 34.5304 16.8114C34.975 17.3028 34.804 18.0228 34.576 18.5714C34.348 19.1085 34.0288 19.4971 33.55 19.8057C33.094 20.1142 32.581 20.3314 32.0908 20.5714C31.0306 21.0857 29.9476 21.5314 28.8988 22.0457C28.4314 22.2514 27.9754 22.5371 27.6562 22.9371C27.3712 23.28 27.223 23.7142 27.2458 24.1714C27.2686 24.6628 27.4168 25.3257 27.8956 25.5771C28.078 25.6685 28.2832 25.7142 28.4884 25.7257C28.9786 25.7714 29.4802 25.6914 29.959 25.5771C30.472 25.4514 30.9622 25.2685 31.4752 25.1428C31.7716 25.0742 32.0566 24.9942 32.3416 24.9028C33.2992 24.6285 34.2568 24.32 35.1916 24C36.229 23.6457 37.2664 23.28 38.2924 22.9028C38.3722 22.8685 38.4634 22.8457 38.5546 22.8114C40.0708 22.2514 41.5756 21.6914 43.0918 21.0971C43.7872 20.8228 44.5282 20.4685 45.2806 20.3771C45.9988 20.2857 46.7512 20.4 47.4808 20.4685V12.56H45.805L45.7936 12.5714Z" fill="#00943E"/>
<path d="M32.763 26.2857C32.5122 26.3657 32.2728 26.4343 31.9992 26.4914V27.5543C31.9992 28.9714 30.8592 30.1372 29.457 30.1372H18.0798C17.8176 30.1372 17.5668 30.1029 17.3274 30.0229C17.1792 29.9772 17.0196 29.92 16.8828 29.84C16.6776 29.7257 16.4952 29.5886 16.3356 29.4172C16.2102 29.4629 16.0962 29.52 15.9822 29.5772L15.6744 29.7257C15.435 29.8286 15.207 29.9429 14.9904 30.0686C15.2298 30.3772 15.5148 30.64 15.8226 30.8572C15.8796 30.8914 15.9366 30.9372 15.9936 30.9714C16.5522 31.3143 17.2134 31.5314 17.9202 31.5543C17.3502 32.0457 16.3698 32.5714 14.7054 32.5714C14.1126 32.5714 13.3602 32.5143 12.927 32.0343C12.4824 31.5429 12.6534 30.8229 12.8814 30.2743C13.1094 29.7372 13.4286 29.3486 13.9074 29.04C14.3634 28.7314 14.8764 28.5143 15.3666 28.2743C16.4268 27.76 17.5098 27.3143 18.5586 26.8C19.026 26.5943 19.482 26.3086 19.8012 25.9086C20.0862 25.5657 20.2344 25.1314 20.2116 24.6743C20.1888 24.1829 20.0406 23.52 19.5618 23.2686C19.3794 23.1772 19.1742 23.1314 18.969 23.12C18.4788 23.0743 17.9772 23.1543 17.4984 23.2686C16.9854 23.3943 16.4952 23.5772 15.9822 23.7029C15.6858 23.7714 15.4008 23.8514 15.1158 23.9429C14.1582 24.2172 13.2006 24.5257 12.2658 24.8457C11.2284 25.2 10.191 25.5657 9.16496 25.9429C9.08516 25.9772 8.99396 26 8.90276 26.0343C7.38656 26.5943 5.88176 27.1543 4.36556 27.7486C3.67016 28.0229 2.92916 28.3772 2.17676 28.4686C1.45856 28.56 0.706162 28.4457 -0.0234375 28.3772V36.2857H1.65236C7.93376 36.2857 4.77596 38.08 12.3228 38.08C18.3192 38.08 22.1154 33.4629 23.4264 31.5772H29.4342C31.6344 31.5772 33.4014 29.7714 33.4014 27.5543V26.08C33.1734 26.1486 32.9568 26.2172 32.7402 26.2857H32.763Z" fill="#00943E"/>
<path d="M30.7111 27.3828C30.7111 27.3828 30.7111 28.2743 30.1867 28.8229C29.9017 29.1086 29.5255 29.2686 29.0695 29.2686H19.0603C18.6043 29.2686 18.2281 29.12 17.9431 28.8229C17.9203 28.7886 17.8861 28.7657 17.8633 28.7314C18.1027 28.6286 18.3421 28.5257 18.5701 28.4C18.6955 28.4914 18.8665 28.5486 19.0717 28.5486H29.0809C29.3431 28.5486 29.5369 28.4686 29.6851 28.32C30.0043 27.9886 30.0043 27.4057 30.0043 27.3943C30.0043 27.2 30.1639 27.04 30.3577 27.0286C30.5743 27.0286 30.7225 27.1886 30.7225 27.3828H30.7111Z" fill="#00943E"/>
<path d="M29.4564 5.69143L23.7906 0V4.30857C21.9666 4.35429 20.211 4.62857 18.5352 5.12C10.5324 7.48571 4.63856 14.6629 4.30796 23.2229C4.28516 23.4629 4.28516 23.7143 4.28516 23.9657C4.28516 24.2971 4.28516 24.6057 4.31936 24.9257H7.16936C7.14656 24.6057 7.13516 24.2971 7.13516 23.9657C7.13516 22.0114 7.47716 20.1257 8.11556 18.3771C9.34676 14.9829 11.6382 12.1029 14.625 10.1029C17.247 8.33143 20.3934 7.29143 23.7792 7.18857V11.4171L29.445 5.69143H29.4564Z" fill="#00943E"/>
<path d="M18.1367 42.3086L23.8025 48.0001V43.6915C25.6265 43.6458 27.3821 43.3715 29.0579 42.8801C37.0607 40.5143 42.9545 33.3372 43.2851 24.7772C43.3079 24.5372 43.3079 24.2858 43.3079 24.0343C43.3079 23.7029 43.3079 23.3943 43.2737 23.0743H40.4237C40.4465 23.3943 40.4579 23.7029 40.4579 24.0343C40.4579 25.9886 40.1159 27.8743 39.4775 29.6229C38.2463 33.0172 35.9549 35.8972 32.9681 37.8972C30.3461 39.6686 27.1997 40.7086 23.8139 40.8115V36.5829L18.1481 42.3086H18.1367Z" fill="#00943E"/>
</g>
<defs>
<clipPath id="clip0_99_11705">
<rect width="228" height="48" fill="white"/>
</clipPath>
</defs>
</svg>
