<svg width="482" height="100" viewBox="0 0 482 100" fill="none" xmlns="http://www.w3.org/2000/svg">
<g clip-path="url(#clip0_99_11698)">
<path d="M133.635 69.2859H138.093C139.78 69.2859 140.6 70.4526 140.6 72.0478C140.6 73.4287 139.997 74.4287 139.081 74.8097L140.889 79.0002H139.804L138.117 75.0002H134.623V79.0002H133.635V69.2859ZM137.997 74.0478C139.009 74.0478 139.612 73.2859 139.612 72.0478C139.612 70.9287 139.057 70.2383 137.997 70.2383H134.623V74.024H137.997V74.0478Z" fill="#1B1B1B"/>
<path d="M148.311 69.2858H155.059V70.2382H149.323V73.5239H154.505V74.5001H149.323V78.0239H155.132V78.9762H148.287V69.262L148.311 69.2858Z" fill="#1B1B1B"/>
<path d="M351.571 69.2858H358.319V70.2382H352.583V73.5239H357.765V74.5001H352.583V78.0239H358.391V78.9762H351.547V69.262L351.571 69.2858Z" fill="#1B1B1B"/>
<path d="M161.711 74.1429C161.711 70.8096 163.157 69.1191 165.591 69.1191C167.712 69.1191 169.158 70.3096 169.158 72.762H168.218C168.218 70.9287 167.206 70.0953 165.591 70.0953C163.832 70.0953 162.699 71.262 162.699 74.0715V74.381C162.699 77.1191 163.808 78.2382 165.615 78.2382C167.23 78.2382 168.266 77.4049 168.266 75.5715H169.182C169.182 78.0715 167.664 79.2144 165.591 79.2144C163.109 79.2144 161.735 77.5477 161.735 74.1906L161.711 74.1429Z" fill="#1B1B1B"/>
<path d="M189.064 74.1429C189.064 70.8096 190.51 69.1191 192.945 69.1191C195.065 69.1191 196.511 70.3096 196.511 72.762H195.571C195.571 70.9287 194.559 70.0953 192.945 70.0953C191.185 70.0953 190.053 71.262 190.053 74.0715V74.381C190.053 77.1191 191.161 78.2382 192.969 78.2382C194.583 78.2382 195.62 77.4049 195.62 75.5715H196.535C196.535 78.0715 195.017 79.2144 192.945 79.2144C190.462 79.2144 189.089 77.5477 189.089 74.1906L189.064 74.1429Z" fill="#1B1B1B"/>
<path d="M178.654 74.9524L174.773 69.3096H176.051L179.208 73.9762H179.256L182.413 69.3096H183.642L179.762 74.9524V79.0238H178.629V74.9524H178.654Z" fill="#1B1B1B"/>
<path d="M203.934 69.1191H205.066V77.8572H209.886V78.8334H203.934V69.1191Z" fill="#1B1B1B"/>
<path d="M217.574 69.2859H218.707V79.0002H217.574V69.2859Z" fill="#1B1B1B"/>
<path d="M226.926 69.2859H227.866L232.155 76.0002C232.3 76.1907 232.565 76.6668 232.71 76.9287H232.782V69.2859H233.722V79.0002H232.878L228.492 72.143C228.372 71.9526 228.083 71.4526 227.914 71.1906H227.866V79.0002H226.926V69.2859Z" fill="#1B1B1B"/>
<path d="M241.387 74.1429C241.387 70.8334 242.592 69.1191 244.881 69.1191C246.785 69.1191 247.99 70.262 247.99 72.5953H247.195C247.195 70.7144 246.207 70.0715 244.905 70.0715C243.242 70.0715 242.23 71.2144 242.23 74.0001V74.2858C242.23 77.0953 243.194 78.1906 244.809 78.1906C246.52 78.1906 247.195 77.2144 247.195 75.0953V74.881H244.64V73.9287H247.99V78.9763H247.388L247.291 77.6668C246.785 78.7382 245.821 79.143 244.833 79.143C242.568 79.143 241.411 77.5239 241.411 74.1191L241.387 74.1429Z" fill="#1B1B1B"/>
<path d="M264.111 69.2858H270.98V70.2382H265.244V73.5953H270.474V74.5477H265.244V78.9762H264.111V69.262V69.2858Z" fill="#1B1B1B"/>
<path d="M276.838 74.1429C276.838 70.7858 278.332 69.1191 280.838 69.1191C283.345 69.1191 284.839 70.7858 284.839 74.1429C284.839 77.5001 283.345 79.1668 280.838 79.1668C278.332 79.1668 276.838 77.5001 276.838 74.1429ZM283.875 74.3096V74.0239C283.875 71.2382 282.67 70.0953 280.814 70.0953C278.959 70.0953 277.778 71.2382 277.778 74.0239V74.3096C277.778 77.0715 278.983 78.2144 280.814 78.2144C282.646 78.2144 283.875 77.0715 283.875 74.3096Z" fill="#1B1B1B"/>
<path d="M291.682 69.2859H296.188C297.899 69.2859 298.719 70.4526 298.719 72.0478C298.719 73.4287 298.116 74.4287 297.201 74.8097L299.032 79.0002H297.948L296.237 75.0002H292.694V79.0002H291.706V69.2859H291.682ZM296.092 74.0478C297.104 74.0478 297.731 73.2859 297.731 72.0478C297.731 70.9287 297.176 70.2383 296.092 70.2383H292.67V74.024H296.092V74.0478Z" fill="#1B1B1B"/>
<path d="M314.578 69.2859H315.711V78.024H320.531V79.0002H314.602V69.2859H314.578Z" fill="#1B1B1B"/>
<path d="M328.58 69.2859H329.713V79.0002H328.58V69.2859Z" fill="#1B1B1B"/>
<path d="M337.762 69.2858H344.63V70.2382H338.894V73.5953H344.124V74.5477H338.894V78.9762H337.762V69.262V69.2858Z" fill="#1B1B1B"/>
<path d="M131.971 25.4285H146.238C152.022 25.4285 154.866 28.7142 154.866 33.5237C154.866 36.8808 153.275 39.6189 150.431 40.9761L155.757 51.3808H149.491L144.888 41.9285H137.634V51.3808H131.971V25.4285ZM145.491 37.4523C147.732 37.4523 149.106 35.9761 149.106 33.5951C149.106 31.2142 147.829 29.9999 145.491 29.9999H137.634V37.4523H145.491Z" fill="#1B1B1B"/>
<path d="M159.686 25.4285H180.485V30.0475H165.374V35.8332H178.749V40.4047H165.374V46.7142H180.701V51.3808H159.662V25.4285H159.686Z" fill="#1B1B1B"/>
<path d="M184.461 43.6667C184.461 43.4286 184.461 43.0952 184.509 42.9524H190.124C190.076 43.0952 190.076 43.4048 190.076 43.5952C190.076 46.0238 192.197 47.3095 195.692 47.3095C199.186 47.3095 201.114 46.2381 201.114 44.4048C201.114 39.0238 185.015 42.0952 185.015 32.4048C185.015 27.2619 189.715 25 195.764 25C201.813 25 206.199 27.3095 206.199 32.5952V33.0476H200.704V32.7381C200.704 30.7381 198.8 29.4524 195.812 29.4524C192.631 29.4524 190.799 30.4048 190.799 32.0238C190.799 36.8571 206.898 34.1429 206.898 43.5714C206.898 49.5476 202.199 51.8571 195.764 51.8571C189.329 51.8571 184.461 49.4762 184.461 43.6905V43.6667Z" fill="#1B1B1B"/>
<path d="M210.271 38.4046C210.271 29.3332 215.284 24.9761 223.599 24.9761C231.913 24.9761 236.974 29.3332 236.974 38.4046C236.974 47.4761 231.961 51.8332 223.599 51.8332C215.236 51.8332 210.271 47.4523 210.271 38.4046ZM231.142 38.9999V37.8332C231.142 32.4523 228.515 29.5951 223.575 29.5951C218.634 29.5951 216.104 32.4761 216.104 37.8332V38.9999C216.104 44.2856 218.682 47.2142 223.575 47.2142C228.467 47.2142 231.142 44.3094 231.142 38.9999Z" fill="#1B1B1B"/>
<path d="M248.326 25.4285H255.315L265.341 51.3808H259.22L257.364 46.2618H246.013L244.157 51.3808H238.301L248.326 25.4285ZM255.725 41.738L253.411 35.357C253.026 34.2856 252.231 31.8808 251.773 30.357H251.556C251.098 31.8808 250.351 34.2142 249.965 35.357L247.652 41.738H255.749H255.725Z" fill="#1B1B1B"/>
<path d="M268.473 25.4285H282.041C287.584 25.4285 290.548 28.7142 290.548 33.8332C290.548 38.9523 287.439 42.357 281.848 42.357H274.136V51.4047H268.473V25.4523V25.4285ZM281.077 37.7142C283.439 37.7142 284.788 36.2856 284.788 33.857C284.788 31.4285 283.535 30.0237 281.077 30.0237H274.136V37.7142H281.077Z" fill="#1B1B1B"/>
<path d="M303.684 25.4285H317.252C322.795 25.4285 325.759 28.7142 325.759 33.8332C325.759 38.9523 322.65 42.357 317.059 42.357H309.347V51.4047H303.684V25.4523V25.4285ZM316.288 37.7142C318.65 37.7142 319.999 36.2856 319.999 33.857C319.999 31.4285 318.746 30.0237 316.288 30.0237H309.347V37.7142H316.288Z" fill="#1B1B1B"/>
<path d="M329.783 25.4285H344.05C349.834 25.4285 352.678 28.7142 352.678 33.5237C352.678 36.8808 351.088 39.6189 348.244 40.9761L353.57 51.3808H347.304L342.701 41.9285H335.447V51.3808H329.783V25.4285ZM343.303 37.4523C345.545 37.4523 346.918 35.9761 346.918 33.5951C346.918 31.2142 345.641 29.9999 343.303 29.9999H335.447V37.4523H343.303Z" fill="#1B1B1B"/>
<path d="M355.98 38.4046C355.98 29.3332 360.993 24.9761 369.308 24.9761C377.622 24.9761 382.683 29.3332 382.683 38.4046C382.683 47.4761 377.67 51.8332 369.308 51.8332C360.945 51.8332 355.98 47.4523 355.98 38.4046ZM376.851 38.9999V37.8332C376.851 32.4523 374.224 29.5951 369.284 29.5951C364.343 29.5951 361.813 32.4761 361.813 37.8332V38.9999C361.813 44.2856 364.391 47.2142 369.284 47.2142C374.176 47.2142 376.851 44.3094 376.851 38.9999Z" fill="#1B1B1B"/>
<path d="M384.441 43.7618V42.5951H389.984V43.7618C389.984 46.0713 391.286 47.2142 393.864 47.2142C396.443 47.2142 397.624 45.5475 397.624 42.4523V25.4285H403.312V42.4523C403.312 48.8094 399.89 51.8332 393.889 51.8332C387.888 51.8332 384.441 49.1904 384.441 43.7856V43.7618Z" fill="#1B1B1B"/>
<path d="M408.157 25.4285H428.955V30.0475H413.845V35.8332H427.22V40.4047H413.845V46.7142H429.172V51.3808H408.133V25.4285H408.157Z" fill="#1B1B1B"/>
<path d="M432.908 38.4046C432.908 29.3332 437.584 24.9761 445.754 24.9761C452.477 24.9761 457.49 28.3332 457.49 35.238H451.803C451.803 31.6427 449.368 29.5951 445.85 29.5951C440.982 29.5951 438.789 32.4761 438.789 37.8094V38.9761C438.789 44.4285 440.982 47.2142 445.802 47.2142C449.609 47.2142 452.019 45.238 452.019 41.6189H457.49C457.49 48.4999 452.598 51.8332 445.754 51.8332C437.584 51.8332 432.908 47.6665 432.908 38.4046Z" fill="#1B1B1B"/>
<path d="M467.925 30.1426H459.562V25.4045H482V30.1426H473.613V51.3807H467.925V30.1426Z" fill="#1B1B1B"/>
<path d="M96.8085 26.1905C83.5294 26.1905 90.2051 22.4524 74.2509 22.4524C61.502 22.4524 53.4526 32.1905 50.7293 36.0714H38.1973C33.546 36.0714 29.8105 39.8333 29.8105 44.4286V47.0714C29.8105 47.0714 29.9551 47.0238 30.0274 47L30.3648 46.9048C30.9191 46.7381 31.4734 46.5953 32.0036 46.4762C32.2687 46.4048 32.5579 46.3333 32.7989 46.2619V44.4524C32.7989 41.5 35.2089 39.0953 38.1732 39.0953H62.225C62.7311 39.0953 63.189 39.1667 63.6469 39.2857C64.4663 39.5 65.2134 39.9286 65.84 40.4762C66.081 40.381 66.298 40.2619 66.5149 40.1667L67.1896 39.8572C67.7198 39.6191 68.226 39.381 68.6838 39.0953C68.0573 38.3572 67.3102 37.7143 66.4907 37.2619C65.2857 36.5238 63.8879 36.1191 62.3696 36.0953C63.5505 35.0714 65.6473 33.9048 69.2382 33.9048C70.4913 33.9048 72.082 34.0238 72.9978 35.0238C73.9377 36.0476 73.5761 37.5476 73.0941 38.6905C72.6121 39.8095 71.9374 40.6191 70.9252 41.2619C69.9612 41.9048 68.8766 42.3572 67.8403 42.8572C65.599 43.9286 63.3095 44.8572 61.0924 45.9286C60.1042 46.3572 59.1402 46.9524 58.4654 47.7857C57.8629 48.5 57.5496 49.4048 57.5978 50.3572C57.646 51.381 57.9593 52.7619 58.9715 53.2857C59.3571 53.4762 59.7909 53.5714 60.2247 53.5953C61.261 53.6905 62.3214 53.5238 63.3336 53.2857C64.4182 53.0238 65.4544 52.6429 66.5389 52.381C67.1656 52.2381 67.768 52.0714 68.3705 51.881C70.3949 51.3095 72.4193 50.6667 74.3955 50C76.5886 49.2619 78.7817 48.5 80.9508 47.7143C81.1195 47.6429 81.3123 47.5952 81.5051 47.5238C84.7104 46.3572 87.8915 45.1905 91.0969 43.9524C92.567 43.381 94.1335 42.6429 95.7241 42.4524C97.2424 42.2619 98.833 42.5 100.375 42.6429V26.1667H96.8326L96.8085 26.1905Z" fill="#00943E"/>
<path d="M69.2628 54.7619C68.7326 54.9286 68.2265 55.0714 67.6481 55.1905V57.4048C67.6481 60.3571 65.2381 62.7857 62.2738 62.7857H38.222C37.6677 62.7857 37.1375 62.7143 36.6314 62.5476C36.3181 62.4524 35.9807 62.3333 35.6915 62.1667C35.2577 61.9286 34.8721 61.6428 34.5347 61.2857C34.2696 61.3809 34.0286 61.5 33.7876 61.619L33.1369 61.9286C32.6308 62.1428 32.1488 62.3809 31.6909 62.6428C32.197 63.2857 32.7995 63.8333 33.4502 64.2857C33.5707 64.3571 33.6912 64.4524 33.8117 64.5238C34.9926 65.2381 36.3904 65.6905 37.8846 65.7381C36.6796 66.7619 34.607 67.8571 31.0884 67.8571C29.8352 67.8571 28.2446 67.7381 27.3288 66.7381C26.3889 65.7143 26.7504 64.2143 27.2324 63.0714C27.7144 61.9524 28.3892 61.1428 29.4014 60.5C30.3654 59.8571 31.4499 59.4047 32.4862 58.9047C34.7275 57.8333 37.017 56.9048 39.2342 55.8333C40.2223 55.4048 41.1863 54.8095 41.8611 53.9762C42.4636 53.2619 42.7769 52.3571 42.7287 51.4048C42.6805 50.3809 42.3672 49 41.355 48.4762C40.9694 48.2857 40.5356 48.1905 40.1018 48.1667C39.0655 48.0714 38.0051 48.2381 36.9929 48.4762C35.9084 48.7381 34.8721 49.119 33.7876 49.3809C33.161 49.5238 32.5585 49.6905 31.956 49.8809C29.9316 50.4524 27.9072 51.0952 25.931 51.7619C23.7379 52.5 21.5448 53.2619 19.3758 54.0476C19.2071 54.119 19.0143 54.1667 18.8215 54.2381C15.6162 55.4048 12.435 56.5714 9.22967 57.8095C7.75957 58.3809 6.19307 59.119 4.60247 59.3095C3.08417 59.5 1.49357 59.2619 -0.0488281 59.119V75.5952H3.49387C16.773 75.5952 10.0973 79.3333 26.0515 79.3333C38.7281 79.3333 46.7534 69.7143 49.5249 65.7857H62.2256C66.8769 65.7857 70.6124 62.0238 70.6124 57.4048V54.3333C70.1304 54.4762 69.6725 54.619 69.2146 54.7619H69.2628Z" fill="#00943E"/>
<path d="M64.9244 57.0477C64.9244 57.0477 64.9244 58.9048 63.8158 60.0477C63.2133 60.6429 62.418 60.9762 61.454 60.9762H40.2942C39.3302 60.9762 38.5349 60.6667 37.9324 60.0477C37.8842 59.9762 37.8119 59.9286 37.7637 59.8572C38.2698 59.6429 38.7759 59.4286 39.2579 59.1667C39.523 59.3572 39.8845 59.4762 40.3183 59.4762H61.4781C62.0324 59.4762 62.4421 59.3096 62.7554 59C63.4302 58.3096 63.4302 57.0953 63.4302 57.0715C63.4302 56.6667 63.7676 56.3334 64.1773 56.3096C64.6352 56.3096 64.9485 56.6429 64.9485 57.0477H64.9244Z" fill="#00943E"/>
<path d="M62.2733 11.8571L50.2956 0V8.97619C46.4396 9.07143 42.7282 9.64286 39.1855 10.6667C22.2673 15.5952 9.80765 30.5476 9.10875 48.381C9.06055 48.881 9.06055 49.4048 9.06055 49.9286C9.06055 50.619 9.06055 51.2619 9.13285 51.9286H15.1578C15.1096 51.2619 15.0855 50.619 15.0855 49.9286C15.0855 45.8571 15.8085 41.9286 17.1581 38.2857C19.7609 31.2143 24.605 25.2143 30.9192 21.0476C36.4622 17.3571 43.1138 15.1905 50.2715 14.9762V23.7857L62.2492 11.8571H62.2733Z" fill="#00943E"/>
<path d="M38.3418 88.143L50.3195 100V91.0239C54.1755 90.9287 57.8869 90.3572 61.4296 89.3334C78.3478 84.4049 90.8075 69.4525 91.5064 51.6192C91.5546 51.1192 91.5546 50.5953 91.5546 50.0715C91.5546 49.3811 91.5546 48.7382 91.4823 48.0715H85.4573C85.5055 48.7382 85.5296 49.3811 85.5296 50.0715C85.5296 54.143 84.8066 58.0715 83.457 61.7144C80.8542 68.7858 76.0101 74.7858 69.6959 78.9525C64.1529 82.643 57.5013 84.8096 50.3436 85.0239V76.2144L38.3659 88.143H38.3418Z" fill="#00943E"/>
</g>
<defs>
<clipPath id="clip0_99_11698">
<rect width="482" height="100" fill="white"/>
</clipPath>
</defs>
</svg>
