<svg width="48" height="64" viewBox="0 0 48 64" fill="none" xmlns="http://www.w3.org/2000/svg">
<g clip-path="url(#clip0_233_252)">
<path fill-rule="evenodd" clip-rule="evenodd" d="M48 22.6739C48 10.1582 37.2391 0 24.0094 0C10.7797 0 0 10.1582 0 22.6739C0 28.7757 3.67491 36.6111 8.16019 43.805C14.7562 54.3792 23.0106 63.5666 23.0106 63.5666C23.2556 63.844 23.6137 64 24.0094 64C24.4052 64 24.7444 63.844 24.9894 63.5666C24.9894 63.5666 29.1543 58.5569 30.1531 57.3434C30.5112 56.9274 30.5489 56.5114 30.417 56.182C30.0966 55.402 28.7962 55.0033 28.0613 55.9393C27.0436 57.2048 24.9706 59.7183 24.0094 60.8624C21.6537 58.1235 15.51 50.7736 10.4217 42.5742C6.20024 35.7963 2.60071 28.429 2.60071 22.6912C2.58186 11.5103 12.1932 2.4442 24.0094 2.4442C35.8257 2.4442 45.4181 11.5103 45.4181 22.6739C45.4181 24.5287 45.0412 26.5569 44.3816 28.6717C44.3816 28.6717 44.3816 28.6891 44.3816 28.7064C44.3816 28.7411 44.3816 28.7757 44.3816 28.8104C40.8198 39.9393 29.0224 40.5634 25.3286 40.4074L25.3286 30.4745V30.4399C25.3286 29.7638 24.7444 29.2091 24.0471 29.2091H20.9564C20.2403 29.2091 19.6561 29.7638 19.6561 30.4399C19.6561 31.1159 20.2403 31.6706 20.9564 31.6706H22.7468L22.7468 41.5515C22.7468 42.1582 23.2179 42.6782 23.8775 42.7649C23.8775 42.7649 41.159 44.8797 46.4547 30.7519C47.4723 27.8917 48.0565 25.1528 48.0565 22.6912L48 22.6739Z" fill="#1B1B1B"/>
<path fill-rule="evenodd" clip-rule="evenodd" d="M24.0101 18.2017C26.6297 18.2017 28.7781 20.2125 28.7781 22.6914C28.7781 25.1702 26.6485 27.1811 24.0101 27.1811C21.3718 27.1811 19.2422 25.1702 19.2422 22.6914C19.2422 20.2125 21.3718 18.2017 24.0101 18.2017ZM24.0101 20.5939C22.7852 20.5939 21.7864 21.5299 21.7864 22.6914C21.7864 23.8528 22.7852 24.7889 24.0101 24.7889C25.2351 24.7889 26.2339 23.8528 26.2339 22.6914C26.2339 21.5299 25.2351 20.5939 24.0101 20.5939Z" fill="#A8845D"/>
<path fill-rule="evenodd" clip-rule="evenodd" d="M31.3031 49.2134C33.9415 49.2134 36.0711 51.2242 36.0711 53.7031C36.0711 56.182 33.9415 58.1928 31.3031 58.1928C28.6647 58.1928 26.5352 56.182 26.5352 53.7031C26.5352 51.2242 28.6647 49.2134 31.3031 49.2134ZM31.3031 51.6056C30.0781 51.6056 29.0793 52.5417 29.0793 53.7031C29.0793 54.8645 30.0781 55.8006 31.3031 55.8006C32.5281 55.8006 33.5269 54.8645 33.5269 53.7031C33.5269 52.5417 32.5281 51.6056 31.3031 51.6056Z" fill="#A8845D"/>
</g>
<defs>
<clipPath id="clip0_233_252">
<rect width="48" height="64" fill="white"/>
</clipPath>
</defs>
</svg>
