<svg width="48" height="48" viewBox="0 0 48 48" fill="none" xmlns="http://www.w3.org/2000/svg">
<path fill-rule="evenodd" clip-rule="evenodd" d="M7.871 12H40.129C41.159 12 42.001 12.842 42.001 13.872V14.128C42.001 15.158 41.159 16 40.129 16H7.871C6.841 16 6.001 15.158 6.001 14.128V13.872C6.001 12.842 6.841 12 7.871 12ZM10 24C10 25.106 9.104 26 8 26C6.896 26 6 25.106 6 24C6 22.894 6.896 22 8 22C9.104 22 10 22.894 10 24ZM15.871 22H40.129C41.159 22 42.001 22.842 42.001 23.872V24.128C42.001 25.158 41.159 26 40.129 26H15.871C14.841 26 14.001 25.158 14.001 24.128V23.872C14.001 22.842 14.841 22 15.871 22ZM40.129 32H7.871C6.841 32 6.001 32.842 6.001 33.872V34.128C6.001 35.158 6.841 36 7.871 36H40.129C41.159 36 42.001 35.158 42.001 34.128V33.872C42.001 32.842 41.159 32 40.129 32Z" fill="#1B1B1B"/>
</svg>
