<svg width="64" height="64" viewBox="0 0 64 64" fill="none" xmlns="http://www.w3.org/2000/svg">
<path d="M41.9313 33.3782C40.7643 34.5426 39.6 35.7015 38.4358 36.8658C37.2229 38.0761 36.0127 39.2917 34.8025 40.502C31.985 43.3223 29.1837 46.1562 26.3392 48.9468C25.5748 49.6978 24.921 49.7545 24.0593 49.1115C23.6676 48.8171 23.4299 48.0391 23.6433 47.5528C24.0512 46.6154 24.4915 45.6915 24.9481 44.7757C26.3176 42.0229 27.7007 39.2755 29.0784 36.5254C29.1162 36.4498 29.1378 36.3661 29.1702 36.2742C26.8363 35.4962 24.5185 34.7317 22.2116 33.9402C21.7605 33.7862 21.2932 33.5998 20.9177 33.3161C20.2018 32.7785 20.2748 31.6844 20.888 31.0766C22.7681 29.2207 24.6266 27.3432 26.4959 25.4738C29.8131 22.1564 33.1412 18.8498 36.4395 15.5135C37.0932 14.8516 37.7955 14.8138 38.406 15.0624C39.0219 15.3136 39.5811 16.2375 39.1219 17.156C38.3277 18.7444 37.5389 20.341 36.7447 21.9322C35.7182 23.988 34.6863 26.0411 33.6355 28.1401C34.4324 28.4049 35.2077 28.6669 35.9857 28.9262C37.258 29.3504 38.533 29.7691 39.8053 30.1959C40.3078 30.3634 40.7994 30.5741 41.3073 30.7146C42.4013 31.0118 42.8956 32.4165 41.9313 33.3782Z" fill="#1B1B1B"/>
<path d="M55.1537 51.0351C55.1618 52.0103 54.4595 52.6533 53.514 52.6857C52.836 52.71 52.0148 52.0049 52.0013 51.1891V48.9577C47.1119 54.8874 39.7102 58.6667 31.4253 58.6667C16.9894 58.6667 5.23054 47.1936 4.77402 32.8678V32.857C4.78483 32.7246 4.79293 32.5922 4.77132 32.4653C4.76862 32.4545 4.76592 32.441 4.76322 32.4301C4.75781 32.2843 4.75781 32.1411 4.75781 31.9979C4.75781 31.8277 4.75781 31.6575 4.76322 31.4873C5.06306 30.9146 5.67626 30.558 6.34889 30.6634C6.95399 30.7579 7.41862 31.0848 7.60501 31.7143C7.63202 31.8061 7.64012 31.9061 7.64823 32.0033C7.66173 32.1708 7.67524 32.3383 7.68605 32.5058C7.70766 33.5891 7.8049 34.6507 7.96698 35.6935C7.96698 35.7016 7.96969 35.7124 7.96969 35.7205C9.75796 47.0667 19.58 55.7437 31.4253 55.7437C39.2132 55.7437 46.1286 51.9914 50.4561 46.1995C49.9618 46.2319 49.489 46.2751 49.019 46.2886C48.2842 46.3075 47.5333 46.394 46.8147 46.2859C46.134 46.186 45.6558 45.3972 45.6856 44.738C45.7126 44.1545 46.2609 43.3035 47.0011 43.2819C47.4495 43.2684 47.8952 43.1874 48.3437 43.1549C48.8407 43.1198 49.3404 43.1171 49.8402 43.0847C50.7343 43.028 51.6258 42.9442 52.5199 42.901C52.5604 42.8956 52.6036 42.8956 52.6442 42.8929C53.0953 42.8713 53.5653 42.8578 53.9975 42.9631C54.7107 43.136 55.0456 43.6007 55.0862 44.3004C55.0862 44.3436 55.0916 44.3868 55.0916 44.43C55.1105 46.6317 55.1402 48.8334 55.1537 51.0351Z" fill="#1B1B1B"/>
<path d="M58.0899 31.9978C58.0899 32.3436 58.0845 32.6867 58.0683 33.0298C57.8657 33.3566 57.5362 33.5944 57.104 33.7051C56.0342 33.9834 55.213 33.2081 55.1644 32.2653V32.2598C55.1644 32.2598 55.1617 32.249 55.1617 32.2436C55.1077 30.8551 54.9915 29.4773 54.7673 28.0996C54.3486 25.517 53.4437 23.1073 52.2416 20.8057C51.6176 19.6116 50.8828 18.4797 49.9887 17.464C49.2269 16.5968 48.4651 15.7242 47.6412 14.9165C47.0145 14.3005 46.3041 13.7657 45.6125 13.2173C44.2727 12.1556 42.7951 11.3127 41.2445 10.5995C39.6642 9.87556 38.0326 9.30285 36.3119 9.01919C35.3637 8.86251 34.4101 8.70852 33.4539 8.62478C32.4166 8.53293 31.3685 8.46809 30.3311 8.50051C29.4478 8.52483 28.5672 8.67881 27.6947 8.81658C26.8762 8.94625 26.0523 9.07322 25.2581 9.30014C24.2316 9.5946 23.2159 9.94309 22.2218 10.3429C20.6091 10.9913 19.0963 11.8449 17.6944 12.8688C16.8759 13.4631 16.1249 14.1466 15.3442 14.7922C14.1745 15.7593 13.2588 16.9507 12.289 18.2366C12.8617 18.1906 13.3506 18.1339 13.8396 18.1204C14.5662 18.0988 15.301 18.0259 16.0114 18.1258C16.6895 18.2204 17.1946 18.8849 17.1217 19.7575C17.065 20.4166 16.6949 20.9299 15.9412 21.1055C15.5495 21.1974 15.1362 21.2163 14.731 21.2406C13.8261 21.2973 12.9184 21.3324 12.0108 21.3838C11.3814 21.4189 10.7547 21.4702 10.1226 21.5053C10.0793 21.508 10.0361 21.5107 9.99289 21.5134C9.64712 21.5297 9.28244 21.5837 8.95828 21.4999C8.36669 21.3514 7.9642 20.938 7.74539 20.3626C7.71838 20.2951 7.72108 20.2113 7.72108 20.1357V19.771C7.71838 17.5747 7.71297 15.3784 7.72108 13.1821C7.72378 12.4825 8.35859 11.745 9.14738 11.7639C10.2441 11.7909 10.8546 12.3798 10.86 13.4874C10.8627 13.9629 10.86 14.4383 10.86 15.0191C10.8789 15.0002 10.8951 14.9813 10.9113 14.9624C10.914 14.9543 10.9221 14.9462 10.9302 14.9408C11.0923 14.7679 11.2004 14.6436 11.3165 14.5275C12.2107 13.6306 13.0643 12.6959 14.0044 11.853C15.3712 10.6266 16.911 9.62702 18.521 8.74364C20.0283 7.917 21.5708 7.1741 23.2105 6.64731C24.6638 6.18266 26.1414 5.81256 27.6514 5.60455C28.2944 5.5154 28.9481 5.50459 29.5991 5.45327C30.0205 5.42085 30.4392 5.35871 30.8606 5.3371C31.0011 5.3344 31.1442 5.3317 31.2847 5.3344C31.8466 5.34251 32.4031 5.41004 32.9622 5.44786C33.3944 5.47488 33.8321 5.46407 34.2562 5.52891C35.4015 5.6991 36.555 5.83957 37.676 6.10702C38.8106 6.37716 39.9344 6.72295 41.0203 7.14438C42.6681 7.77922 44.2646 8.54914 45.7422 9.52707C46.5931 10.0917 47.444 10.6698 48.2436 11.3046C48.2949 11.3451 48.3436 11.3857 48.3949 11.4289C48.557 11.5613 48.7164 11.6963 48.8757 11.8341C48.9379 11.8881 49 11.9422 49.0621 11.9989C49.7537 12.6229 50.3993 13.3037 51.0638 13.9629C51.0773 13.9737 51.0854 13.9845 51.0962 13.9953C55.4399 18.7363 58.0899 25.0578 58.0899 31.9978Z" fill="#1B1B1B"/>
</svg>
