<svg width="64" height="64" viewBox="0 0 64 64" fill="none" xmlns="http://www.w3.org/2000/svg">
<path d="M31.9394 47.8042C29.7054 47.7502 27.6524 47.1342 25.7128 46.0401C24.4756 45.3405 23.4005 44.4598 22.4685 43.4116C21.2989 42.0987 20.4345 40.5886 19.932 38.8975C19.7078 38.1438 19.5376 37.3577 19.4593 36.5769C19.3647 35.6152 19.3242 34.6346 19.389 33.6729C19.4998 32.0574 19.8618 30.4824 20.4101 28.9534C21.099 27.0327 22.0525 25.2524 23.2681 23.618C23.7463 22.9751 24.2541 22.3456 24.7998 21.7567C25.5399 20.9571 26.2936 20.1602 27.1094 19.4389C28.4223 18.2772 29.854 17.2777 31.3748 16.3889C31.9556 16.0512 32.3446 16.1998 32.7984 16.4727C34.0734 17.2399 35.3106 18.0692 36.4128 19.0742C37.2988 19.8792 38.2011 20.6761 39.0169 21.5487C40.6079 23.2452 41.8992 25.1579 42.8905 27.2677C43.5254 28.6157 43.9819 30.0313 44.279 31.4874C44.4411 32.2789 44.4897 33.0975 44.5627 33.9052C44.6086 34.4131 44.6437 34.9263 44.6275 35.4342C44.5681 37.3306 44.1359 39.1379 43.2552 40.829C42.6798 41.9366 41.9532 42.9254 41.0834 43.833C39.9407 45.0244 38.6225 45.9402 37.1313 46.6291C36.0076 47.1477 34.8352 47.4827 33.6061 47.6286C33.0469 47.6961 32.4878 47.7448 31.9286 47.8042H31.9394ZM33.5845 26.3735C33.5953 26.4032 33.6088 26.4357 33.6196 26.4654C34.6272 25.6928 35.6267 24.9147 36.6451 24.1556C36.9071 23.9584 36.8882 23.8233 36.6721 23.6207C35.8428 22.8454 35.0243 22.062 34.195 21.2894C34.0167 21.1219 33.8033 20.9922 33.5818 20.8274C33.5818 22.7292 33.5818 24.55 33.5818 26.3708L33.5845 26.3735ZM33.6196 36.1447C33.6601 36.1312 33.7061 36.1231 33.7385 36.0988C34.5867 35.4369 35.4322 34.7751 36.2804 34.1132C37.7148 32.9921 39.1546 31.8764 40.5809 30.7445C40.6809 30.6661 40.7646 30.4446 40.7268 30.3339C40.2757 29.0318 39.7111 27.781 38.9385 26.6356C38.9007 26.5788 38.7008 26.5518 38.6414 26.595C38.039 27.0381 37.4501 27.4946 36.8612 27.9539C35.9752 28.64 35.0837 29.3181 34.2139 30.0259C33.9492 30.242 33.5602 30.3447 33.5683 30.8471C33.598 32.5815 33.5791 34.3185 33.5791 36.0528C33.5926 36.0853 33.6034 36.115 33.6169 36.1474L33.6196 36.1447ZM33.6304 44.4517C34.765 44.2383 35.832 43.8466 36.8261 43.2576C38.3253 42.3689 39.495 41.1613 40.3297 39.6404C40.8619 38.6733 41.2481 37.6467 41.3454 36.5337C41.4156 35.7584 41.4724 34.9804 41.5345 34.2023C41.4967 34.1861 41.4589 34.1699 41.4237 34.1564C41.313 34.2159 41.1941 34.2645 41.0969 34.3374C40.8429 34.5292 40.6052 34.7426 40.3513 34.9344C39.2059 35.8178 38.0525 36.6904 36.9098 37.5792C35.8509 38.4031 34.8001 39.2379 33.752 40.078C33.6655 40.1456 33.5872 40.2833 33.5872 40.3914C33.5818 41.7232 33.5899 43.055 33.5953 44.3869C33.6061 44.4112 33.6169 44.4328 33.6277 44.4571L33.6304 44.4517ZM30.3942 44.4571C30.3942 43.2874 30.3699 42.1446 30.405 41.0046C30.4212 40.4589 30.3186 40.0807 29.827 39.7349C28.814 39.0218 27.8685 38.2113 26.8906 37.4468C25.9316 36.6985 24.9646 35.9583 24.0029 35.2127C23.5302 34.848 23.0601 34.4779 22.5793 34.1024C21.9148 37.8601 24.6296 43.4575 30.3915 44.4544L30.3942 44.4571ZM25.1429 26.4194C24.3379 27.6702 23.7139 28.9669 23.2519 30.342C23.2168 30.4446 23.26 30.6418 23.3384 30.704C24.2514 31.4415 25.178 32.16 26.1045 32.8813C27.0986 33.6567 28.0927 34.4266 29.0922 35.1965C29.5055 35.5153 29.9242 35.8259 30.3429 36.142C30.3699 36.0961 30.3888 36.0799 30.3888 36.061C30.3888 34.2699 30.3942 32.4788 30.3888 30.685C30.3888 30.5959 30.3537 30.4743 30.2889 30.423C29.6622 29.9232 29.0274 29.4343 28.3953 28.9453C27.7361 28.4347 27.0797 27.9242 26.4206 27.4136C25.9992 27.084 25.5751 26.7544 25.1429 26.4167V26.4194ZM30.3807 26.4951V20.8274C29.1597 21.7999 28.0225 22.7806 27.0635 23.9341C28.1656 24.7851 29.2543 25.6252 30.3807 26.4951Z" fill="#1B1B1B"/>
<path d="M55.7299 51.0352C55.738 52.0104 55.0356 52.6533 54.0902 52.6858C53.4121 52.7101 52.5909 52.005 52.5774 51.1891V48.9577C47.688 54.8874 40.2864 58.6668 32.0014 58.6668C17.5656 58.6668 5.80672 47.1937 5.35019 32.8678V32.857C5.361 32.7247 5.3691 32.5923 5.34749 32.4653C5.34479 32.4545 5.34209 32.441 5.33939 32.4302C5.33398 32.2843 5.33398 32.1412 5.33398 31.998C5.33398 31.8278 5.33398 31.6576 5.33939 31.4874C5.63923 30.9147 6.25243 30.5581 6.92506 30.6635C7.53016 30.758 7.99479 31.0849 8.18118 31.7143C8.20819 31.8062 8.2163 31.9061 8.2244 32.0034C8.23791 32.1709 8.25141 32.3384 8.26222 32.5058C8.28383 33.5891 8.38108 34.6508 8.54316 35.6936C8.54316 35.7017 8.54586 35.7125 8.54586 35.7206C10.3341 47.0667 20.1561 55.7438 32.0014 55.7438C39.7894 55.7438 46.7047 51.9915 51.0323 46.1995C50.5379 46.232 50.0652 46.2752 49.5952 46.2887C48.8604 46.3076 48.1094 46.3941 47.3909 46.286C46.7102 46.186 46.232 45.3972 46.2617 44.7381C46.2887 44.1545 46.8371 43.3036 47.5773 43.282C48.0257 43.2685 48.4714 43.1874 48.9198 43.155C49.4169 43.1199 49.9166 43.1172 50.4164 43.0848C51.3105 43.028 52.2019 42.9443 53.0961 42.9011C53.1366 42.8957 53.1798 42.8957 53.2203 42.893C53.6715 42.8713 54.1415 42.8578 54.5737 42.9632C55.2868 43.1361 55.6218 43.6007 55.6623 44.3004C55.6623 44.3436 55.6677 44.3869 55.6677 44.4301C55.6866 46.6318 55.7164 48.8335 55.7299 51.0352Z" fill="#1B1B1B"/>
<path d="M58.6661 31.9979C58.6661 32.3437 58.6607 32.6867 58.6445 33.0298C58.4419 33.3567 58.1123 33.5944 57.6801 33.7052C56.6104 33.9834 55.7892 33.2081 55.7406 32.2653V32.2599C55.7406 32.2599 55.7379 32.2491 55.7379 32.2437C55.6838 30.8552 55.5677 29.4774 55.3435 28.0997C54.9248 25.5171 54.0198 23.1074 52.8177 20.8057C52.1937 19.6117 51.459 18.4798 50.5648 17.464C49.8031 16.5968 49.0413 15.7243 48.2174 14.9165C47.5907 14.3006 46.8802 13.7657 46.1887 13.2173C44.8488 12.1556 43.3712 11.3128 41.8207 10.5996C40.2404 9.87562 38.6088 9.30291 36.888 9.01925C35.9399 8.86257 34.9863 8.70859 34.0301 8.62484C32.9927 8.53299 31.9446 8.46816 30.9073 8.50057C30.024 8.52489 29.1434 8.67887 28.2708 8.81664C27.4523 8.94631 26.6284 9.07328 25.8342 9.3002C24.8077 9.59466 23.792 9.94315 22.7979 10.343C21.1853 10.9913 19.6725 11.845 18.2705 12.8688C17.452 13.4632 16.7011 14.1466 15.9204 14.7923C14.7507 15.7594 13.835 16.9507 12.8652 18.2366C13.4379 18.1907 13.9268 18.134 14.4157 18.1205C15.1424 18.0989 15.8772 18.0259 16.5876 18.1259C17.2656 18.2204 17.7708 18.885 17.6979 19.7576C17.6411 20.4167 17.271 20.93 16.5174 21.1056C16.1257 21.1974 15.7124 21.2163 15.3072 21.2407C14.4022 21.2974 13.4946 21.3325 12.5869 21.3838C11.9575 21.419 11.3308 21.4703 10.6987 21.5054C10.6555 21.5081 10.6123 21.5108 10.5691 21.5135C10.2233 21.5297 9.85861 21.5837 9.53445 21.5C8.94287 21.3514 8.54037 20.9381 8.32156 20.3627C8.29455 20.2951 8.29725 20.2114 8.29725 20.1358V19.7711C8.29455 17.5748 8.28914 15.3785 8.29725 13.1822C8.29995 12.4825 8.93476 11.745 9.72355 11.7639C10.8203 11.791 11.4308 12.3799 11.4362 13.4875C11.4389 13.9629 11.4362 14.4384 11.4362 15.0192C11.4551 15.0003 11.4713 14.9814 11.4875 14.9625C11.4902 14.9544 11.4983 14.9463 11.5064 14.9409C11.6685 14.768 11.7766 14.6437 11.8927 14.5275C12.7868 13.6306 13.6405 12.6959 14.5805 11.8531C15.9474 10.6266 17.4871 9.62708 19.0971 8.7437C20.6045 7.91706 22.1469 7.17416 23.7866 6.64737C25.2399 6.18272 26.7176 5.81262 28.2276 5.60461C28.8705 5.51546 29.5242 5.50465 30.1753 5.45333C30.5967 5.42091 31.0154 5.35878 31.4368 5.33716C31.5772 5.33446 31.7204 5.33176 31.8609 5.33446C32.4228 5.34257 32.9792 5.4101 33.5384 5.44792C33.9706 5.47494 34.4082 5.46413 34.8323 5.52897C35.9777 5.69916 37.1312 5.83964 38.2522 6.10708C39.3868 6.37723 40.5105 6.72301 41.5965 7.14444C43.2443 7.77928 44.8407 8.5492 46.3184 9.52713C47.1693 10.0917 48.0202 10.6698 48.8198 11.3047C48.8711 11.3452 48.9197 11.3857 48.9711 11.429C49.1331 11.5613 49.2925 11.6964 49.4519 11.8342C49.514 11.8882 49.5762 11.9422 49.6383 11.999C50.3298 12.623 50.9754 13.3038 51.64 13.9629C51.6535 13.9737 51.6616 13.9845 51.6724 13.9953C56.0161 18.7364 58.6661 25.0578 58.6661 31.9979Z" fill="#1B1B1B"/>
</svg>
