<svg width="64" height="64" viewBox="0 0 64 64" fill="none" xmlns="http://www.w3.org/2000/svg">
<path d="M42.2698 5.458C43.0538 5.72357 43.8627 5.93494 44.6134 6.27097C45.6883 6.74791 46.547 7.5148 47.259 8.43617C47.5277 8.78574 47.7881 9.14074 48.0374 9.47134C48.6358 9.33043 49.2452 9.11906 49.8657 9.05673C50.5804 8.98356 51.3118 9.01608 52.0348 9.0486C52.9628 9.08925 53.8133 9.4307 54.6111 9.86157C56.2677 10.7585 57.4533 12.0674 58.1154 13.8207C58.4755 14.7719 58.6694 15.7502 58.5835 16.7528C58.5115 17.601 58.4173 18.4709 57.9353 19.2161C57.4755 19.9288 56.7414 20.1456 55.938 20.0182C55.2205 19.9044 54.7385 19.4112 54.5501 18.7446C54.4504 18.3869 54.4753 17.9506 54.5861 17.5929C54.9629 16.3897 54.8715 15.2624 54.1014 14.2435C53.503 13.4495 52.7135 12.9156 51.6885 12.7476C50.6248 12.5742 49.6275 12.6717 48.7521 13.3519C48.5582 13.5037 48.3698 13.6635 48.1731 13.8126C47.1676 14.5741 45.6938 14.1351 45.2866 12.8994C45.1065 12.3547 44.9403 11.7937 44.6633 11.2951C43.9541 10.0079 42.8211 9.28436 41.3474 9.04047C40.4692 8.89685 39.6104 8.95376 38.7905 9.26539C37.9816 9.57161 37.3056 10.0919 36.8236 10.8019C36.5383 11.2192 36.3499 11.6989 36.0978 12.1379C35.6075 12.9942 34.5465 13.3926 33.5243 12.9752C32.3137 12.4793 31.0893 12.5227 29.9702 13.2814C28.7069 14.1351 28.1584 15.3355 28.2859 16.8179C28.3302 17.349 28.4687 17.872 28.5518 18.3977C28.6654 19.1077 27.6709 20.002 26.8814 20.0453C25.5711 20.1185 24.9699 19.2568 24.6929 18.1294C24.4879 17.2975 24.4104 16.4547 24.5045 15.6201C24.6597 14.2164 25.1943 12.94 26.103 11.8208C27.1889 10.4848 28.5463 9.56619 30.2499 9.15971C31.1281 8.95105 32.0173 8.91853 32.9149 9.04047C33.1919 9.07841 33.4412 9.0757 33.6711 8.76677C34.7266 7.33324 36.0812 6.26284 37.8348 5.7317C38.1838 5.62601 38.5439 5.56097 38.8957 5.46884C38.9262 5.46071 38.9401 5.38483 38.9595 5.34147C39.0065 5.34147 39.0509 5.34147 39.098 5.34147C39.2365 5.6233 39.3722 5.36044 39.5107 5.34147C40.3362 5.33334 41.1618 5.33334 41.9901 5.33334C42.0842 5.37399 42.1757 5.41464 42.2698 5.458Z" fill="#1B1B1B"/>
<path d="M39.5065 5.33334C39.368 5.35231 39.2323 5.61517 39.0938 5.33334H39.5065Z" fill="#1B1B1B"/>
<path d="M42.2681 5.458C42.1739 5.41735 42.0825 5.3767 41.9883 5.33334C42.0797 5.33334 42.1711 5.33334 42.2625 5.33334C42.2625 5.37399 42.2653 5.41464 42.2681 5.458Z" fill="#1B1B1B"/>
<path d="M5.33398 34.8577C5.35338 34.8685 5.37277 34.882 5.39216 34.8929C5.37277 34.9037 5.35338 34.9146 5.33398 34.9227C5.33398 34.901 5.33398 34.8766 5.33398 34.8549V34.8577Z" fill="#1B1B1B"/>
<path d="M5.33398 35.1259C5.35615 35.1368 5.37831 35.1476 5.40047 35.1585C5.37831 35.1693 5.35615 35.1801 5.33398 35.191C5.33398 35.1693 5.33398 35.1449 5.33398 35.1232V35.1259Z" fill="#1B1B1B"/>
<path d="M17.3541 58.6637C16.0577 58.6393 14.8859 58.203 13.7916 57.5689C13.2348 57.2464 12.6863 56.8779 12.2237 56.4389C11.5118 55.7641 10.8995 54.9783 10.5893 54.0434C10.1959 52.87 9.87734 51.6722 9.54215 50.4799C9.04351 48.6995 8.55873 46.9136 8.07117 45.1305C7.5947 43.3908 7.11545 41.651 6.64729 39.9086C6.33426 38.7542 6.01568 37.5998 5.73866 36.4345C5.47549 35.3262 5.44502 34.2151 5.70819 33.0878C5.93535 32.1176 6.32041 31.2288 6.91877 30.4321C7.94374 29.0744 9.24574 28.0907 10.9328 27.6409C12.0464 27.3428 13.1573 27.0366 14.2737 26.7466C15.3984 26.454 16.5286 26.1776 17.6533 25.8849C18.5425 25.6546 19.4262 25.4025 20.3127 25.1695C21.4457 24.8687 22.5842 24.5787 23.7173 24.2806C25.1218 23.9094 26.5235 23.5327 27.928 23.1642C29.1081 22.8552 30.2882 22.5572 31.4683 22.2509C32.701 21.9285 33.931 21.6006 35.1637 21.2781C36.6735 20.8824 38.186 20.4922 39.6958 20.0966C40.5656 19.8689 41.4299 19.6142 42.3053 19.4083C43.4937 19.1291 44.6406 18.7091 45.8761 18.6007C47.1504 18.4869 48.3554 18.701 49.5217 19.1617C50.4248 19.5194 51.2226 20.0505 51.9068 20.7307C52.9124 21.7279 53.5745 22.9067 53.918 24.2752C54.3224 25.8795 54.7795 27.4675 55.22 29.0636C55.9291 31.6326 56.6439 34.1988 57.3475 36.7678C57.7686 38.3097 58.2423 39.8435 58.5636 41.4044C58.7908 42.5101 58.6273 43.6374 58.2506 44.7268C57.835 45.9299 57.1813 46.9814 56.2339 47.8431C55.1175 48.8593 53.785 49.4582 52.2919 49.7672C51.4691 49.9379 50.6685 50.2089 49.8569 50.4229C48.638 50.7454 47.4136 51.0571 46.1947 51.3768C45.347 51.599 44.5048 51.8294 43.6572 52.0489C42.1557 52.4364 40.6487 52.8076 39.1473 53.2006C38.2802 53.4282 37.4242 53.6965 36.5599 53.9268C35.2524 54.2737 33.9393 54.6016 32.629 54.943C31.7287 55.1761 30.8311 55.4173 29.9308 55.6557C28.5402 56.0216 27.1495 56.3901 25.7561 56.756C24.227 57.157 22.6978 57.5635 21.1659 57.9537C20.2961 58.1759 19.4235 58.3954 18.5425 58.577C18.1575 58.6556 17.753 58.6393 17.3513 58.6664L17.3541 58.6637ZM51.001 36.4128C50.9372 35.8085 50.8874 35.2015 50.8043 34.5999C50.6381 33.413 50.2142 32.3128 49.602 31.2803C48.9759 30.2207 48.2363 29.2479 47.2335 28.4999C46.6462 28.0637 46.07 27.6003 45.4273 27.2534C44.1336 26.557 42.7236 26.2263 41.2526 26.0773C40.1806 25.9689 39.1362 26.0475 38.0974 26.2833C37.3633 26.4513 36.6347 26.6491 35.9061 26.8361C34.6402 27.164 33.3742 27.4919 32.111 27.8225C31.158 28.0718 30.2051 28.3346 29.2521 28.5812C27.9861 28.9118 26.7146 29.2289 25.4486 29.5595C24.227 29.8793 22.9998 30.1936 21.7864 30.5432C20.9055 30.7979 20.0107 31.0418 19.1741 31.4022C17.5813 32.0905 16.307 33.1962 15.2571 34.5511C13.9662 36.2204 13.293 38.1173 13.1268 40.1904C13.0492 41.1768 13.1683 42.1551 13.401 43.1171C13.8415 44.9219 14.7197 46.5072 15.9995 47.8702C16.8666 48.7943 17.8998 49.5287 19.0495 50.0734C20.7033 50.8565 22.4402 51.2359 24.3018 51.1113C25.3655 51.0381 26.3739 50.7834 27.3933 50.5449C28.2216 50.3498 29.036 50.1005 29.8588 49.8837C31.0583 49.5666 32.2578 49.2523 33.4601 48.9433C34.6291 48.6425 35.8009 48.358 36.9699 48.0518C37.8481 47.8215 38.7179 47.5586 39.5933 47.3228C40.9618 46.9543 42.3441 46.6264 43.7043 46.2335C45.142 45.8188 46.3997 45.0628 47.5133 44.0954C48.4551 43.277 49.2086 42.2987 49.7848 41.1985C50.5716 39.6972 51.0093 38.1119 50.9982 36.4047L51.001 36.4128Z" fill="#1B1B1B"/>
<path d="M14.0085 7.15449C17.8231 7.01086 20.38 10.0839 20.6404 12.7883C21.0892 17.4277 17.3272 19.8801 14.4989 20.04C10.2771 20.2785 7.74235 16.948 7.46533 14.2517C7.04149 10.1056 10.6954 6.91601 14.0058 7.15449H14.0085ZM14.0224 16.322C15.6956 16.3871 16.9089 15.0674 16.9089 13.5769C16.9089 12.054 15.6956 10.7532 13.8562 10.7966C12.3132 10.8318 11.2217 12.1597 11.2134 13.5932C11.2051 15.0321 12.5043 16.4223 14.0224 16.322Z" fill="#1B1B1B"/>
<path d="M40.4101 29.8035C42.0501 29.7033 43.5128 30.275 44.7704 31.2967C45.9422 32.2478 46.7456 33.4619 47.0171 34.9631C47.1057 35.4482 47.2276 35.9414 47.2138 36.4292C47.1584 38.3884 46.4353 40.0848 44.9145 41.3883C43.9699 42.1958 42.8452 42.6945 41.6263 42.9953C40.2467 43.3367 38.8755 43.7025 37.5014 44.0657C36.2271 44.4017 34.9556 44.754 33.6813 45.09C32.3101 45.4531 30.9388 45.8027 29.5676 46.1604C28.1853 46.5208 26.8085 46.9002 25.4234 47.2389C23.3014 47.7565 21.3456 47.3338 19.6059 46.071C18.2763 45.1063 17.4175 43.7811 17.0712 42.2121C16.6335 40.2366 17.0601 38.402 18.3095 36.7679C19.2791 35.4997 20.5589 34.684 22.1074 34.2694C23.2211 33.9713 24.3485 33.7274 25.4622 33.4321C26.9276 33.0445 28.3847 32.6218 29.8501 32.2343C31.3821 31.8305 32.9223 31.4566 34.457 31.0609C36.0776 30.6463 37.6898 30.2073 39.3132 29.8116C39.6483 29.7304 40.0223 29.8008 40.4157 29.8008L40.4101 29.8035Z" fill="#1B1B1B"/>
</svg>
