<svg width="64" height="64" viewBox="0 0 64 64" fill="none" xmlns="http://www.w3.org/2000/svg">
<path d="M22.8464 36.3862C22.6542 36.9385 22.8653 37.545 23.3392 37.8835C23.813 38.2219 24.4601 38.2219 24.942 37.8835L32.0087 32.8583L39.0754 37.8835C39.311 38.0513 39.5953 38.1407 39.8769 38.1407H39.8958C40.1774 38.1407 40.4617 38.0513 40.6973 37.8835C41.1711 37.5369 41.3714 36.9385 41.19 36.3862L38.496 28.2608L45.5627 23.2356C46.0366 22.8891 46.2369 22.2907 46.0555 21.7383C45.8741 21.186 45.3461 20.8124 44.7532 20.8124H36.0213L33.3273 12.687C33.1459 12.1347 32.6179 11.761 32.025 11.761C31.432 11.761 30.9041 12.1347 30.7227 12.687L28.0286 20.8124H19.2887C18.6957 20.8124 18.1677 21.186 17.9863 21.7383C17.7941 22.2907 17.9945 22.8972 18.4791 23.2356L25.5458 28.2608L22.8518 36.3862H22.8464ZM23.4935 23.4955H29.0115C29.6044 23.4955 30.1324 23.1219 30.3138 22.5696L32.0169 17.4306L33.7199 22.5696C33.9013 23.1219 34.4293 23.4955 35.0222 23.4955H40.5402L36.0701 26.6661C35.5962 27.0127 35.3959 27.611 35.5773 28.1634L37.2803 33.3023L32.8102 30.1317C32.5773 29.9639 32.2984 29.8772 32.0169 29.8745C31.738 29.8745 31.4591 29.9639 31.2235 30.1317L26.7534 33.3023L28.4564 28.1634C28.6487 27.611 28.4483 27.0045 27.9637 26.6661L23.4935 23.4955Z" fill="#1B1B1B"/>
<path d="M53.3316 26.2059C53.3316 14.6961 43.7631 5.33334 31.9988 5.33334C20.2345 5.33334 10.666 14.6879 10.666 26.2059C10.666 31.5776 12.7481 36.481 16.1651 40.1849V51.7001C16.1651 52.1821 16.4385 52.6261 16.8663 52.8671C17.0748 52.9835 17.3022 53.035 17.5297 53.035C17.776 53.035 18.0224 52.9727 18.239 52.84L22.5278 50.2733V57.3291C22.5278 57.8111 22.7931 58.2551 23.2291 58.4961C23.4375 58.6125 23.665 58.6667 23.8924 58.6667C24.1388 58.6667 24.3852 58.6044 24.6018 58.4717L32.0123 54.0449L39.4229 58.4717C39.6422 58.6044 39.8886 58.6667 40.1323 58.6667C40.3597 58.6667 40.5953 58.6125 40.7956 58.4961C41.2234 58.2551 41.4969 57.8111 41.4969 57.3291V50.2868L45.7667 52.84C45.986 52.9727 46.2297 53.035 46.4761 53.035C46.7035 53.035 46.931 52.9808 47.1394 52.8644C47.5753 52.6234 47.8407 52.1794 47.8407 51.6974V40.1525C51.2468 36.4539 53.3208 31.5614 53.3208 26.2004L53.3316 26.2059ZM31.9988 8.0057C42.2604 8.0057 50.5997 16.1744 50.5997 26.2059C50.5997 36.2373 42.2496 44.406 31.9988 44.406C21.748 44.406 13.3979 36.2346 13.3979 26.2059C13.3979 16.1771 21.748 8.0057 31.9988 8.0057ZM18.897 49.3121V42.6651C20.0233 43.5261 21.239 44.2788 22.5305 44.9069V47.1406L18.897 49.3121ZM32.719 51.3346C32.719 51.3346 32.654 51.3076 32.6188 51.2913C32.5918 51.2724 32.5647 51.2642 32.5376 51.2561C32.4835 51.2372 32.4374 51.2209 32.3833 51.202C32.3481 51.1938 32.3183 51.183 32.2831 51.1749C32.2371 51.1668 32.1829 51.1559 32.1369 51.1559H31.8824C31.8364 51.1559 31.7822 51.1641 31.7362 51.1749C31.701 51.1749 31.6712 51.1938 31.636 51.202C31.5818 51.2209 31.5358 51.2372 31.4817 51.2561C31.4546 51.2642 31.4275 51.2832 31.4004 51.2994C31.3652 51.3184 31.3355 51.3265 31.3003 51.3428L25.2624 54.9519V46.0143C27.3824 46.7074 29.6459 47.0865 32.0015 47.0865V47.0784C34.3625 47.0784 36.6341 46.6966 38.7569 46.0008V54.9465L32.719 51.34V51.3346ZM41.505 47.1596V44.8825C42.7884 44.2544 43.9987 43.5017 45.1196 42.6434V49.3202L41.505 47.1569V47.1596Z" fill="#1B1B1B"/>
</svg>
