<svg width="64" height="64" viewBox="0 0 64 64" fill="none" xmlns="http://www.w3.org/2000/svg">
<path d="M56.7637 56.1658C56.7503 56.9994 56.7342 57.8303 56.7208 58.6666H46.5415C46.5228 58.377 46.5067 58.0874 46.5067 57.7951C46.504 56.1604 47.1665 54.8803 48.5211 53.9574C49.9346 52.9966 51.316 51.9844 52.7403 51.0372C54.009 50.1928 53.8051 48.4119 52.6169 47.7813C51.4394 47.1535 50.0768 47.665 49.72 49.0696C49.6127 49.4891 49.6396 49.9465 49.602 50.4201H46.6381C46.614 50.4066 46.5871 50.3903 46.5603 50.3768C46.5415 50.025 46.4825 49.6731 46.512 49.3267C46.5764 48.5987 46.7051 47.8734 47.0619 47.2238C47.9014 45.6974 49.1112 44.6798 50.8815 44.4416C52.5633 44.2197 54.009 44.6798 55.2294 45.876C56.4257 47.0452 56.871 48.4958 56.702 50.117C56.5357 51.7246 55.6318 52.9046 54.3041 53.7734C53.2392 54.4743 52.1824 55.1834 51.096 55.9087C51.316 56.1306 51.5949 56.0143 51.8337 56.0197C52.3326 56.0251 52.8288 55.9764 53.325 55.9737C54.3362 55.9629 55.3501 55.9656 56.3614 55.971C56.4767 55.971 56.592 56.0143 56.7074 56.0386C56.7262 56.0792 56.7449 56.1225 56.7637 56.1658Z" fill="#1B1B1B"/>
<path d="M5.53351 30.7906C5.46855 30.8096 5.40089 30.8285 5.33594 30.8475C5.33594 30.1979 5.33594 29.5457 5.33594 28.8961C5.38195 28.9909 5.44961 29.0802 5.46585 29.1803C5.50374 29.3995 5.51727 29.6215 5.53892 29.8434C5.53892 30.16 5.53351 30.4767 5.53351 30.7933V30.7906Z" fill="#1B1B1B"/>
<path d="M5.53892 29.8406C5.51456 29.6187 5.50374 29.3968 5.46585 29.1776C5.44961 29.0774 5.38195 28.9881 5.33594 28.8934C5.33594 28.8474 5.33594 28.8041 5.33594 28.7581C5.4036 28.7581 5.47126 28.7554 5.54163 28.7527C5.54163 29.1153 5.54163 29.4753 5.54163 29.8379L5.53892 29.8406Z" fill="#1B1B1B"/>
<path d="M5.33669 27.7484C5.3827 27.7512 5.426 27.7566 5.47201 27.7593C5.49366 27.9135 5.51531 28.0651 5.53697 28.2194C5.46931 28.2194 5.40164 28.2194 5.33398 28.2194C5.33669 28.0651 5.33669 27.9081 5.33669 27.7484Z" fill="#1B1B1B"/>
<path d="M5.33594 28.2221C5.4036 28.2221 5.47126 28.2221 5.53892 28.2221C5.53892 28.3547 5.53892 28.49 5.53892 28.6226C5.47126 28.6226 5.4063 28.6226 5.33864 28.6226V28.2194L5.33594 28.2221Z" fill="#1B1B1B"/>
<path d="M5.33594 28.6254C5.4036 28.6254 5.46855 28.6254 5.53621 28.6254C5.53621 28.6687 5.53892 28.7147 5.54163 28.758C5.47396 28.758 5.4063 28.7607 5.33594 28.7635C5.33594 28.7147 5.33594 28.6687 5.33594 28.6254Z" fill="#1B1B1B"/>
<path d="M5.33594 30.9827C5.35759 30.999 5.37924 31.0152 5.40089 31.0287C5.37924 31.0341 5.35759 31.0423 5.33594 31.0477C5.33594 31.026 5.33594 31.0017 5.33594 30.98V30.9827Z" fill="#1B1B1B"/>
<path d="M5.54044 28.7553C5.54044 28.712 5.53776 28.666 5.53508 28.6227C5.53508 28.4901 5.53508 28.3548 5.53508 28.2222C5.51362 28.0679 5.49216 27.9163 5.4707 27.7621C5.5619 27.3209 5.64505 26.8771 5.74161 26.4359C6.0769 24.9366 6.78234 23.6294 7.71309 22.4196C8.75113 21.0691 10.0494 20.0542 11.5514 19.3045C12.6136 18.7741 13.7375 18.4249 14.9257 18.3248C15.4139 18.2842 15.9048 18.2436 16.3903 18.1814C16.4734 18.1705 16.5968 18.0514 16.6075 17.9703C16.8704 15.9161 17.5893 14.027 18.6488 12.2624C19.3944 11.0202 20.3225 9.92136 21.3981 8.9714C23.0772 7.48558 24.9816 6.36242 27.1704 5.81301C27.9563 5.61544 28.7663 5.49366 29.571 5.40976C30.3059 5.33398 31.0489 5.33127 31.7892 5.33398C33.2886 5.3448 34.7371 5.65604 36.1453 6.16755C37.5186 6.66824 38.7846 7.37191 39.9434 8.25691C40.8285 8.93081 41.6225 9.71026 42.3413 10.5736C43.1729 11.5723 43.8595 12.6548 44.404 13.8321C44.6266 14.3166 44.8251 14.8227 44.97 15.3369C45.0585 15.659 45.2114 15.7104 45.4984 15.7023C46.0992 15.6806 46.7027 15.6617 47.3009 15.705C47.9151 15.7483 48.5321 15.8403 49.1382 15.9567C50.6645 16.249 52.0646 16.885 53.328 17.7754C55.6347 19.4019 57.2763 21.5508 58.1239 24.2789C58.4324 25.2749 58.6496 26.2871 58.6469 27.3372C58.6469 27.9651 58.7006 28.6011 58.6335 29.2235C58.5557 29.957 58.4189 30.6931 58.2258 31.4049C57.8744 32.7121 57.3058 33.9273 56.5279 35.0369C54.7254 37.6107 52.3087 39.2833 49.2831 40.0628C48.9934 40.1358 48.6984 40.1764 48.3711 40.236C48.3711 39.194 48.3657 38.2089 48.3818 37.2237C48.3818 37.1398 48.5133 37.0018 48.6045 36.9801C50.5357 36.5146 52.1317 35.4889 53.4138 33.9895C54.4813 32.7419 55.1492 31.275 55.4336 29.6484C55.5248 29.1288 55.5811 28.5929 55.573 28.0679C55.5382 25.8649 54.8944 23.8784 53.4862 22.1598C52.4562 20.9067 51.2143 19.9486 49.7042 19.3776C48.9398 19.088 48.1431 18.8715 47.3089 18.8525C47.0353 18.8471 46.7617 18.8038 46.4882 18.7876C45.6379 18.7389 44.809 18.8877 43.9883 19.088C43.6637 19.1665 43.3392 19.2504 43.0119 19.3235C42.7812 19.3722 42.6605 19.2991 42.6283 19.0312C42.3494 16.7442 41.5957 14.6359 40.1526 12.8281C38.7122 11.0256 36.9124 9.71567 34.7076 9.00659C33.8171 8.71971 32.9104 8.52214 31.9716 8.48425C31.4888 8.4653 31.0007 8.39494 30.5205 8.42471C28.7663 8.53026 27.1087 8.98223 25.5583 9.84558C24.311 10.5411 23.2435 11.4532 22.3288 12.5303C21.1808 13.8781 20.3922 15.4316 19.9443 17.1637C19.5849 18.544 19.5741 19.9459 19.5983 21.356C19.6063 21.8404 19.5956 21.8296 19.1235 21.7538C18.3081 21.6239 17.4846 21.5508 16.6746 21.4047C15.7733 21.2423 14.9257 21.4805 14.0755 21.6862C12.8818 21.9757 11.8384 22.5847 10.9747 23.448C9.77308 24.647 8.89329 26.0516 8.60897 27.7702C8.52314 28.2898 8.39707 28.8176 8.41853 29.3372C8.46413 30.3765 8.65189 31.3941 9.0596 32.3684C9.529 33.4862 10.1996 34.4578 11.0928 35.2534C11.9994 36.0627 13.0481 36.6418 14.223 36.9693C14.2954 36.9883 14.4 37.0884 14.4 37.1534C14.4107 38.1601 14.4081 39.1669 14.4081 40.2711C13.8475 40.1196 13.3352 40.0167 12.8443 39.8435C10.964 39.175 9.33051 38.1114 8.01351 36.5958C6.79307 35.1912 6.01521 33.5538 5.61823 31.7351C5.55117 31.4266 5.55922 31.0991 5.5324 30.7797C5.5324 30.4631 5.53776 30.1464 5.53776 29.8298C5.53776 29.4671 5.53776 29.1072 5.53776 28.7445L5.54044 28.7553Z" fill="#1B1B1B"/>
<path d="M45.3742 36.7608C45.3769 35.9678 45.2749 35.1992 44.9584 34.4793C44.3335 33.0557 43.3866 31.8946 42.0267 31.1233C41.2569 30.6849 40.4281 30.4548 39.5375 30.3601C38.6658 30.2681 37.8262 30.3222 36.9894 30.5712C35.557 30.9961 34.4358 31.854 33.5534 33.0449C32.9874 33.8081 32.6065 34.6741 32.4429 35.5997C32.3195 36.298 32.341 37.026 32.3356 37.7432C32.3222 39.5132 32.3195 41.2832 32.3302 43.0532C32.3356 44.0816 32.2069 45.1236 32.4349 46.1331C32.8211 47.8409 33.6928 49.2509 35.1574 50.2333C36.2356 50.9559 37.4051 51.435 38.9877 51.4648C39.2613 51.4187 39.7897 51.3565 40.31 51.2428C42.0589 50.8666 43.3786 49.8598 44.3764 48.3821C45.1784 47.1913 45.4198 45.8543 45.4144 44.4524C45.4037 41.8894 45.3742 39.3265 45.3742 36.7608ZM42.3191 39.2317V40.9124H42.303C42.303 42.225 42.3378 43.5377 42.2922 44.8476C42.2386 46.4768 41.3239 47.7461 39.626 48.1873C37.8879 48.6393 36.1284 47.535 35.6402 45.9031C35.5275 45.5296 35.4953 45.1209 35.4927 44.7285C35.4819 42.3631 35.5087 39.9949 35.4712 37.6295C35.4631 37.0098 35.4283 36.4089 35.6321 35.8135C35.9701 34.8203 36.6514 34.1356 37.5634 33.6782C38.47 33.2235 40.2188 33.5158 40.9913 34.187C41.5895 34.7039 42.0321 35.3183 42.1849 36.0977C42.2761 36.5713 42.2976 37.0639 42.3164 37.5483C42.3378 38.1086 42.3191 38.6715 42.3191 39.2317Z" fill="#1B1B1B"/>
<path d="M27.2809 36.8421C27.1977 36.4416 27.1682 36.0194 27.0207 35.6459C26.5701 34.5065 25.7412 33.7866 24.5369 33.5376C23.582 33.3373 22.6861 33.4943 21.8975 34.0762C21.1626 34.6201 20.6422 35.3346 20.5027 36.2656C20.4384 36.696 20.4437 37.1371 20.4437 37.5729C20.4437 40.0059 20.4706 42.4417 20.4437 44.8748C20.4276 46.4553 21.691 47.9493 23.2279 48.2226C24.9982 48.5366 26.8222 47.4026 27.2111 45.4729C27.2165 45.4404 27.2165 45.4052 27.2192 45.3728C27.2496 45.0083 27.4445 44.8252 27.8039 44.8233C28.6676 44.8233 29.534 44.8233 30.4057 44.8233C30.3494 46.2659 29.9819 47.5541 29.1531 48.6881C28.1526 50.0522 26.8249 50.9317 25.1914 51.3025C23.2226 51.7518 21.4442 51.2484 19.8617 50.0359C18.5366 49.021 17.6917 47.6732 17.4208 46.0088C17.2035 44.6664 17.3403 43.3078 17.3296 41.9573C17.3135 39.9951 17.3135 38.0329 17.3672 36.0708C17.3806 35.5457 17.5656 35.0045 17.7641 34.5065C18.5661 32.501 20.0038 31.1262 22.0585 30.5416C23.9978 29.9922 25.87 30.3061 27.5571 31.4618C29.0083 32.4577 29.8961 33.8569 30.2797 35.5782C30.3709 35.9923 30.3816 36.4253 30.4352 36.8962H27.356C27.3291 36.88 27.305 36.8638 27.2782 36.8448L27.2809 36.8421Z" fill="#1B1B1B"/>
<path d="M27.2812 36.8421C27.3083 36.8584 27.3327 36.8746 27.3597 36.8936C27.3327 36.8773 27.3083 36.8611 27.2812 36.8421Z" fill="#1B1B1B"/>
</svg>
