<svg width="64" height="64" viewBox="0 0 64 64" fill="none" xmlns="http://www.w3.org/2000/svg">
<path d="M58.6672 8.71533C58.6672 8.4098 58.6644 8.12304 58.6616 7.86843C58.656 7.31901 58.6448 6.91432 58.6251 6.76155C58.5719 6.65435 58.5747 6.52571 58.527 6.4185C58.213 5.70292 57.5513 5.518 56.8392 5.46708C55.8186 5.39739 54.7925 5.35719 53.7691 5.33575C53.1355 5.32235 52.5018 5.36791 51.8682 5.39739C51.114 5.43491 50.3542 5.46172 49.6028 5.53408C48.4505 5.64664 47.2925 5.7458 46.1542 5.93609C44.9458 6.13978 43.7458 6.40778 42.5627 6.71867C40.9085 7.15017 39.3524 7.80947 37.872 8.64833C36.4057 9.47916 35.0795 10.4547 33.9833 11.7143C32.9992 12.8453 32.2197 14.0889 31.6085 15.4343C31.4992 15.6755 31.3786 15.9114 31.2412 16.1901C30.3665 14.9063 29.374 13.8236 28.1375 12.9499C27.1366 12.2423 26.1161 11.5669 24.9805 11.0738C22.8862 10.1653 20.7133 9.47916 18.4367 9.13343C17.046 8.9217 15.6498 8.74213 14.2479 8.60277C13.3115 8.50897 12.3638 8.47949 11.4218 8.47413C10.2302 8.46341 9.03861 8.50361 7.84703 8.53309C7.52741 8.53845 7.20498 8.55989 6.89097 8.61349C6.24611 8.71801 5.74705 9.0557 5.62929 9.68016C5.4807 10.4708 5.37976 11.2748 5.35453 12.0762C5.30126 13.853 5.34612 15.6273 5.55359 17.3961C5.64051 18.1465 5.66014 18.905 5.77228 19.6501C5.89284 20.4407 6.0891 21.2179 6.25452 22.0005C6.60779 23.6863 7.17134 25.3077 7.90031 26.8756C8.43581 28.028 9.12833 29.0973 9.90496 30.1158C10.5779 31.0002 11.3685 31.7855 12.2769 32.4448C13.6507 33.4364 15.1563 34.2163 16.76 34.822C18.0918 35.3232 19.446 35.7547 20.8563 35.9905C21.9385 36.1728 23.0264 36.3416 24.117 36.4595C25.2749 36.5855 26.4413 36.6686 27.6076 36.7195C28.2749 36.7517 28.945 36.6954 29.6123 36.6605C30.7338 36.6043 31.8553 36.5265 32.9767 36.4649C33.8936 36.4167 34.6478 35.8217 34.6337 34.8381C34.6309 34.5218 34.6786 34.2029 34.6982 33.8867C34.7122 33.7044 34.7571 33.5892 35.001 33.5892C35.4356 33.5918 35.8702 33.549 36.3076 33.5302C37.0001 33.5061 37.6926 33.5061 38.3823 33.4578C39.4281 33.3882 40.4851 33.3533 41.5169 33.1791C42.9916 32.9272 44.472 32.6404 45.9047 32.2223C48.3187 31.5201 50.5617 30.4776 52.4794 28.8508C53.3037 28.1513 54.0018 27.366 54.6383 26.5218C55.813 24.962 56.6401 23.2333 57.2233 21.4028C57.5541 20.3603 57.8065 19.2936 58.0532 18.2269C58.2298 17.4685 58.3616 16.6993 58.4709 15.9301C58.5551 15.3459 58.5691 14.7536 58.6223 14.1666C58.6223 14.1666 58.67 10.9291 58.6672 8.71533ZM11.8171 11.6045C11.9965 11.5964 12.1788 11.6473 12.361 11.6607C13.2862 11.7304 14.2115 11.7787 15.1367 11.8671C16.1068 11.9582 17.0769 12.0842 18.047 12.1994C18.1339 12.2102 18.218 12.2477 18.3049 12.2718C18.3161 12.2959 18.3273 12.3174 18.3413 12.3388V18.5137C18.2965 18.5351 18.2544 18.5566 18.2096 18.578C16.99 17.4524 15.804 16.2919 14.6012 15.1475C13.404 14.0058 12.2124 12.8587 10.99 11.6902C11.2339 11.4946 11.5395 11.6205 11.8171 11.6045ZM11.1358 25.3372C10.847 25.3372 10.7012 25.2595 10.5975 24.9995C10.0451 23.6353 9.58534 22.2444 9.32459 20.8025C9.16198 19.9047 9.01618 19.0042 8.90684 18.1037C8.80591 17.2862 8.75824 16.4661 8.69656 15.6487C8.6517 15.0698 8.62366 14.4882 8.59002 13.9093C8.64049 13.8852 8.68815 13.8584 8.73862 13.8343C12.7031 17.6373 16.6675 21.443 20.674 25.2863C20.5563 25.3104 20.4974 25.3318 20.4385 25.3318C17.3376 25.3318 14.2367 25.3265 11.1358 25.3372ZM29.1721 33.624C28.5216 33.5945 27.8684 33.565 27.2179 33.5356C27.1843 33.5329 27.1478 33.5329 27.1142 33.5302C25.9618 33.4418 24.8095 33.3587 23.6572 33.2622C22.1123 33.1336 20.6096 32.7825 19.132 32.3456C17.4189 31.8391 15.818 31.0994 14.3909 30.0568C13.8274 29.6441 13.3311 29.1429 12.8096 28.6793C12.7563 28.6337 12.7339 28.556 12.6778 28.4514H13.8526C17.0937 28.4541 20.3348 28.4568 23.5759 28.4514C23.8114 28.4514 23.9796 28.5051 24.1535 28.6712C25.746 30.1935 27.3497 31.7051 28.945 33.222C29.0403 33.3131 29.1132 33.4257 29.1973 33.5275C29.1889 33.5597 29.1805 33.5918 29.1721 33.624ZM31.5609 31.2923C31.4179 31.1798 31.2945 31.1047 31.1936 31.0082C28.0702 28.028 24.9497 25.0451 21.8376 22.0541C21.7002 21.9228 21.5852 21.7003 21.5852 21.5181C21.5684 18.7549 21.574 15.9918 21.574 13.1214C21.9946 13.2688 22.3591 13.3974 22.7236 13.5261C24.1506 14.0299 25.4376 14.7696 26.5759 15.7318C27.7002 16.6805 28.5833 17.8169 29.2506 19.1006C30.0553 20.6444 30.6188 22.2685 30.93 23.965C31.0983 24.8816 31.2581 25.8035 31.3422 26.7308C31.4543 27.9664 31.4936 29.2072 31.5609 30.4454C31.5749 30.7108 31.5609 30.9734 31.5609 31.2923ZM41.4187 10.4065C42.9019 9.81953 44.4327 9.37999 46.0168 9.13343C47.2168 8.94582 48.4252 8.79842 49.6336 8.66977C50.3738 8.58937 51.1224 8.57597 51.8654 8.52773C52.2972 8.50093 52.7261 8.46877 53.0457 8.44733C49.0897 12.2289 45.0972 16.0454 41.2057 19.7653V10.7334C41.2029 10.7093 41.2029 10.6852 41.2029 10.6611C41.2729 10.5726 41.3262 10.444 41.4187 10.4065ZM34.6057 26.2431C34.387 24.3456 34.073 22.5499 33.445 20.8132C33.2964 20.4005 33.4197 20.0199 33.5235 19.6367C33.8992 18.2511 34.4094 16.9137 35.1188 15.6514C35.7608 14.5097 36.5823 13.4939 37.5805 12.6122C37.6618 12.5398 37.7627 12.4862 37.9085 12.3897V12.9793C37.9085 16.1552 37.8804 19.3311 37.9365 22.507C37.9449 23.043 37.7431 23.3271 37.4094 23.6434C36.5739 24.4313 35.7496 25.23 34.9169 26.0206C34.8356 26.0983 34.7291 26.1546 34.6057 26.2431ZM53.6037 21.7995C53.0373 23.1556 52.3196 24.434 51.3159 25.5382C50.228 26.7362 48.9103 27.6635 47.3991 28.3308C46.0477 28.9258 44.657 29.4082 43.1907 29.6628C42.1028 29.8531 41.0122 30.0622 39.9131 30.1881C38.8449 30.3087 37.7655 30.3329 36.6889 30.3972C36.2066 30.424 35.7244 30.4454 35.2421 30.4615C35.1412 30.4642 35.0375 30.432 34.959 30.4213C35.9375 29.4484 36.8963 28.489 37.8664 27.5402C38.2618 27.1543 38.6851 26.7952 39.0945 26.4173C39.3945 26.1412 39.6945 25.8598 39.9888 25.5784C40.8608 24.7476 41.7328 23.9141 42.6019 23.0806C43.2383 22.4695 43.8916 21.8745 44.4972 21.2394C44.7916 20.9285 45.1281 20.8186 45.529 20.8186C48.0159 20.8186 50.5028 20.8213 52.9869 20.8293C53.2981 20.832 53.6093 20.8641 53.9794 20.8856C53.8504 21.2045 53.7271 21.502 53.6037 21.7995ZM55.5411 12.3013C55.5214 12.714 55.4626 13.1241 55.4093 13.5341C55.2495 14.775 55.0953 16.0159 54.9186 17.2541C54.8513 17.7338 54.8261 17.7338 54.3214 17.7338C52.4626 17.7392 50.6037 17.7445 48.7477 17.7445C48.5542 17.7445 48.3635 17.7258 48.1617 17.7177C50.6177 15.3914 53.0457 13.0919 55.5467 10.7254C55.5467 11.2989 55.5635 11.8001 55.5411 12.3013Z" fill="#1B1B1B"/>
<path d="M31.5645 58.6639C31.657 58.5754 31.7495 58.4119 31.842 58.4119C32.0719 58.4119 32.3635 58.3556 32.4701 58.6639H31.5645Z" fill="#1B1B1B"/>
<path d="M29.957 58.5194C30.1365 58.4819 30.3131 58.4363 30.4953 58.4203C30.5178 58.4203 30.557 58.5784 30.5851 58.6641H30.0271L29.957 58.5194Z" fill="#1B1B1B"/>
<path d="M32.6094 58.6641C32.7327 58.4229 32.7888 58.3988 32.8897 58.5382C32.8897 58.581 32.8897 58.6239 32.8897 58.6641H32.6122H32.6094Z" fill="#1B1B1B"/>
<path d="M20.8049 42.5888C21.4609 42.5888 21.9964 42.0769 21.9964 41.4498V40.7422C21.9964 40.1151 21.4609 39.6032 20.8049 39.6032H10.8068C10.1507 39.6032 9.61523 40.1151 9.61523 40.7422V41.4498C9.61523 41.4498 9.61523 41.4551 9.61523 41.4605V48.9433C9.61523 48.9433 9.61523 48.9486 9.61523 48.954V49.2006C9.61523 49.2006 9.61523 49.2059 9.61523 49.2113V56.7906C9.61523 56.7906 9.61523 56.7959 9.61523 56.8013V57.5088C9.61523 58.136 10.1507 58.6479 10.8068 58.6479H20.8049C21.4609 58.6479 21.9964 58.136 21.9964 57.5088V56.8013C21.9964 56.1741 21.4609 55.6622 20.8049 55.6622H13.176V50.3396H17.2245C17.8806 50.3396 18.4161 49.8277 18.4161 49.2006V48.954C18.4161 48.3269 17.8806 47.815 17.2245 47.815H13.176V42.5888H20.8049Z" fill="#1B1B1B"/>
<path d="M49.0831 39.6032H46.8289C43.9102 39.6032 41.5215 41.8866 41.5215 44.6766V53.5932C41.5215 56.3832 43.9102 58.6666 46.8289 58.6666H49.0831C52.0018 58.6666 54.3905 56.3832 54.3905 53.5932V44.6766C54.3905 41.8866 52.0018 39.6032 49.0831 39.6032ZM50.827 53.084C50.827 54.6009 49.5401 55.8284 47.956 55.8284C46.3691 55.8284 45.085 54.5983 45.085 53.084V45.1858C45.085 43.6689 46.3719 42.4414 47.956 42.4414C49.5429 42.4414 50.827 43.6716 50.827 45.1858V53.084Z" fill="#1B1B1B"/>
<path d="M35.3345 46.089H37.1878C37.4205 46.089 37.6363 45.9979 37.7906 45.8478C37.9476 45.7004 38.0429 45.4967 38.0429 45.2716V44.6766C38.0429 41.8866 35.6541 39.6032 32.7355 39.6032H30.4813C27.5626 39.6032 25.1738 41.8866 25.1738 44.6766V53.5932C25.1738 56.3832 27.5626 58.6639 30.4813 58.6639H32.7355C35.6541 58.6639 38.0429 56.3832 38.0429 53.5932V52.6418C38.0429 52.1915 37.656 51.8244 37.1878 51.8244H35.3345C35.099 51.8244 34.8859 51.9155 34.7289 52.0656C34.5719 52.2157 34.4794 52.4167 34.4794 52.6418V53.084C34.4794 54.5983 33.1953 55.8284 31.6084 55.8284C30.8149 55.8284 30.0972 55.5202 29.5785 55.0244C29.0598 54.5259 28.7374 53.8398 28.7374 53.084V45.1831C28.7374 43.6689 30.0215 42.4387 31.6084 42.4387C32.4018 42.4387 33.1196 42.7469 33.6382 43.2428C34.1569 43.7413 34.4794 44.4274 34.4794 45.1831V45.2716C34.4794 45.7218 34.8635 46.089 35.3345 46.089Z" fill="#1B1B1B"/>
</svg>
