<svg width="1412" height="128" viewBox="0 0 1412 128" fill="none" xmlns="http://www.w3.org/2000/svg">
<path d="M-0.000244141 64C0.0212402 46.9119 6.66772 30.8315 18.7388 18.7605C30.8313 6.66799 46.9117 0.0214685 63.9998 0C81.0879 0.021337 97.1682 6.66798 109.239 18.739C118.051 27.5511 123.926 38.4858 126.499 50.3638L1381.13 50.3639C1381.15 50.3424 1381.15 50.3424 1381.17 50.3637L1398.36 50.3638C1405.91 50.3638 1412.02 56.4745 1412 64.0001C1412 67.7734 1410.48 71.1825 1408.01 73.6482C1405.55 76.1138 1402.14 77.6362 1398.36 77.6363L1394.76 77.6362L1394.76 104.994C1394.76 108.768 1393.24 112.177 1390.77 114.643C1388.31 117.108 1384.9 118.631 1381.13 118.631C1373.58 118.63 1367.49 112.541 1367.49 104.994L1367.49 77.6363L1341.39 77.6576L1341.41 104.994C1341.39 108.746 1339.87 112.155 1337.4 114.621C1334.91 117.108 1331.51 118.63 1327.75 118.652C1320.23 118.63 1314.12 112.52 1314.1 104.994L1314.1 77.6362H126.499C123.926 89.5142 118.051 100.449 109.239 109.261C97.1682 121.332 81.0879 127.979 63.9998 128C46.8903 128 30.8313 121.332 18.7388 109.24C6.66772 97.1685 -0.000244141 81.1095 -0.000244141 64ZM63.9783 92.3873C79.6727 92.3874 92.3872 79.673 92.3656 64C92.3872 48.327 79.673 35.6127 63.9998 35.6342C48.3267 35.6126 35.6123 48.327 35.6124 64.0215C35.6124 79.6732 48.3267 92.3874 63.9783 92.3873Z" fill="#EBEBEB"/>
</svg>
